<mxfile host="app.diagrams.net" agent="Mozilla/5.0 (Windows NT 10.0; Win64; x64) AppleWebKit/537.36 (KHTML, like Gecko) Chrome/130.0.0.0 Safari/537.36" version="24.8.6">
  <diagram name="Страница — 1" id="pTl63RGVZe-yzqCcAQAt">
    <mxGraphModel dx="1578" dy="1898" grid="1" gridSize="10" guides="1" tooltips="1" connect="1" arrows="1" fold="1" page="1" pageScale="1" pageWidth="827" pageHeight="1169" math="0" shadow="0">
      <root>
        <mxCell id="0" />
        <mxCell id="1" parent="0" />
        <mxCell id="RXPsqKweVLeDFt9XpWQ8-1" value="&lt;b&gt;Заказ товара&lt;/b&gt;" style="rounded=0;whiteSpace=wrap;html=1;" parent="1" vertex="1">
          <mxGeometry x="877.38" y="802.5" width="240" height="90" as="geometry" />
        </mxCell>
        <mxCell id="RXPsqKweVLeDFt9XpWQ8-7" value="" style="endArrow=classic;html=1;rounded=0;entryX=0.111;entryY=1.009;entryDx=0;entryDy=0;entryPerimeter=0;" parent="1" edge="1">
          <mxGeometry width="50" height="50" relative="1" as="geometry">
            <mxPoint x="968.38" y="972.5" as="sourcePoint" />
            <mxPoint x="968.38" y="892.5" as="targetPoint" />
          </mxGeometry>
        </mxCell>
        <mxCell id="RXPsqKweVLeDFt9XpWQ8-8" value="" style="endArrow=classic;html=1;rounded=0;entryX=0.111;entryY=1.009;entryDx=0;entryDy=0;entryPerimeter=0;" parent="1" edge="1">
          <mxGeometry width="50" height="50" relative="1" as="geometry">
            <mxPoint x="1058.38" y="972.5" as="sourcePoint" />
            <mxPoint x="1058.38" y="892.5" as="targetPoint" />
          </mxGeometry>
        </mxCell>
        <mxCell id="RXPsqKweVLeDFt9XpWQ8-16" value="Пользователь" style="text;html=1;align=center;verticalAlign=middle;whiteSpace=wrap;rounded=0;" parent="1" vertex="1">
          <mxGeometry x="974.88" y="907.5" width="80" height="20" as="geometry" />
        </mxCell>
        <mxCell id="RXPsqKweVLeDFt9XpWQ8-17" value="База данных" style="text;html=1;align=center;verticalAlign=middle;whiteSpace=wrap;rounded=0;" parent="1" vertex="1">
          <mxGeometry x="1058.38" y="892.5" width="80" height="50" as="geometry" />
        </mxCell>
        <mxCell id="RXPsqKweVLeDFt9XpWQ8-20" value="А2" style="text;html=1;align=center;verticalAlign=middle;whiteSpace=wrap;rounded=0;" parent="1" vertex="1">
          <mxGeometry x="1077.38" y="872.5" width="60" height="30" as="geometry" />
        </mxCell>
        <mxCell id="RXPsqKweVLeDFt9XpWQ8-75" style="edgeStyle=orthogonalEdgeStyle;rounded=0;orthogonalLoop=1;jettySize=auto;html=1;exitX=1;exitY=0.25;exitDx=0;exitDy=0;entryX=0;entryY=0.25;entryDx=0;entryDy=0;" parent="1" source="RXPsqKweVLeDFt9XpWQ8-21" target="RXPsqKweVLeDFt9XpWQ8-1" edge="1">
          <mxGeometry relative="1" as="geometry">
            <Array as="points">
              <mxPoint x="747.38" y="662.5" />
              <mxPoint x="837.38" y="662.5" />
              <mxPoint x="837.38" y="824.5" />
            </Array>
          </mxGeometry>
        </mxCell>
        <mxCell id="RXPsqKweVLeDFt9XpWQ8-21" value="&lt;b&gt;Поиск товаров&lt;/b&gt;" style="rounded=0;whiteSpace=wrap;html=1;" parent="1" vertex="1">
          <mxGeometry x="507.38" y="632.5" width="240" height="90" as="geometry" />
        </mxCell>
        <mxCell id="RXPsqKweVLeDFt9XpWQ8-22" value="" style="endArrow=classic;html=1;rounded=0;entryX=0;entryY=0.5;entryDx=0;entryDy=0;" parent="1" edge="1">
          <mxGeometry width="50" height="50" relative="1" as="geometry">
            <mxPoint x="427.38" y="707.5" as="sourcePoint" />
            <mxPoint x="507.38" y="707.5" as="targetPoint" />
          </mxGeometry>
        </mxCell>
        <mxCell id="RXPsqKweVLeDFt9XpWQ8-23" value="Введённые данные" style="text;html=1;align=center;verticalAlign=middle;whiteSpace=wrap;rounded=0;" parent="1" vertex="1">
          <mxGeometry x="427.38" y="672.5" width="80" height="30" as="geometry" />
        </mxCell>
        <mxCell id="RXPsqKweVLeDFt9XpWQ8-49" style="edgeStyle=orthogonalEdgeStyle;rounded=0;orthogonalLoop=1;jettySize=auto;html=1;exitX=1;exitY=0.25;exitDx=0;exitDy=0;entryX=-0.004;entryY=0.356;entryDx=0;entryDy=0;entryPerimeter=0;" parent="1" source="RXPsqKweVLeDFt9XpWQ8-31" target="RXPsqKweVLeDFt9XpWQ8-21" edge="1">
          <mxGeometry relative="1" as="geometry">
            <mxPoint x="498.38" y="662.5" as="targetPoint" />
          </mxGeometry>
        </mxCell>
        <mxCell id="RXPsqKweVLeDFt9XpWQ8-31" value="&lt;b&gt;Авторизация пользователя&lt;/b&gt;" style="rounded=0;whiteSpace=wrap;html=1;" parent="1" vertex="1">
          <mxGeometry x="138.38" y="470" width="240" height="90" as="geometry" />
        </mxCell>
        <mxCell id="RXPsqKweVLeDFt9XpWQ8-37" value="" style="endArrow=classic;html=1;rounded=0;entryX=0.044;entryY=-0.006;entryDx=0;entryDy=0;entryPerimeter=0;" parent="1" edge="1">
          <mxGeometry width="50" height="50" relative="1" as="geometry">
            <mxPoint x="188.38" y="400" as="sourcePoint" />
            <mxPoint x="188.93999999999994" y="469.46000000000004" as="targetPoint" />
          </mxGeometry>
        </mxCell>
        <mxCell id="RXPsqKweVLeDFt9XpWQ8-39" value="Стандарты безопасности" style="text;html=1;align=center;verticalAlign=middle;whiteSpace=wrap;rounded=0;" parent="1" vertex="1">
          <mxGeometry x="1198.13" y="442.5" width="76" height="50" as="geometry" />
        </mxCell>
        <mxCell id="RXPsqKweVLeDFt9XpWQ8-41" value="" style="endArrow=classic;html=1;rounded=0;entryX=0;entryY=0.5;entryDx=0;entryDy=0;" parent="1" edge="1">
          <mxGeometry width="50" height="50" relative="1" as="geometry">
            <mxPoint x="28.380000000000003" y="514.86" as="sourcePoint" />
            <mxPoint x="138.38" y="514.86" as="targetPoint" />
          </mxGeometry>
        </mxCell>
        <mxCell id="RXPsqKweVLeDFt9XpWQ8-42" value="Токен пользователя" style="text;html=1;align=center;verticalAlign=middle;whiteSpace=wrap;rounded=0;" parent="1" vertex="1">
          <mxGeometry x="8.380000000000003" y="490" width="130" height="20" as="geometry" />
        </mxCell>
        <mxCell id="RXPsqKweVLeDFt9XpWQ8-43" value="" style="endArrow=classic;html=1;rounded=0;entryX=0.111;entryY=1.009;entryDx=0;entryDy=0;entryPerimeter=0;" parent="1" edge="1">
          <mxGeometry width="50" height="50" relative="1" as="geometry">
            <mxPoint x="145.38" y="640" as="sourcePoint" />
            <mxPoint x="145.38" y="561" as="targetPoint" />
          </mxGeometry>
        </mxCell>
        <mxCell id="RXPsqKweVLeDFt9XpWQ8-44" value="" style="endArrow=classic;html=1;rounded=0;entryX=0.111;entryY=1.009;entryDx=0;entryDy=0;entryPerimeter=0;" parent="1" edge="1">
          <mxGeometry width="50" height="50" relative="1" as="geometry">
            <mxPoint x="228.38" y="639" as="sourcePoint" />
            <mxPoint x="228.38" y="560" as="targetPoint" />
          </mxGeometry>
        </mxCell>
        <mxCell id="RXPsqKweVLeDFt9XpWQ8-45" value="" style="endArrow=classic;html=1;rounded=0;entryX=0.111;entryY=1.009;entryDx=0;entryDy=0;entryPerimeter=0;" parent="1" edge="1">
          <mxGeometry width="50" height="50" relative="1" as="geometry">
            <mxPoint x="318.38" y="639" as="sourcePoint" />
            <mxPoint x="318.38" y="560" as="targetPoint" />
          </mxGeometry>
        </mxCell>
        <mxCell id="RXPsqKweVLeDFt9XpWQ8-46" value="Веб-приложение" style="text;html=1;align=center;verticalAlign=middle;whiteSpace=wrap;rounded=0;" parent="1" vertex="1">
          <mxGeometry x="148.38" y="560" width="70" height="50" as="geometry" />
        </mxCell>
        <mxCell id="RXPsqKweVLeDFt9XpWQ8-47" value="Пользователь" style="text;html=1;align=center;verticalAlign=middle;whiteSpace=wrap;rounded=0;" parent="1" vertex="1">
          <mxGeometry x="228.38" y="573.75" width="80" height="22.5" as="geometry" />
        </mxCell>
        <mxCell id="RXPsqKweVLeDFt9XpWQ8-48" value="База данных" style="text;html=1;align=center;verticalAlign=middle;whiteSpace=wrap;rounded=0;" parent="1" vertex="1">
          <mxGeometry x="318.38" y="573.75" width="80" height="20" as="geometry" />
        </mxCell>
        <mxCell id="RXPsqKweVLeDFt9XpWQ8-50" value="Доступ к сервису" style="text;html=1;align=center;verticalAlign=middle;whiteSpace=wrap;rounded=0;" parent="1" vertex="1">
          <mxGeometry x="378.38" y="470" width="99" height="20" as="geometry" />
        </mxCell>
        <mxCell id="RXPsqKweVLeDFt9XpWQ8-51" value="А1" style="text;html=1;align=center;verticalAlign=middle;whiteSpace=wrap;rounded=0;" parent="1" vertex="1">
          <mxGeometry x="707.38" y="702.5" width="60" height="30" as="geometry" />
        </mxCell>
        <mxCell id="RXPsqKweVLeDFt9XpWQ8-52" value="А0" style="text;html=1;align=center;verticalAlign=middle;whiteSpace=wrap;rounded=0;" parent="1" vertex="1">
          <mxGeometry x="338.38" y="540" width="60" height="30" as="geometry" />
        </mxCell>
        <mxCell id="RXPsqKweVLeDFt9XpWQ8-53" value="&lt;b&gt;Оплата и подтверждение товара&lt;/b&gt;" style="rounded=0;whiteSpace=wrap;html=1;" parent="1" vertex="1">
          <mxGeometry x="1297.38" y="982.5" width="240" height="90" as="geometry" />
        </mxCell>
        <mxCell id="RXPsqKweVLeDFt9XpWQ8-54" value="" style="endArrow=classic;html=1;rounded=0;entryX=0.211;entryY=-0.01;entryDx=0;entryDy=0;entryPerimeter=0;" parent="1" edge="1">
          <mxGeometry width="50" height="50" relative="1" as="geometry">
            <mxPoint x="1418.38" y="912.5" as="sourcePoint" />
            <mxPoint x="1419.0200000000004" y="981.6000000000001" as="targetPoint" />
          </mxGeometry>
        </mxCell>
        <mxCell id="RXPsqKweVLeDFt9XpWQ8-56" value="" style="endArrow=classic;html=1;rounded=0;entryX=0.111;entryY=1.009;entryDx=0;entryDy=0;entryPerimeter=0;" parent="1" edge="1">
          <mxGeometry width="50" height="50" relative="1" as="geometry">
            <mxPoint x="1308.7400000000002" y="1152.5" as="sourcePoint" />
            <mxPoint x="1308.38" y="1073.31" as="targetPoint" />
          </mxGeometry>
        </mxCell>
        <mxCell id="RXPsqKweVLeDFt9XpWQ8-57" value="" style="endArrow=classic;html=1;rounded=0;entryX=0.111;entryY=1.009;entryDx=0;entryDy=0;entryPerimeter=0;" parent="1" edge="1">
          <mxGeometry width="50" height="50" relative="1" as="geometry">
            <mxPoint x="1458.38" y="1151.5" as="sourcePoint" />
            <mxPoint x="1458.38" y="1072.5" as="targetPoint" />
          </mxGeometry>
        </mxCell>
        <mxCell id="RXPsqKweVLeDFt9XpWQ8-58" value="" style="endArrow=classic;html=1;rounded=0;entryX=0.111;entryY=1.009;entryDx=0;entryDy=0;entryPerimeter=0;" parent="1" edge="1">
          <mxGeometry width="50" height="50" relative="1" as="geometry">
            <mxPoint x="1538.38" y="1151.5" as="sourcePoint" />
            <mxPoint x="1538.38" y="1072.5" as="targetPoint" />
          </mxGeometry>
        </mxCell>
        <mxCell id="RXPsqKweVLeDFt9XpWQ8-59" value="" style="endArrow=classic;html=1;rounded=0;entryX=0;entryY=0.25;entryDx=0;entryDy=0;" parent="1" edge="1">
          <mxGeometry width="50" height="50" relative="1" as="geometry">
            <mxPoint x="1537.38" y="1015.5" as="sourcePoint" />
            <mxPoint x="1647.38" y="1015.5" as="targetPoint" />
          </mxGeometry>
        </mxCell>
        <mxCell id="RXPsqKweVLeDFt9XpWQ8-60" value="" style="endArrow=classic;html=1;rounded=0;entryX=0;entryY=0.25;entryDx=0;entryDy=0;" parent="1" edge="1">
          <mxGeometry width="50" height="50" relative="1" as="geometry">
            <mxPoint x="1537.38" y="1052.5" as="sourcePoint" />
            <mxPoint x="1647.38" y="1052.5" as="targetPoint" />
          </mxGeometry>
        </mxCell>
        <mxCell id="RXPsqKweVLeDFt9XpWQ8-61" value="Стандарты безопасности" style="text;html=1;align=center;verticalAlign=middle;whiteSpace=wrap;rounded=0;" parent="1" vertex="1">
          <mxGeometry x="1428.38" y="922.5" width="76" height="50" as="geometry" />
        </mxCell>
        <mxCell id="RXPsqKweVLeDFt9XpWQ8-63" value="Платёжные системы" style="text;html=1;align=center;verticalAlign=middle;whiteSpace=wrap;rounded=0;" parent="1" vertex="1">
          <mxGeometry x="1309.88" y="1072.5" width="70" height="50" as="geometry" />
        </mxCell>
        <mxCell id="RXPsqKweVLeDFt9XpWQ8-64" value="Пользователь" style="text;html=1;align=center;verticalAlign=middle;whiteSpace=wrap;rounded=0;" parent="1" vertex="1">
          <mxGeometry x="1458.38" y="1077.5" width="80" height="40" as="geometry" />
        </mxCell>
        <mxCell id="RXPsqKweVLeDFt9XpWQ8-65" value="База данных" style="text;html=1;align=center;verticalAlign=middle;whiteSpace=wrap;rounded=0;" parent="1" vertex="1">
          <mxGeometry x="1538.38" y="1072.5" width="80" height="50" as="geometry" />
        </mxCell>
        <mxCell id="RXPsqKweVLeDFt9XpWQ8-66" value="Подтверждение оплаты" style="text;html=1;align=center;verticalAlign=middle;whiteSpace=wrap;rounded=0;" parent="1" vertex="1">
          <mxGeometry x="1541.88" y="982.5" width="101" height="30" as="geometry" />
        </mxCell>
        <mxCell id="RXPsqKweVLeDFt9XpWQ8-67" value="Заказанный товар" style="text;html=1;align=center;verticalAlign=middle;whiteSpace=wrap;rounded=0;" parent="1" vertex="1">
          <mxGeometry x="1537.38" y="1032.5" width="110" height="20" as="geometry" />
        </mxCell>
        <mxCell id="RXPsqKweVLeDFt9XpWQ8-68" value="А3" style="text;html=1;align=center;verticalAlign=middle;whiteSpace=wrap;rounded=0;" parent="1" vertex="1">
          <mxGeometry x="1497.38" y="1052.5" width="60" height="30" as="geometry" />
        </mxCell>
        <mxCell id="RXPsqKweVLeDFt9XpWQ8-69" style="edgeStyle=orthogonalEdgeStyle;rounded=0;orthogonalLoop=1;jettySize=auto;html=1;exitX=1;exitY=0.25;exitDx=0;exitDy=0;entryX=0;entryY=0.296;entryDx=0;entryDy=0;entryPerimeter=0;" parent="1" source="RXPsqKweVLeDFt9XpWQ8-1" target="RXPsqKweVLeDFt9XpWQ8-53" edge="1">
          <mxGeometry relative="1" as="geometry">
            <Array as="points">
              <mxPoint x="1267.38" y="825.5" />
              <mxPoint x="1267.38" y="1009.5" />
            </Array>
          </mxGeometry>
        </mxCell>
        <mxCell id="RXPsqKweVLeDFt9XpWQ8-70" value="Данные заказа" style="text;html=1;align=center;verticalAlign=middle;whiteSpace=wrap;rounded=0;" parent="1" vertex="1">
          <mxGeometry x="1122.38" y="797.5" width="100" height="30" as="geometry" />
        </mxCell>
        <mxCell id="RXPsqKweVLeDFt9XpWQ8-73" value="" style="endArrow=classic;html=1;rounded=0;entryX=0;entryY=0.5;entryDx=0;entryDy=0;" parent="1" edge="1">
          <mxGeometry width="50" height="50" relative="1" as="geometry">
            <mxPoint x="1157.38" y="1062.5" as="sourcePoint" />
            <mxPoint x="1297.38" y="1062.5" as="targetPoint" />
          </mxGeometry>
        </mxCell>
        <mxCell id="RXPsqKweVLeDFt9XpWQ8-74" value="Введённые данные" style="text;html=1;align=center;verticalAlign=middle;whiteSpace=wrap;rounded=0;" parent="1" vertex="1">
          <mxGeometry x="1168.38" y="1042.5" width="118" height="20" as="geometry" />
        </mxCell>
        <mxCell id="RXPsqKweVLeDFt9XpWQ8-76" value="Выбранный товар" style="text;html=1;align=center;verticalAlign=middle;whiteSpace=wrap;rounded=0;" parent="1" vertex="1">
          <mxGeometry x="747.38" y="642.5" width="110" height="20" as="geometry" />
        </mxCell>
        <mxCell id="3_9JlQmrrHS8joUB09uU-2" value="" style="endArrow=classic;html=1;rounded=0;entryX=0.111;entryY=1.009;entryDx=0;entryDy=0;entryPerimeter=0;" parent="1" edge="1">
          <mxGeometry width="50" height="50" relative="1" as="geometry">
            <mxPoint x="588.38" y="802.5" as="sourcePoint" />
            <mxPoint x="588.38" y="723.5" as="targetPoint" />
          </mxGeometry>
        </mxCell>
        <mxCell id="3_9JlQmrrHS8joUB09uU-3" value="" style="endArrow=classic;html=1;rounded=0;entryX=0.111;entryY=1.009;entryDx=0;entryDy=0;entryPerimeter=0;" parent="1" edge="1">
          <mxGeometry width="50" height="50" relative="1" as="geometry">
            <mxPoint x="688.38" y="802.5" as="sourcePoint" />
            <mxPoint x="688.38" y="723.5" as="targetPoint" />
          </mxGeometry>
        </mxCell>
        <mxCell id="3_9JlQmrrHS8joUB09uU-4" value="Пользователь" style="text;html=1;align=center;verticalAlign=middle;whiteSpace=wrap;rounded=0;" parent="1" vertex="1">
          <mxGeometry x="598.38" y="737.25" width="80" height="22.5" as="geometry" />
        </mxCell>
        <mxCell id="3_9JlQmrrHS8joUB09uU-5" value="База данных" style="text;html=1;align=center;verticalAlign=middle;whiteSpace=wrap;rounded=0;" parent="1" vertex="1">
          <mxGeometry x="688.38" y="737.25" width="80" height="20" as="geometry" />
        </mxCell>
        <mxCell id="3_9JlQmrrHS8joUB09uU-6" value="&lt;b&gt;Заказ товара&lt;/b&gt;" style="rounded=0;whiteSpace=wrap;html=1;" parent="1" vertex="1">
          <mxGeometry x="1181.38" y="502.5" width="331" height="90" as="geometry" />
        </mxCell>
        <mxCell id="3_9JlQmrrHS8joUB09uU-7" value="" style="endArrow=classic;html=1;rounded=0;entryX=0.111;entryY=1.009;entryDx=0;entryDy=0;entryPerimeter=0;" parent="1" edge="1">
          <mxGeometry width="50" height="50" relative="1" as="geometry">
            <mxPoint x="1221.63" y="662.5" as="sourcePoint" />
            <mxPoint x="1222.38" y="592.5" as="targetPoint" />
          </mxGeometry>
        </mxCell>
        <mxCell id="3_9JlQmrrHS8joUB09uU-8" value="" style="endArrow=classic;html=1;rounded=0;entryX=0.111;entryY=1.009;entryDx=0;entryDy=0;entryPerimeter=0;" parent="1" edge="1">
          <mxGeometry width="50" height="50" relative="1" as="geometry">
            <mxPoint x="1312.63" y="662.5" as="sourcePoint" />
            <mxPoint x="1312.38" y="592.5" as="targetPoint" />
          </mxGeometry>
        </mxCell>
        <mxCell id="3_9JlQmrrHS8joUB09uU-9" value="Пользователь" style="text;html=1;align=center;verticalAlign=middle;whiteSpace=wrap;rounded=0;" parent="1" vertex="1">
          <mxGeometry x="1221.38" y="605" width="90" height="22.5" as="geometry" />
        </mxCell>
        <mxCell id="3_9JlQmrrHS8joUB09uU-10" value="База данных" style="text;html=1;align=center;verticalAlign=middle;whiteSpace=wrap;rounded=0;" parent="1" vertex="1">
          <mxGeometry x="1316.38" y="598.13" width="50" height="36.25" as="geometry" />
        </mxCell>
        <mxCell id="3_9JlQmrrHS8joUB09uU-11" value="" style="endArrow=classic;html=1;rounded=0;entryX=0.111;entryY=1.009;entryDx=0;entryDy=0;entryPerimeter=0;" parent="1" edge="1">
          <mxGeometry width="50" height="50" relative="1" as="geometry">
            <mxPoint x="1371.63" y="662.5" as="sourcePoint" />
            <mxPoint x="1372.38" y="593.5" as="targetPoint" />
          </mxGeometry>
        </mxCell>
        <mxCell id="3_9JlQmrrHS8joUB09uU-12" value="Веб-приложение" style="text;html=1;align=center;verticalAlign=middle;whiteSpace=wrap;rounded=0;" parent="1" vertex="1">
          <mxGeometry x="1376.38" y="591.25" width="60" height="50" as="geometry" />
        </mxCell>
        <mxCell id="3_9JlQmrrHS8joUB09uU-14" value="" style="endArrow=classic;html=1;rounded=0;entryX=0.111;entryY=1.009;entryDx=0;entryDy=0;entryPerimeter=0;" parent="1" edge="1">
          <mxGeometry width="50" height="50" relative="1" as="geometry">
            <mxPoint x="1442.63" y="662.5" as="sourcePoint" />
            <mxPoint x="1442.38" y="593.31" as="targetPoint" />
          </mxGeometry>
        </mxCell>
        <mxCell id="3_9JlQmrrHS8joUB09uU-15" value="Платёжные системы" style="text;html=1;align=center;verticalAlign=middle;whiteSpace=wrap;rounded=0;" parent="1" vertex="1">
          <mxGeometry x="1442.38" y="591.25" width="70" height="50" as="geometry" />
        </mxCell>
        <mxCell id="3_9JlQmrrHS8joUB09uU-18" value="" style="endArrow=classic;html=1;rounded=0;entryX=0;entryY=0.5;entryDx=0;entryDy=0;" parent="1" edge="1">
          <mxGeometry width="50" height="50" relative="1" as="geometry">
            <mxPoint x="1071.38" y="532.5" as="sourcePoint" />
            <mxPoint x="1181.38" y="532.5" as="targetPoint" />
          </mxGeometry>
        </mxCell>
        <mxCell id="3_9JlQmrrHS8joUB09uU-20" value="Токен пользователя" style="text;html=1;align=center;verticalAlign=middle;whiteSpace=wrap;rounded=0;" parent="1" vertex="1">
          <mxGeometry x="1054.88" y="512.5" width="123.25" height="15.54" as="geometry" />
        </mxCell>
        <mxCell id="3_9JlQmrrHS8joUB09uU-25" value="" style="endArrow=classic;html=1;rounded=0;entryX=0.044;entryY=-0.006;entryDx=0;entryDy=0;entryPerimeter=0;" parent="1" edge="1">
          <mxGeometry width="50" height="50" relative="1" as="geometry">
            <mxPoint x="1191.63" y="442.5" as="sourcePoint" />
            <mxPoint x="1191.94" y="501.96000000000004" as="targetPoint" />
          </mxGeometry>
        </mxCell>
        <mxCell id="3_9JlQmrrHS8joUB09uU-26" value="Стандарты безопасности" style="text;html=1;align=center;verticalAlign=middle;whiteSpace=wrap;rounded=0;" parent="1" vertex="1">
          <mxGeometry x="198.38" y="410" width="76" height="50" as="geometry" />
        </mxCell>
        <mxCell id="3_9JlQmrrHS8joUB09uU-29" value="" style="endArrow=classic;html=1;rounded=0;entryX=0.172;entryY=-0.024;entryDx=0;entryDy=0;entryPerimeter=0;" parent="1" edge="1">
          <mxGeometry width="50" height="50" relative="1" as="geometry">
            <mxPoint x="1281.63" y="444.5" as="sourcePoint" />
            <mxPoint x="1281.63" y="502.5" as="targetPoint" />
          </mxGeometry>
        </mxCell>
        <mxCell id="3_9JlQmrrHS8joUB09uU-30" value="Наличие на складе" style="text;html=1;align=center;verticalAlign=middle;whiteSpace=wrap;rounded=0;" parent="1" vertex="1">
          <mxGeometry x="1280.63" y="452.5" width="70.25" height="30" as="geometry" />
        </mxCell>
        <mxCell id="3_9JlQmrrHS8joUB09uU-32" value="" style="endArrow=classic;html=1;rounded=0;entryX=0;entryY=0.25;entryDx=0;entryDy=0;" parent="1" edge="1">
          <mxGeometry width="50" height="50" relative="1" as="geometry">
            <mxPoint x="1513.38" y="532.5" as="sourcePoint" />
            <mxPoint x="1623.38" y="532.5" as="targetPoint" />
          </mxGeometry>
        </mxCell>
        <mxCell id="3_9JlQmrrHS8joUB09uU-34" value="Заказанный товар" style="text;html=1;align=center;verticalAlign=middle;whiteSpace=wrap;rounded=0;" parent="1" vertex="1">
          <mxGeometry x="1512.38" y="512.5" width="110" height="20" as="geometry" />
        </mxCell>
        <mxCell id="3_9JlQmrrHS8joUB09uU-35" value="" style="endArrow=classic;html=1;rounded=0;entryX=0.172;entryY=-0.024;entryDx=0;entryDy=0;entryPerimeter=0;" parent="1" edge="1">
          <mxGeometry width="50" height="50" relative="1" as="geometry">
            <mxPoint x="988.38" y="744.5" as="sourcePoint" />
            <mxPoint x="988.38" y="802.5" as="targetPoint" />
          </mxGeometry>
        </mxCell>
        <mxCell id="3_9JlQmrrHS8joUB09uU-36" value="Наличие на складе" style="text;html=1;align=center;verticalAlign=middle;whiteSpace=wrap;rounded=0;" parent="1" vertex="1">
          <mxGeometry x="997.38" y="754.5" width="90" height="30" as="geometry" />
        </mxCell>
        <mxCell id="LAER0rZpz9H9XLRSzpq3-3" value="" style="endArrow=classic;html=1;rounded=0;entryX=0.111;entryY=1.009;entryDx=0;entryDy=0;entryPerimeter=0;" parent="1" edge="1">
          <mxGeometry width="50" height="50" relative="1" as="geometry">
            <mxPoint x="507.38" y="802.5" as="sourcePoint" />
            <mxPoint x="507.38" y="723.5" as="targetPoint" />
          </mxGeometry>
        </mxCell>
        <mxCell id="LAER0rZpz9H9XLRSzpq3-4" value="Веб-приложение" style="text;html=1;align=center;verticalAlign=middle;whiteSpace=wrap;rounded=0;" parent="1" vertex="1">
          <mxGeometry x="508.38" y="722.5" width="70" height="50" as="geometry" />
        </mxCell>
        <mxCell id="LAER0rZpz9H9XLRSzpq3-5" value="" style="endArrow=classic;html=1;rounded=0;entryX=0.111;entryY=1.009;entryDx=0;entryDy=0;entryPerimeter=0;" parent="1" edge="1">
          <mxGeometry width="50" height="50" relative="1" as="geometry">
            <mxPoint x="888.63" y="972.5" as="sourcePoint" />
            <mxPoint x="888.63" y="893.5" as="targetPoint" />
          </mxGeometry>
        </mxCell>
        <mxCell id="LAER0rZpz9H9XLRSzpq3-6" value="Веб-приложение" style="text;html=1;align=center;verticalAlign=middle;whiteSpace=wrap;rounded=0;" parent="1" vertex="1">
          <mxGeometry x="888.38" y="892.5" width="70" height="50" as="geometry" />
        </mxCell>
        <mxCell id="LAER0rZpz9H9XLRSzpq3-7" value="" style="endArrow=classic;html=1;rounded=0;entryX=0.111;entryY=1.009;entryDx=0;entryDy=0;entryPerimeter=0;" parent="1" edge="1">
          <mxGeometry width="50" height="50" relative="1" as="geometry">
            <mxPoint x="1379.88" y="1152.5" as="sourcePoint" />
            <mxPoint x="1379.88" y="1073.5" as="targetPoint" />
          </mxGeometry>
        </mxCell>
        <mxCell id="LAER0rZpz9H9XLRSzpq3-8" value="Веб-приложение" style="text;html=1;align=center;verticalAlign=middle;whiteSpace=wrap;rounded=0;" parent="1" vertex="1">
          <mxGeometry x="1382.38" y="1072.5" width="70" height="50" as="geometry" />
        </mxCell>
        <mxCell id="LAER0rZpz9H9XLRSzpq3-10" value="А0" style="text;html=1;align=center;verticalAlign=middle;whiteSpace=wrap;rounded=0;" parent="1" vertex="1">
          <mxGeometry x="1471.63" y="568.13" width="60" height="30" as="geometry" />
        </mxCell>
        <mxCell id="LAER0rZpz9H9XLRSzpq3-11" value="" style="endArrow=classic;html=1;rounded=0;entryX=0.5;entryY=0;entryDx=0;entryDy=0;" parent="1" target="RXPsqKweVLeDFt9XpWQ8-21" edge="1">
          <mxGeometry width="50" height="50" relative="1" as="geometry">
            <mxPoint x="627.38" y="562.5" as="sourcePoint" />
            <mxPoint x="828.38" y="672.5" as="targetPoint" />
          </mxGeometry>
        </mxCell>
        <mxCell id="LAER0rZpz9H9XLRSzpq3-12" value="Интеграционное соглашение" style="text;html=1;align=center;verticalAlign=middle;whiteSpace=wrap;rounded=0;" parent="1" vertex="1">
          <mxGeometry x="638.38" y="570" width="90" height="45" as="geometry" />
        </mxCell>
        <mxCell id="LAER0rZpz9H9XLRSzpq3-13" value="" style="endArrow=classic;html=1;rounded=0;entryX=0.172;entryY=-0.024;entryDx=0;entryDy=0;entryPerimeter=0;" parent="1" edge="1">
          <mxGeometry width="50" height="50" relative="1" as="geometry">
            <mxPoint x="1351.63" y="444.5" as="sourcePoint" />
            <mxPoint x="1351.63" y="502.5" as="targetPoint" />
          </mxGeometry>
        </mxCell>
        <mxCell id="LAER0rZpz9H9XLRSzpq3-14" value="Интеграционное соглашение" style="text;html=1;align=center;verticalAlign=middle;whiteSpace=wrap;rounded=0;" parent="1" vertex="1">
          <mxGeometry x="1353.13" y="447.86" width="92" height="39.29" as="geometry" />
        </mxCell>
        <mxCell id="LAER0rZpz9H9XLRSzpq3-15" value="" style="endArrow=classic;html=1;rounded=0;entryX=0.044;entryY=-0.006;entryDx=0;entryDy=0;entryPerimeter=0;" parent="1" edge="1">
          <mxGeometry width="50" height="50" relative="1" as="geometry">
            <mxPoint x="288.38" y="400.53999999999996" as="sourcePoint" />
            <mxPoint x="288.93999999999994" y="470" as="targetPoint" />
          </mxGeometry>
        </mxCell>
        <mxCell id="LAER0rZpz9H9XLRSzpq3-16" value="Алгоритмы шифрования" style="text;html=1;align=center;verticalAlign=middle;whiteSpace=wrap;rounded=0;" parent="1" vertex="1">
          <mxGeometry x="298.38" y="410.53999999999996" width="76" height="50" as="geometry" />
        </mxCell>
        <mxCell id="LAER0rZpz9H9XLRSzpq3-18" value="" style="endArrow=classic;html=1;rounded=0;entryX=0.82;entryY=-0.003;entryDx=0;entryDy=0;entryPerimeter=0;" parent="1" target="3_9JlQmrrHS8joUB09uU-6" edge="1">
          <mxGeometry width="50" height="50" relative="1" as="geometry">
            <mxPoint x="1452.63" y="447.86" as="sourcePoint" />
            <mxPoint x="1452.63" y="505.86" as="targetPoint" />
          </mxGeometry>
        </mxCell>
        <mxCell id="LAER0rZpz9H9XLRSzpq3-19" value="Алгоритмы шифрования" style="text;html=1;align=center;verticalAlign=middle;whiteSpace=wrap;rounded=0;" parent="1" vertex="1">
          <mxGeometry x="1452.63" y="451.86" width="77.5" height="31.28" as="geometry" />
        </mxCell>
        <mxCell id="LAER0rZpz9H9XLRSzpq3-22" value="" style="endArrow=classic;html=1;rounded=0;entryX=0;entryY=0.5;entryDx=0;entryDy=0;" parent="1" edge="1">
          <mxGeometry width="50" height="50" relative="1" as="geometry">
            <mxPoint x="797.38" y="871.67" as="sourcePoint" />
            <mxPoint x="877.38" y="871.67" as="targetPoint" />
          </mxGeometry>
        </mxCell>
        <mxCell id="LAER0rZpz9H9XLRSzpq3-23" value="Введённые данные" style="text;html=1;align=center;verticalAlign=middle;whiteSpace=wrap;rounded=0;" parent="1" vertex="1">
          <mxGeometry x="788.38" y="841.67" width="80" height="30" as="geometry" />
        </mxCell>
        <mxCell id="HrK3oJVAC7HXbo-TkEIK-1" value="" style="endArrow=classic;html=1;rounded=0;entryX=0;entryY=0.5;entryDx=0;entryDy=0;" parent="1" edge="1">
          <mxGeometry width="50" height="50" relative="1" as="geometry">
            <mxPoint x="1071.38" y="568.13" as="sourcePoint" />
            <mxPoint x="1181.38" y="568.13" as="targetPoint" />
          </mxGeometry>
        </mxCell>
        <mxCell id="HrK3oJVAC7HXbo-TkEIK-2" value="Введённые данные" style="text;html=1;align=center;verticalAlign=middle;whiteSpace=wrap;rounded=0;" parent="1" vertex="1">
          <mxGeometry x="1054.88" y="548.13" width="123.25" height="15.54" as="geometry" />
        </mxCell>
        <mxCell id="HrK3oJVAC7HXbo-TkEIK-3" value="" style="endArrow=classic;html=1;rounded=0;entryX=0;entryY=0.25;entryDx=0;entryDy=0;" parent="1" edge="1">
          <mxGeometry width="50" height="50" relative="1" as="geometry">
            <mxPoint x="1514.13" y="563.6700000000001" as="sourcePoint" />
            <mxPoint x="1624.13" y="563.6700000000001" as="targetPoint" />
          </mxGeometry>
        </mxCell>
        <mxCell id="HrK3oJVAC7HXbo-TkEIK-4" value="Подтверждение оплаты" style="text;html=1;align=center;verticalAlign=middle;whiteSpace=wrap;rounded=0;" parent="1" vertex="1">
          <mxGeometry x="1513.13" y="543.67" width="138.5" height="20" as="geometry" />
        </mxCell>
        <mxCell id="JFCtVrj-zI766jc3Ud4v-124" style="edgeStyle=orthogonalEdgeStyle;rounded=0;orthogonalLoop=1;jettySize=auto;html=1;entryX=0;entryY=0.5;entryDx=0;entryDy=0;" parent="1" source="buGXm4uaibGnN2zzedQZ-1" target="tI2qVK5K96pvlCMNdgVa-82" edge="1">
          <mxGeometry relative="1" as="geometry">
            <mxPoint x="218.3800000000001" y="-980" as="targetPoint" />
          </mxGeometry>
        </mxCell>
        <mxCell id="buGXm4uaibGnN2zzedQZ-1" value="" style="rounded=0;whiteSpace=wrap;html=1;" parent="1" vertex="1">
          <mxGeometry x="30" y="-1010" width="120" height="60" as="geometry" />
        </mxCell>
        <mxCell id="buGXm4uaibGnN2zzedQZ-3" value="" style="endArrow=none;html=1;rounded=0;exitX=0;exitY=0.75;exitDx=0;exitDy=0;entryX=1;entryY=0.75;entryDx=0;entryDy=0;" parent="1" source="buGXm4uaibGnN2zzedQZ-1" target="buGXm4uaibGnN2zzedQZ-1" edge="1">
          <mxGeometry width="50" height="50" relative="1" as="geometry">
            <mxPoint x="130" y="-940" as="sourcePoint" />
            <mxPoint x="180" y="-990" as="targetPoint" />
          </mxGeometry>
        </mxCell>
        <mxCell id="buGXm4uaibGnN2zzedQZ-4" value="" style="endArrow=none;html=1;rounded=0;" parent="1" edge="1">
          <mxGeometry width="50" height="50" relative="1" as="geometry">
            <mxPoint x="87.88999999999999" y="-950" as="sourcePoint" />
            <mxPoint x="87.88999999999999" y="-965" as="targetPoint" />
          </mxGeometry>
        </mxCell>
        <mxCell id="buGXm4uaibGnN2zzedQZ-6" value="" style="endArrow=none;html=1;rounded=0;entryX=0.142;entryY=0.004;entryDx=0;entryDy=0;entryPerimeter=0;exitX=0;exitY=0.25;exitDx=0;exitDy=0;" parent="1" source="buGXm4uaibGnN2zzedQZ-1" target="buGXm4uaibGnN2zzedQZ-1" edge="1">
          <mxGeometry width="50" height="50" relative="1" as="geometry">
            <mxPoint x="70" y="-950" as="sourcePoint" />
            <mxPoint x="120" y="-1000" as="targetPoint" />
          </mxGeometry>
        </mxCell>
        <mxCell id="buGXm4uaibGnN2zzedQZ-7" value="Ввод данных пользователя" style="text;html=1;align=center;verticalAlign=middle;whiteSpace=wrap;rounded=0;" parent="1" vertex="1">
          <mxGeometry x="40" y="-1000" width="100" height="30" as="geometry" />
        </mxCell>
        <mxCell id="buGXm4uaibGnN2zzedQZ-13" style="edgeStyle=orthogonalEdgeStyle;rounded=0;orthogonalLoop=1;jettySize=auto;html=1;entryX=0;entryY=0.5;entryDx=0;entryDy=0;exitX=0.5;exitY=0;exitDx=0;exitDy=0;" parent="1" source="buGXm4uaibGnN2zzedQZ-9" target="buGXm4uaibGnN2zzedQZ-25" edge="1">
          <mxGeometry relative="1" as="geometry">
            <mxPoint x="918.7399999999998" y="-1070" as="targetPoint" />
          </mxGeometry>
        </mxCell>
        <mxCell id="buGXm4uaibGnN2zzedQZ-30" style="edgeStyle=orthogonalEdgeStyle;rounded=0;orthogonalLoop=1;jettySize=auto;html=1;entryX=0;entryY=0.5;entryDx=0;entryDy=0;" parent="1" source="buGXm4uaibGnN2zzedQZ-9" target="buGXm4uaibGnN2zzedQZ-20" edge="1">
          <mxGeometry relative="1" as="geometry" />
        </mxCell>
        <mxCell id="buGXm4uaibGnN2zzedQZ-9" value="" style="rounded=0;whiteSpace=wrap;html=1;" parent="1" vertex="1">
          <mxGeometry x="893.24" y="-997.5" width="51" height="35" as="geometry" />
        </mxCell>
        <mxCell id="buGXm4uaibGnN2zzedQZ-10" value="" style="endArrow=none;html=1;rounded=0;entryX=0.25;entryY=0;entryDx=0;entryDy=0;exitX=0.25;exitY=1;exitDx=0;exitDy=0;" parent="1" source="buGXm4uaibGnN2zzedQZ-9" target="buGXm4uaibGnN2zzedQZ-9" edge="1">
          <mxGeometry width="50" height="50" relative="1" as="geometry">
            <mxPoint x="853.24" y="-937.5" as="sourcePoint" />
            <mxPoint x="903.24" y="-987.5" as="targetPoint" />
          </mxGeometry>
        </mxCell>
        <mxCell id="buGXm4uaibGnN2zzedQZ-14" style="edgeStyle=orthogonalEdgeStyle;rounded=0;orthogonalLoop=1;jettySize=auto;html=1;exitX=0.5;exitY=1;exitDx=0;exitDy=0;entryX=0;entryY=0.5;entryDx=0;entryDy=0;" parent="1" source="buGXm4uaibGnN2zzedQZ-9" target="buGXm4uaibGnN2zzedQZ-15" edge="1">
          <mxGeometry relative="1" as="geometry">
            <mxPoint x="918.24" y="-890" as="targetPoint" />
            <mxPoint x="918.24" y="-930" as="sourcePoint" />
          </mxGeometry>
        </mxCell>
        <mxCell id="tI2qVK5K96pvlCMNdgVa-17" style="edgeStyle=orthogonalEdgeStyle;rounded=0;orthogonalLoop=1;jettySize=auto;html=1;entryX=0.5;entryY=1;entryDx=0;entryDy=0;" parent="1" source="buGXm4uaibGnN2zzedQZ-15" target="buGXm4uaibGnN2zzedQZ-40" edge="1">
          <mxGeometry relative="1" as="geometry" />
        </mxCell>
        <mxCell id="buGXm4uaibGnN2zzedQZ-15" value="" style="rounded=0;whiteSpace=wrap;html=1;" parent="1" vertex="1">
          <mxGeometry x="974.24" y="-925.35" width="120" height="60" as="geometry" />
        </mxCell>
        <mxCell id="buGXm4uaibGnN2zzedQZ-16" value="" style="endArrow=none;html=1;rounded=0;exitX=0;exitY=0.75;exitDx=0;exitDy=0;entryX=1;entryY=0.75;entryDx=0;entryDy=0;" parent="1" source="buGXm4uaibGnN2zzedQZ-15" target="buGXm4uaibGnN2zzedQZ-15" edge="1">
          <mxGeometry width="50" height="50" relative="1" as="geometry">
            <mxPoint x="1074.24" y="-855.35" as="sourcePoint" />
            <mxPoint x="1124.24" y="-905.35" as="targetPoint" />
          </mxGeometry>
        </mxCell>
        <mxCell id="buGXm4uaibGnN2zzedQZ-17" value="" style="endArrow=none;html=1;rounded=0;" parent="1" edge="1">
          <mxGeometry width="50" height="50" relative="1" as="geometry">
            <mxPoint x="1032.13" y="-865.35" as="sourcePoint" />
            <mxPoint x="1032.13" y="-880.35" as="targetPoint" />
          </mxGeometry>
        </mxCell>
        <mxCell id="buGXm4uaibGnN2zzedQZ-18" value="" style="endArrow=none;html=1;rounded=0;entryX=0.142;entryY=0.004;entryDx=0;entryDy=0;entryPerimeter=0;exitX=0;exitY=0.25;exitDx=0;exitDy=0;" parent="1" source="buGXm4uaibGnN2zzedQZ-15" target="buGXm4uaibGnN2zzedQZ-15" edge="1">
          <mxGeometry width="50" height="50" relative="1" as="geometry">
            <mxPoint x="1014.24" y="-865.35" as="sourcePoint" />
            <mxPoint x="1064.24" y="-915.35" as="targetPoint" />
          </mxGeometry>
        </mxCell>
        <mxCell id="buGXm4uaibGnN2zzedQZ-19" value="Выбор роли поддержки" style="text;html=1;align=center;verticalAlign=middle;whiteSpace=wrap;rounded=0;" parent="1" vertex="1">
          <mxGeometry x="994.24" y="-915.35" width="80" height="30" as="geometry" />
        </mxCell>
        <mxCell id="buGXm4uaibGnN2zzedQZ-44" style="edgeStyle=orthogonalEdgeStyle;rounded=0;orthogonalLoop=1;jettySize=auto;html=1;entryX=0;entryY=0.5;entryDx=0;entryDy=0;" parent="1" source="buGXm4uaibGnN2zzedQZ-20" target="buGXm4uaibGnN2zzedQZ-40" edge="1">
          <mxGeometry relative="1" as="geometry" />
        </mxCell>
        <mxCell id="buGXm4uaibGnN2zzedQZ-20" value="" style="rounded=0;whiteSpace=wrap;html=1;" parent="1" vertex="1">
          <mxGeometry x="974.24" y="-1010" width="120" height="60" as="geometry" />
        </mxCell>
        <mxCell id="buGXm4uaibGnN2zzedQZ-21" value="" style="endArrow=none;html=1;rounded=0;exitX=0;exitY=0.75;exitDx=0;exitDy=0;entryX=1;entryY=0.75;entryDx=0;entryDy=0;" parent="1" source="buGXm4uaibGnN2zzedQZ-20" target="buGXm4uaibGnN2zzedQZ-20" edge="1">
          <mxGeometry width="50" height="50" relative="1" as="geometry">
            <mxPoint x="1074.24" y="-940" as="sourcePoint" />
            <mxPoint x="1124.24" y="-990" as="targetPoint" />
          </mxGeometry>
        </mxCell>
        <mxCell id="buGXm4uaibGnN2zzedQZ-22" value="" style="endArrow=none;html=1;rounded=0;" parent="1" edge="1">
          <mxGeometry width="50" height="50" relative="1" as="geometry">
            <mxPoint x="1032.13" y="-950" as="sourcePoint" />
            <mxPoint x="1032.13" y="-965" as="targetPoint" />
          </mxGeometry>
        </mxCell>
        <mxCell id="buGXm4uaibGnN2zzedQZ-23" value="" style="endArrow=none;html=1;rounded=0;entryX=0.142;entryY=0.004;entryDx=0;entryDy=0;entryPerimeter=0;exitX=0;exitY=0.25;exitDx=0;exitDy=0;" parent="1" source="buGXm4uaibGnN2zzedQZ-20" target="buGXm4uaibGnN2zzedQZ-20" edge="1">
          <mxGeometry width="50" height="50" relative="1" as="geometry">
            <mxPoint x="1014.24" y="-950" as="sourcePoint" />
            <mxPoint x="1064.24" y="-1000" as="targetPoint" />
          </mxGeometry>
        </mxCell>
        <mxCell id="buGXm4uaibGnN2zzedQZ-24" value="Выбор роли администратора" style="text;html=1;align=center;verticalAlign=middle;whiteSpace=wrap;rounded=0;" parent="1" vertex="1">
          <mxGeometry x="989.24" y="-1000" width="90" height="30" as="geometry" />
        </mxCell>
        <mxCell id="tI2qVK5K96pvlCMNdgVa-16" style="edgeStyle=orthogonalEdgeStyle;rounded=0;orthogonalLoop=1;jettySize=auto;html=1;entryX=0.5;entryY=0;entryDx=0;entryDy=0;" parent="1" source="buGXm4uaibGnN2zzedQZ-25" target="buGXm4uaibGnN2zzedQZ-40" edge="1">
          <mxGeometry relative="1" as="geometry" />
        </mxCell>
        <mxCell id="buGXm4uaibGnN2zzedQZ-25" value="" style="rounded=0;whiteSpace=wrap;html=1;" parent="1" vertex="1">
          <mxGeometry x="974.24" y="-1100" width="120" height="60" as="geometry" />
        </mxCell>
        <mxCell id="buGXm4uaibGnN2zzedQZ-26" value="" style="endArrow=none;html=1;rounded=0;exitX=0;exitY=0.75;exitDx=0;exitDy=0;entryX=1;entryY=0.75;entryDx=0;entryDy=0;" parent="1" source="buGXm4uaibGnN2zzedQZ-25" target="buGXm4uaibGnN2zzedQZ-25" edge="1">
          <mxGeometry width="50" height="50" relative="1" as="geometry">
            <mxPoint x="1074.24" y="-1030" as="sourcePoint" />
            <mxPoint x="1124.24" y="-1080" as="targetPoint" />
          </mxGeometry>
        </mxCell>
        <mxCell id="buGXm4uaibGnN2zzedQZ-27" value="" style="endArrow=none;html=1;rounded=0;" parent="1" edge="1">
          <mxGeometry width="50" height="50" relative="1" as="geometry">
            <mxPoint x="1032.13" y="-1040" as="sourcePoint" />
            <mxPoint x="1032.13" y="-1055" as="targetPoint" />
          </mxGeometry>
        </mxCell>
        <mxCell id="buGXm4uaibGnN2zzedQZ-28" value="" style="endArrow=none;html=1;rounded=0;entryX=0.142;entryY=0.004;entryDx=0;entryDy=0;entryPerimeter=0;exitX=0;exitY=0.25;exitDx=0;exitDy=0;" parent="1" source="buGXm4uaibGnN2zzedQZ-25" target="buGXm4uaibGnN2zzedQZ-25" edge="1">
          <mxGeometry width="50" height="50" relative="1" as="geometry">
            <mxPoint x="1014.24" y="-1040" as="sourcePoint" />
            <mxPoint x="1064.24" y="-1090" as="targetPoint" />
          </mxGeometry>
        </mxCell>
        <mxCell id="buGXm4uaibGnN2zzedQZ-29" value="Выбор роли пользователя" style="text;html=1;align=center;verticalAlign=middle;whiteSpace=wrap;rounded=0;" parent="1" vertex="1">
          <mxGeometry x="994.24" y="-1090" width="80" height="30" as="geometry" />
        </mxCell>
        <mxCell id="buGXm4uaibGnN2zzedQZ-50" style="edgeStyle=orthogonalEdgeStyle;rounded=0;orthogonalLoop=1;jettySize=auto;html=1;entryX=0;entryY=0.5;entryDx=0;entryDy=0;" parent="1" source="buGXm4uaibGnN2zzedQZ-40" target="buGXm4uaibGnN2zzedQZ-45" edge="1">
          <mxGeometry relative="1" as="geometry" />
        </mxCell>
        <mxCell id="buGXm4uaibGnN2zzedQZ-40" value="" style="rounded=0;whiteSpace=wrap;html=1;" parent="1" vertex="1">
          <mxGeometry x="1144.24" y="-997.5" width="51" height="35" as="geometry" />
        </mxCell>
        <mxCell id="buGXm4uaibGnN2zzedQZ-41" value="" style="endArrow=none;html=1;rounded=0;entryX=0.25;entryY=0;entryDx=0;entryDy=0;exitX=0.25;exitY=1;exitDx=0;exitDy=0;" parent="1" source="buGXm4uaibGnN2zzedQZ-40" target="buGXm4uaibGnN2zzedQZ-40" edge="1">
          <mxGeometry width="50" height="50" relative="1" as="geometry">
            <mxPoint x="1104.24" y="-937.5" as="sourcePoint" />
            <mxPoint x="1154.24" y="-987.5" as="targetPoint" />
          </mxGeometry>
        </mxCell>
        <mxCell id="buGXm4uaibGnN2zzedQZ-43" value="X" style="text;html=1;align=center;verticalAlign=middle;whiteSpace=wrap;rounded=0;" parent="1" vertex="1">
          <mxGeometry x="1169.24" y="-990" width="11" height="20" as="geometry" />
        </mxCell>
        <mxCell id="buGXm4uaibGnN2zzedQZ-45" value="" style="rounded=0;whiteSpace=wrap;html=1;" parent="1" vertex="1">
          <mxGeometry x="1233.24" y="-1010" width="120" height="60" as="geometry" />
        </mxCell>
        <mxCell id="buGXm4uaibGnN2zzedQZ-46" value="" style="endArrow=none;html=1;rounded=0;exitX=0;exitY=0.75;exitDx=0;exitDy=0;entryX=1;entryY=0.75;entryDx=0;entryDy=0;" parent="1" source="buGXm4uaibGnN2zzedQZ-45" target="buGXm4uaibGnN2zzedQZ-45" edge="1">
          <mxGeometry width="50" height="50" relative="1" as="geometry">
            <mxPoint x="1333.24" y="-940" as="sourcePoint" />
            <mxPoint x="1383.2399999999998" y="-990" as="targetPoint" />
          </mxGeometry>
        </mxCell>
        <mxCell id="buGXm4uaibGnN2zzedQZ-47" value="" style="endArrow=none;html=1;rounded=0;" parent="1" edge="1">
          <mxGeometry width="50" height="50" relative="1" as="geometry">
            <mxPoint x="1291.13" y="-950" as="sourcePoint" />
            <mxPoint x="1291.13" y="-965" as="targetPoint" />
          </mxGeometry>
        </mxCell>
        <mxCell id="buGXm4uaibGnN2zzedQZ-48" value="" style="endArrow=none;html=1;rounded=0;entryX=0.142;entryY=0.004;entryDx=0;entryDy=0;entryPerimeter=0;exitX=0;exitY=0.25;exitDx=0;exitDy=0;" parent="1" source="buGXm4uaibGnN2zzedQZ-45" target="buGXm4uaibGnN2zzedQZ-45" edge="1">
          <mxGeometry width="50" height="50" relative="1" as="geometry">
            <mxPoint x="1273.24" y="-950" as="sourcePoint" />
            <mxPoint x="1323.24" y="-1000" as="targetPoint" />
          </mxGeometry>
        </mxCell>
        <mxCell id="buGXm4uaibGnN2zzedQZ-49" value="Доступ в систему" style="text;html=1;align=center;verticalAlign=middle;whiteSpace=wrap;rounded=0;" parent="1" vertex="1">
          <mxGeometry x="1253.24" y="-1008" width="80" height="40" as="geometry" />
        </mxCell>
        <mxCell id="buGXm4uaibGnN2zzedQZ-51" value="1.1" style="text;html=1;align=center;verticalAlign=middle;whiteSpace=wrap;rounded=0;" parent="1" vertex="1">
          <mxGeometry x="50" y="-962.5" width="20" height="10" as="geometry" />
        </mxCell>
        <mxCell id="buGXm4uaibGnN2zzedQZ-52" value="1.7" style="text;html=1;align=center;verticalAlign=middle;whiteSpace=wrap;rounded=0;" parent="1" vertex="1">
          <mxGeometry x="994.24" y="-962.5" width="20" height="10" as="geometry" />
        </mxCell>
        <mxCell id="buGXm4uaibGnN2zzedQZ-53" value="1.6" style="text;html=1;align=center;verticalAlign=middle;whiteSpace=wrap;rounded=0;" parent="1" vertex="1">
          <mxGeometry x="994.24" y="-1052" width="20" height="10" as="geometry" />
        </mxCell>
        <mxCell id="buGXm4uaibGnN2zzedQZ-54" value="1.8" style="text;html=1;align=center;verticalAlign=middle;whiteSpace=wrap;rounded=0;" parent="1" vertex="1">
          <mxGeometry x="994.24" y="-878" width="20" height="10" as="geometry" />
        </mxCell>
        <mxCell id="buGXm4uaibGnN2zzedQZ-55" value="1.9" style="text;html=1;align=center;verticalAlign=middle;whiteSpace=wrap;rounded=0;" parent="1" vertex="1">
          <mxGeometry x="1254.24" y="-962.5" width="20" height="10" as="geometry" />
        </mxCell>
        <mxCell id="buGXm4uaibGnN2zzedQZ-126" style="edgeStyle=orthogonalEdgeStyle;rounded=0;orthogonalLoop=1;jettySize=auto;html=1;entryX=0.5;entryY=0;entryDx=0;entryDy=0;dashed=1;" parent="1" source="buGXm4uaibGnN2zzedQZ-56" edge="1">
          <mxGeometry relative="1" as="geometry">
            <mxPoint x="620" y="-614" as="targetPoint" />
          </mxGeometry>
        </mxCell>
        <mxCell id="buGXm4uaibGnN2zzedQZ-56" value="" style="rounded=0;whiteSpace=wrap;html=1;" parent="1" vertex="1">
          <mxGeometry x="560" y="-710" width="120" height="60" as="geometry" />
        </mxCell>
        <mxCell id="buGXm4uaibGnN2zzedQZ-59" value="" style="endArrow=none;html=1;rounded=0;entryX=0.142;entryY=0.004;entryDx=0;entryDy=0;entryPerimeter=0;exitX=0;exitY=0.25;exitDx=0;exitDy=0;" parent="1" source="buGXm4uaibGnN2zzedQZ-56" target="buGXm4uaibGnN2zzedQZ-56" edge="1">
          <mxGeometry width="50" height="50" relative="1" as="geometry">
            <mxPoint x="600" y="-650" as="sourcePoint" />
            <mxPoint x="650" y="-700" as="targetPoint" />
          </mxGeometry>
        </mxCell>
        <mxCell id="buGXm4uaibGnN2zzedQZ-60" value="База данных" style="text;html=1;align=center;verticalAlign=middle;whiteSpace=wrap;rounded=0;" parent="1" vertex="1">
          <mxGeometry x="580" y="-695" width="80" height="30" as="geometry" />
        </mxCell>
        <mxCell id="buGXm4uaibGnN2zzedQZ-99" style="edgeStyle=orthogonalEdgeStyle;rounded=0;orthogonalLoop=1;jettySize=auto;html=1;" parent="1" source="buGXm4uaibGnN2zzedQZ-68" edge="1">
          <mxGeometry relative="1" as="geometry">
            <mxPoint x="710" y="-584" as="targetPoint" />
          </mxGeometry>
        </mxCell>
        <mxCell id="buGXm4uaibGnN2zzedQZ-68" value="" style="rounded=0;whiteSpace=wrap;html=1;" parent="1" vertex="1">
          <mxGeometry x="559" y="-614" width="120" height="60" as="geometry" />
        </mxCell>
        <mxCell id="buGXm4uaibGnN2zzedQZ-69" value="" style="endArrow=none;html=1;rounded=0;exitX=0;exitY=0.75;exitDx=0;exitDy=0;entryX=1;entryY=0.75;entryDx=0;entryDy=0;" parent="1" source="buGXm4uaibGnN2zzedQZ-68" target="buGXm4uaibGnN2zzedQZ-68" edge="1">
          <mxGeometry width="50" height="50" relative="1" as="geometry">
            <mxPoint x="659" y="-544" as="sourcePoint" />
            <mxPoint x="709" y="-594" as="targetPoint" />
          </mxGeometry>
        </mxCell>
        <mxCell id="buGXm4uaibGnN2zzedQZ-70" value="" style="endArrow=none;html=1;rounded=0;" parent="1" edge="1">
          <mxGeometry width="50" height="50" relative="1" as="geometry">
            <mxPoint x="616.89" y="-554" as="sourcePoint" />
            <mxPoint x="616.89" y="-569" as="targetPoint" />
          </mxGeometry>
        </mxCell>
        <mxCell id="buGXm4uaibGnN2zzedQZ-71" value="" style="endArrow=none;html=1;rounded=0;entryX=0.142;entryY=0.004;entryDx=0;entryDy=0;entryPerimeter=0;exitX=0;exitY=0.25;exitDx=0;exitDy=0;" parent="1" source="buGXm4uaibGnN2zzedQZ-68" target="buGXm4uaibGnN2zzedQZ-68" edge="1">
          <mxGeometry width="50" height="50" relative="1" as="geometry">
            <mxPoint x="599" y="-554" as="sourcePoint" />
            <mxPoint x="649" y="-604" as="targetPoint" />
          </mxGeometry>
        </mxCell>
        <mxCell id="buGXm4uaibGnN2zzedQZ-72" value="Поиск товаров" style="text;html=1;align=center;verticalAlign=middle;whiteSpace=wrap;rounded=0;" parent="1" vertex="1">
          <mxGeometry x="563.5" y="-597" width="111" height="16" as="geometry" />
        </mxCell>
        <mxCell id="buGXm4uaibGnN2zzedQZ-73" value="2.1" style="text;html=1;align=center;verticalAlign=middle;whiteSpace=wrap;rounded=0;" parent="1" vertex="1">
          <mxGeometry x="579" y="-566.65" width="20" height="10" as="geometry" />
        </mxCell>
        <mxCell id="buGXm4uaibGnN2zzedQZ-114" style="edgeStyle=orthogonalEdgeStyle;rounded=0;orthogonalLoop=1;jettySize=auto;html=1;entryX=0.5;entryY=0;entryDx=0;entryDy=0;" parent="1" source="buGXm4uaibGnN2zzedQZ-74" target="buGXm4uaibGnN2zzedQZ-111" edge="1">
          <mxGeometry relative="1" as="geometry" />
        </mxCell>
        <mxCell id="buGXm4uaibGnN2zzedQZ-74" value="" style="rounded=0;whiteSpace=wrap;html=1;" parent="1" vertex="1">
          <mxGeometry x="801" y="-710" width="120" height="60" as="geometry" />
        </mxCell>
        <mxCell id="buGXm4uaibGnN2zzedQZ-75" value="" style="endArrow=none;html=1;rounded=0;exitX=0;exitY=0.75;exitDx=0;exitDy=0;entryX=1;entryY=0.75;entryDx=0;entryDy=0;" parent="1" source="buGXm4uaibGnN2zzedQZ-74" target="buGXm4uaibGnN2zzedQZ-74" edge="1">
          <mxGeometry width="50" height="50" relative="1" as="geometry">
            <mxPoint x="901" y="-640" as="sourcePoint" />
            <mxPoint x="951" y="-690" as="targetPoint" />
          </mxGeometry>
        </mxCell>
        <mxCell id="buGXm4uaibGnN2zzedQZ-76" value="" style="endArrow=none;html=1;rounded=0;" parent="1" edge="1">
          <mxGeometry width="50" height="50" relative="1" as="geometry">
            <mxPoint x="858.89" y="-650" as="sourcePoint" />
            <mxPoint x="858.89" y="-665" as="targetPoint" />
          </mxGeometry>
        </mxCell>
        <mxCell id="buGXm4uaibGnN2zzedQZ-77" value="" style="endArrow=none;html=1;rounded=0;entryX=0.142;entryY=0.004;entryDx=0;entryDy=0;entryPerimeter=0;exitX=0;exitY=0.25;exitDx=0;exitDy=0;" parent="1" source="buGXm4uaibGnN2zzedQZ-74" target="buGXm4uaibGnN2zzedQZ-74" edge="1">
          <mxGeometry width="50" height="50" relative="1" as="geometry">
            <mxPoint x="841" y="-650" as="sourcePoint" />
            <mxPoint x="891" y="-700" as="targetPoint" />
          </mxGeometry>
        </mxCell>
        <mxCell id="buGXm4uaibGnN2zzedQZ-78" value="Сортировка по введённым данным" style="text;html=1;align=center;verticalAlign=middle;whiteSpace=wrap;rounded=0;" parent="1" vertex="1">
          <mxGeometry x="797.75" y="-700" width="124.5" height="25" as="geometry" />
        </mxCell>
        <mxCell id="buGXm4uaibGnN2zzedQZ-79" value="2.2" style="text;html=1;align=center;verticalAlign=middle;whiteSpace=wrap;rounded=0;" parent="1" vertex="1">
          <mxGeometry x="821" y="-662.65" width="20" height="10" as="geometry" />
        </mxCell>
        <mxCell id="buGXm4uaibGnN2zzedQZ-117" style="edgeStyle=orthogonalEdgeStyle;rounded=0;orthogonalLoop=1;jettySize=auto;html=1;entryX=0.5;entryY=1;entryDx=0;entryDy=0;" parent="1" source="buGXm4uaibGnN2zzedQZ-86" target="buGXm4uaibGnN2zzedQZ-111" edge="1">
          <mxGeometry relative="1" as="geometry" />
        </mxCell>
        <mxCell id="buGXm4uaibGnN2zzedQZ-86" value="" style="rounded=0;whiteSpace=wrap;html=1;" parent="1" vertex="1">
          <mxGeometry x="800" y="-550" width="120" height="60" as="geometry" />
        </mxCell>
        <mxCell id="buGXm4uaibGnN2zzedQZ-87" value="" style="endArrow=none;html=1;rounded=0;exitX=0;exitY=0.75;exitDx=0;exitDy=0;entryX=1;entryY=0.75;entryDx=0;entryDy=0;" parent="1" source="buGXm4uaibGnN2zzedQZ-86" target="buGXm4uaibGnN2zzedQZ-86" edge="1">
          <mxGeometry width="50" height="50" relative="1" as="geometry">
            <mxPoint x="900" y="-480" as="sourcePoint" />
            <mxPoint x="950" y="-530" as="targetPoint" />
          </mxGeometry>
        </mxCell>
        <mxCell id="buGXm4uaibGnN2zzedQZ-88" value="" style="endArrow=none;html=1;rounded=0;" parent="1" edge="1">
          <mxGeometry width="50" height="50" relative="1" as="geometry">
            <mxPoint x="857.89" y="-490" as="sourcePoint" />
            <mxPoint x="857.89" y="-505" as="targetPoint" />
          </mxGeometry>
        </mxCell>
        <mxCell id="buGXm4uaibGnN2zzedQZ-89" value="" style="endArrow=none;html=1;rounded=0;entryX=0.142;entryY=0.004;entryDx=0;entryDy=0;entryPerimeter=0;exitX=0;exitY=0.25;exitDx=0;exitDy=0;" parent="1" source="buGXm4uaibGnN2zzedQZ-86" target="buGXm4uaibGnN2zzedQZ-86" edge="1">
          <mxGeometry width="50" height="50" relative="1" as="geometry">
            <mxPoint x="840" y="-490" as="sourcePoint" />
            <mxPoint x="890" y="-540" as="targetPoint" />
          </mxGeometry>
        </mxCell>
        <mxCell id="buGXm4uaibGnN2zzedQZ-90" value="Фильтрация данных по введённым параметрам" style="text;html=1;align=center;verticalAlign=middle;whiteSpace=wrap;rounded=0;fontSize=10;" parent="1" vertex="1">
          <mxGeometry x="799.12" y="-540" width="121.75" height="23" as="geometry" />
        </mxCell>
        <mxCell id="buGXm4uaibGnN2zzedQZ-91" value="2.3" style="text;html=1;align=center;verticalAlign=middle;whiteSpace=wrap;rounded=0;" parent="1" vertex="1">
          <mxGeometry x="820" y="-502.65" width="20" height="10" as="geometry" />
        </mxCell>
        <mxCell id="buGXm4uaibGnN2zzedQZ-116" style="edgeStyle=orthogonalEdgeStyle;rounded=0;orthogonalLoop=1;jettySize=auto;html=1;entryX=0.5;entryY=1;entryDx=0;entryDy=0;" parent="1" source="buGXm4uaibGnN2zzedQZ-92" target="buGXm4uaibGnN2zzedQZ-111" edge="1">
          <mxGeometry relative="1" as="geometry" />
        </mxCell>
        <mxCell id="buGXm4uaibGnN2zzedQZ-92" value="" style="rounded=0;whiteSpace=wrap;html=1;" parent="1" vertex="1">
          <mxGeometry x="800" y="-456" width="120" height="60" as="geometry" />
        </mxCell>
        <mxCell id="buGXm4uaibGnN2zzedQZ-93" value="" style="endArrow=none;html=1;rounded=0;exitX=0;exitY=0.75;exitDx=0;exitDy=0;entryX=1;entryY=0.75;entryDx=0;entryDy=0;" parent="1" source="buGXm4uaibGnN2zzedQZ-92" target="buGXm4uaibGnN2zzedQZ-92" edge="1">
          <mxGeometry width="50" height="50" relative="1" as="geometry">
            <mxPoint x="900" y="-386" as="sourcePoint" />
            <mxPoint x="950" y="-436" as="targetPoint" />
          </mxGeometry>
        </mxCell>
        <mxCell id="buGXm4uaibGnN2zzedQZ-94" value="" style="endArrow=none;html=1;rounded=0;" parent="1" edge="1">
          <mxGeometry width="50" height="50" relative="1" as="geometry">
            <mxPoint x="857.89" y="-396" as="sourcePoint" />
            <mxPoint x="857.89" y="-411" as="targetPoint" />
          </mxGeometry>
        </mxCell>
        <mxCell id="buGXm4uaibGnN2zzedQZ-95" value="" style="endArrow=none;html=1;rounded=0;entryX=0.142;entryY=0.004;entryDx=0;entryDy=0;entryPerimeter=0;exitX=0;exitY=0.25;exitDx=0;exitDy=0;" parent="1" source="buGXm4uaibGnN2zzedQZ-92" target="buGXm4uaibGnN2zzedQZ-92" edge="1">
          <mxGeometry width="50" height="50" relative="1" as="geometry">
            <mxPoint x="840" y="-396" as="sourcePoint" />
            <mxPoint x="890" y="-446" as="targetPoint" />
          </mxGeometry>
        </mxCell>
        <mxCell id="buGXm4uaibGnN2zzedQZ-96" value="Поиск по введённым данным" style="text;html=1;align=center;verticalAlign=middle;whiteSpace=wrap;rounded=0;" parent="1" vertex="1">
          <mxGeometry x="803.25" y="-450" width="115.5" height="27" as="geometry" />
        </mxCell>
        <mxCell id="buGXm4uaibGnN2zzedQZ-97" value="2.4" style="text;html=1;align=center;verticalAlign=middle;whiteSpace=wrap;rounded=0;" parent="1" vertex="1">
          <mxGeometry x="820" y="-408.65" width="20" height="10" as="geometry" />
        </mxCell>
        <mxCell id="buGXm4uaibGnN2zzedQZ-104" style="edgeStyle=orthogonalEdgeStyle;rounded=0;orthogonalLoop=1;jettySize=auto;html=1;entryX=0;entryY=0.5;entryDx=0;entryDy=0;exitX=0.5;exitY=1;exitDx=0;exitDy=0;" parent="1" source="buGXm4uaibGnN2zzedQZ-101" target="buGXm4uaibGnN2zzedQZ-86" edge="1">
          <mxGeometry relative="1" as="geometry" />
        </mxCell>
        <mxCell id="buGXm4uaibGnN2zzedQZ-105" style="edgeStyle=orthogonalEdgeStyle;rounded=0;orthogonalLoop=1;jettySize=auto;html=1;entryX=0;entryY=0.5;entryDx=0;entryDy=0;exitX=0.5;exitY=0;exitDx=0;exitDy=0;" parent="1" source="buGXm4uaibGnN2zzedQZ-101" target="buGXm4uaibGnN2zzedQZ-74" edge="1">
          <mxGeometry relative="1" as="geometry" />
        </mxCell>
        <mxCell id="buGXm4uaibGnN2zzedQZ-106" style="edgeStyle=orthogonalEdgeStyle;rounded=0;orthogonalLoop=1;jettySize=auto;html=1;entryX=0;entryY=0.5;entryDx=0;entryDy=0;exitX=0.5;exitY=1;exitDx=0;exitDy=0;" parent="1" source="buGXm4uaibGnN2zzedQZ-101" target="buGXm4uaibGnN2zzedQZ-92" edge="1">
          <mxGeometry relative="1" as="geometry" />
        </mxCell>
        <mxCell id="buGXm4uaibGnN2zzedQZ-118" style="edgeStyle=orthogonalEdgeStyle;rounded=0;orthogonalLoop=1;jettySize=auto;html=1;entryX=0;entryY=0.5;entryDx=0;entryDy=0;" parent="1" source="buGXm4uaibGnN2zzedQZ-101" target="buGXm4uaibGnN2zzedQZ-111" edge="1">
          <mxGeometry relative="1" as="geometry" />
        </mxCell>
        <mxCell id="buGXm4uaibGnN2zzedQZ-101" value="" style="rounded=0;whiteSpace=wrap;html=1;" parent="1" vertex="1">
          <mxGeometry x="709" y="-601.5" width="51" height="35" as="geometry" />
        </mxCell>
        <mxCell id="buGXm4uaibGnN2zzedQZ-102" value="" style="endArrow=none;html=1;rounded=0;entryX=0.25;entryY=0;entryDx=0;entryDy=0;exitX=0.25;exitY=1;exitDx=0;exitDy=0;" parent="1" source="buGXm4uaibGnN2zzedQZ-101" target="buGXm4uaibGnN2zzedQZ-101" edge="1">
          <mxGeometry width="50" height="50" relative="1" as="geometry">
            <mxPoint x="669" y="-541.5" as="sourcePoint" />
            <mxPoint x="719" y="-591.5" as="targetPoint" />
          </mxGeometry>
        </mxCell>
        <mxCell id="buGXm4uaibGnN2zzedQZ-103" value="" style="ellipse;whiteSpace=wrap;html=1;" parent="1" vertex="1">
          <mxGeometry x="735" y="-589" width="10" height="10" as="geometry" />
        </mxCell>
        <mxCell id="buGXm4uaibGnN2zzedQZ-125" style="edgeStyle=orthogonalEdgeStyle;rounded=0;orthogonalLoop=1;jettySize=auto;html=1;entryX=0;entryY=0.5;entryDx=0;entryDy=0;" parent="1" source="buGXm4uaibGnN2zzedQZ-111" target="buGXm4uaibGnN2zzedQZ-119" edge="1">
          <mxGeometry relative="1" as="geometry" />
        </mxCell>
        <mxCell id="buGXm4uaibGnN2zzedQZ-111" value="" style="rounded=0;whiteSpace=wrap;html=1;" parent="1" vertex="1">
          <mxGeometry x="980" y="-602" width="51" height="35" as="geometry" />
        </mxCell>
        <mxCell id="buGXm4uaibGnN2zzedQZ-112" value="" style="endArrow=none;html=1;rounded=0;entryX=0.25;entryY=0;entryDx=0;entryDy=0;exitX=0.25;exitY=1;exitDx=0;exitDy=0;" parent="1" source="buGXm4uaibGnN2zzedQZ-111" target="buGXm4uaibGnN2zzedQZ-111" edge="1">
          <mxGeometry width="50" height="50" relative="1" as="geometry">
            <mxPoint x="940" y="-542" as="sourcePoint" />
            <mxPoint x="990" y="-592" as="targetPoint" />
          </mxGeometry>
        </mxCell>
        <mxCell id="buGXm4uaibGnN2zzedQZ-113" value="" style="ellipse;whiteSpace=wrap;html=1;" parent="1" vertex="1">
          <mxGeometry x="1006" y="-589.5" width="10" height="10" as="geometry" />
        </mxCell>
        <mxCell id="buGXm4uaibGnN2zzedQZ-119" value="" style="rounded=0;whiteSpace=wrap;html=1;" parent="1" vertex="1">
          <mxGeometry x="1069.75" y="-614" width="120" height="60" as="geometry" />
        </mxCell>
        <mxCell id="buGXm4uaibGnN2zzedQZ-120" value="" style="endArrow=none;html=1;rounded=0;exitX=0;exitY=0.75;exitDx=0;exitDy=0;entryX=1;entryY=0.75;entryDx=0;entryDy=0;" parent="1" source="buGXm4uaibGnN2zzedQZ-119" target="buGXm4uaibGnN2zzedQZ-119" edge="1">
          <mxGeometry width="50" height="50" relative="1" as="geometry">
            <mxPoint x="1169.75" y="-544" as="sourcePoint" />
            <mxPoint x="1219.75" y="-594" as="targetPoint" />
          </mxGeometry>
        </mxCell>
        <mxCell id="buGXm4uaibGnN2zzedQZ-121" value="" style="endArrow=none;html=1;rounded=0;" parent="1" edge="1">
          <mxGeometry width="50" height="50" relative="1" as="geometry">
            <mxPoint x="1127.6399999999999" y="-554" as="sourcePoint" />
            <mxPoint x="1127.6399999999999" y="-569" as="targetPoint" />
          </mxGeometry>
        </mxCell>
        <mxCell id="buGXm4uaibGnN2zzedQZ-122" value="" style="endArrow=none;html=1;rounded=0;entryX=0.142;entryY=0.004;entryDx=0;entryDy=0;entryPerimeter=0;exitX=0;exitY=0.25;exitDx=0;exitDy=0;" parent="1" source="buGXm4uaibGnN2zzedQZ-119" target="buGXm4uaibGnN2zzedQZ-119" edge="1">
          <mxGeometry width="50" height="50" relative="1" as="geometry">
            <mxPoint x="1109.75" y="-554" as="sourcePoint" />
            <mxPoint x="1159.75" y="-604" as="targetPoint" />
          </mxGeometry>
        </mxCell>
        <mxCell id="buGXm4uaibGnN2zzedQZ-123" value="Выбор товара" style="text;html=1;align=center;verticalAlign=middle;whiteSpace=wrap;rounded=0;" parent="1" vertex="1">
          <mxGeometry x="1074.25" y="-597" width="111" height="16" as="geometry" />
        </mxCell>
        <mxCell id="buGXm4uaibGnN2zzedQZ-124" value="2.5" style="text;html=1;align=center;verticalAlign=middle;whiteSpace=wrap;rounded=0;" parent="1" vertex="1">
          <mxGeometry x="1089.75" y="-566.65" width="20" height="10" as="geometry" />
        </mxCell>
        <mxCell id="buGXm4uaibGnN2zzedQZ-132" style="edgeStyle=orthogonalEdgeStyle;rounded=0;orthogonalLoop=1;jettySize=auto;html=1;entryX=0.5;entryY=0;entryDx=0;entryDy=0;" parent="1" source="buGXm4uaibGnN2zzedQZ-133" target="buGXm4uaibGnN2zzedQZ-137" edge="1">
          <mxGeometry relative="1" as="geometry" />
        </mxCell>
        <mxCell id="buGXm4uaibGnN2zzedQZ-133" value="" style="rounded=0;whiteSpace=wrap;html=1;" parent="1" vertex="1">
          <mxGeometry x="340" y="-350" width="120" height="60" as="geometry" />
        </mxCell>
        <mxCell id="buGXm4uaibGnN2zzedQZ-134" value="" style="endArrow=none;html=1;rounded=0;entryX=0.142;entryY=0.004;entryDx=0;entryDy=0;entryPerimeter=0;exitX=0;exitY=0.25;exitDx=0;exitDy=0;" parent="1" source="buGXm4uaibGnN2zzedQZ-133" target="buGXm4uaibGnN2zzedQZ-133" edge="1">
          <mxGeometry width="50" height="50" relative="1" as="geometry">
            <mxPoint x="380" y="-290" as="sourcePoint" />
            <mxPoint x="430" y="-340" as="targetPoint" />
          </mxGeometry>
        </mxCell>
        <mxCell id="buGXm4uaibGnN2zzedQZ-135" value="Выбранный товар&lt;span style=&quot;color: rgba(0, 0, 0, 0); font-family: monospace; font-size: 0px; text-align: start; text-wrap-mode: nowrap;&quot;&gt;%3CmxGraphModel%3E%3Croot%3E%3CmxCell%20id%3D%220%22%2F%3E%3CmxCell%20id%3D%221%22%20parent%3D%220%22%2F%3E%3CmxCell%20id%3D%222%22%20style%3D%22edgeStyle%3DorthogonalEdgeStyle%3Brounded%3D0%3BorthogonalLoop%3D1%3BjettySize%3Dauto%3Bhtml%3D1%3BentryX%3D0.5%3BentryY%3D0%3BentryDx%3D0%3BentryDy%3D0%3B%22%20edge%3D%221%22%20source%3D%223%22%20target%3D%227%22%20parent%3D%221%22%3E%3CmxGeometry%20relative%3D%221%22%20as%3D%22geometry%22%2F%3E%3C%2FmxCell%3E%3CmxCell%20id%3D%223%22%20value%3D%22%22%20style%3D%22rounded%3D0%3BwhiteSpace%3Dwrap%3Bhtml%3D1%3B%22%20vertex%3D%221%22%20parent%3D%221%22%3E%3CmxGeometry%20x%3D%22399%22%20y%3D%22-710%22%20width%3D%22120%22%20height%3D%2260%22%20as%3D%22geometry%22%2F%3E%3C%2FmxCell%3E%3CmxCell%20id%3D%224%22%20value%3D%22%22%20style%3D%22endArrow%3Dnone%3Bhtml%3D1%3Brounded%3D0%3BentryX%3D0.142%3BentryY%3D0.004%3BentryDx%3D0%3BentryDy%3D0%3BentryPerimeter%3D0%3BexitX%3D0%3BexitY%3D0.25%3BexitDx%3D0%3BexitDy%3D0%3B%22%20edge%3D%221%22%20source%3D%223%22%20target%3D%223%22%20parent%3D%221%22%3E%3CmxGeometry%20width%3D%2250%22%20height%3D%2250%22%20relative%3D%221%22%20as%3D%22geometry%22%3E%3CmxPoint%20x%3D%22439%22%20y%3D%22-650%22%20as%3D%22sourcePoint%22%2F%3E%3CmxPoint%20x%3D%22489%22%20y%3D%22-700%22%20as%3D%22targetPoint%22%2F%3E%3C%2FmxGeometry%3E%3C%2FmxCell%3E%3CmxCell%20id%3D%225%22%20value%3D%22%D0%91%D0%B0%D0%B7%D0%B0%20%D0%B4%D0%B0%D0%BD%D0%BD%D1%8B%D1%85%22%20style%3D%22text%3Bhtml%3D1%3Balign%3Dcenter%3BverticalAlign%3Dmiddle%3BwhiteSpace%3Dwrap%3Brounded%3D0%3B%22%20vertex%3D%221%22%20parent%3D%221%22%3E%3CmxGeometry%20x%3D%22419%22%20y%3D%22-695%22%20width%3D%2280%22%20height%3D%2230%22%20as%3D%22geometry%22%2F%3E%3C%2FmxCell%3E%3CmxCell%20id%3D%226%22%20style%3D%22edgeStyle%3DorthogonalEdgeStyle%3Brounded%3D0%3BorthogonalLoop%3D1%3BjettySize%3Dauto%3Bhtml%3D1%3BentryX%3D0%3BentryY%3D0.5%3BentryDx%3D0%3BentryDy%3D0%3B%22%20edge%3D%221%22%20source%3D%227%22%20target%3D%2214%22%20parent%3D%221%22%3E%3CmxGeometry%20relative%3D%221%22%20as%3D%22geometry%22%2F%3E%3C%2FmxCell%3E%3CmxCell%20id%3D%227%22%20value%3D%22%22%20style%3D%22rounded%3D0%3BwhiteSpace%3Dwrap%3Bhtml%3D1%3B%22%20vertex%3D%221%22%20parent%3D%221%22%3E%3CmxGeometry%20x%3D%22399%22%20y%3D%22-614%22%20width%3D%22120%22%20height%3D%2260%22%20as%3D%22geometry%22%2F%3E%3C%2FmxCell%3E%3CmxCell%20id%3D%228%22%20value%3D%22%22%20style%3D%22endArrow%3Dnone%3Bhtml%3D1%3Brounded%3D0%3BexitX%3D0%3BexitY%3D0.75%3BexitDx%3D0%3BexitDy%3D0%3BentryX%3D1%3BentryY%3D0.75%3BentryDx%3D0%3BentryDy%3D0%3B%22%20edge%3D%221%22%20source%3D%227%22%20target%3D%227%22%20parent%3D%221%22%3E%3CmxGeometry%20width%3D%2250%22%20height%3D%2250%22%20relative%3D%221%22%20as%3D%22geometry%22%3E%3CmxPoint%20x%3D%22499%22%20y%3D%22-544%22%20as%3D%22sourcePoint%22%2F%3E%3CmxPoint%20x%3D%22549%22%20y%3D%22-594%22%20as%3D%22targetPoint%22%2F%3E%3C%2FmxGeometry%3E%3C%2FmxCell%3E%3CmxCell%20id%3D%229%22%20value%3D%22%22%20style%3D%22endArrow%3Dnone%3Bhtml%3D1%3Brounded%3D0%3B%22%20edge%3D%221%22%20parent%3D%221%22%3E%3CmxGeometry%20width%3D%2250%22%20height%3D%2250%22%20relative%3D%221%22%20as%3D%22geometry%22%3E%3CmxPoint%20x%3D%22456.89%22%20y%3D%22-554%22%20as%3D%22sourcePoint%22%2F%3E%3CmxPoint%20x%3D%22456.89%22%20y%3D%22-569%22%20as%3D%22targetPoint%22%2F%3E%3C%2FmxGeometry%3E%3C%2FmxCell%3E%3CmxCell%20id%3D%2210%22%20value%3D%22%22%20style%3D%22endArrow%3Dnone%3Bhtml%3D1%3Brounded%3D0%3BentryX%3D0.142%3BentryY%3D0.004%3BentryDx%3D0%3BentryDy%3D0%3BentryPerimeter%3D0%3BexitX%3D0%3BexitY%3D0.25%3BexitDx%3D0%3BexitDy%3D0%3B%22%20edge%3D%221%22%20source%3D%227%22%20target%3D%227%22%20parent%3D%221%22%3E%3CmxGeometry%20width%3D%2250%22%20height%3D%2250%22%20relative%3D%221%22%20as%3D%22geometry%22%3E%3CmxPoint%20x%3D%22439%22%20y%3D%22-554%22%20as%3D%22sourcePoint%22%2F%3E%3CmxPoint%20x%3D%22489%22%20y%3D%22-604%22%20as%3D%22targetPoint%22%2F%3E%3C%2FmxGeometry%3E%3C%2FmxCell%3E%3CmxCell%20id%3D%2211%22%20value%3D%22%D0%9F%D0%BE%D0%BB%D1%83%D1%87%D0%B5%D0%BD%D0%B8%D0%B5%20%D0%B4%D0%B0%D0%BD%D0%BD%D1%8B%D1%85%20%D0%B8%D0%B7%20%D0%B1%D0%B0%D0%B7%D1%8B%20%D0%B4%D0%B0%D0%BD%D0%BD%D1%8B%D1%85%22%20style%3D%22text%3Bhtml%3D1%3Balign%3Dcenter%3BverticalAlign%3Dmiddle%3BwhiteSpace%3Dwrap%3Brounded%3D0%3B%22%20vertex%3D%221%22%20parent%3D%221%22%3E%3CmxGeometry%20x%3D%22403.5%22%20y%3D%22-604%22%20width%3D%22111%22%20height%3D%2230%22%20as%3D%22geometry%22%2F%3E%3C%2FmxCell%3E%3CmxCell%20id%3D%2212%22%20value%3D%222.1%22%20style%3D%22text%3Bhtml%3D1%3Balign%3Dcenter%3BverticalAlign%3Dmiddle%3BwhiteSpace%3Dwrap%3Brounded%3D0%3B%22%20vertex%3D%221%22%20parent%3D%221%22%3E%3CmxGeometry%20x%3D%22419%22%20y%3D%22-566.65%22%20width%3D%2220%22%20height%3D%2210%22%20as%3D%22geometry%22%2F%3E%3C%2FmxCell%3E%3CmxCell%20id%3D%2213%22%20style%3D%22edgeStyle%3DorthogonalEdgeStyle%3Brounded%3D0%3BorthogonalLoop%3D1%3BjettySize%3Dauto%3Bhtml%3D1%3B%22%20edge%3D%221%22%20source%3D%2214%22%20parent%3D%221%22%3E%3CmxGeometry%20relative%3D%221%22%20as%3D%22geometry%22%3E%3CmxPoint%20x%3D%22710%22%20y%3D%22-584%22%20as%3D%22targetPoint%22%2F%3E%3C%2FmxGeometry%3E%3C%2FmxCell%3E%3CmxCell%20id%3D%2214%22%20value%3D%22%22%20style%3D%22rounded%3D0%3BwhiteSpace%3Dwrap%3Bhtml%3D1%3B%22%20vertex%3D%221%22%20parent%3D%221%22%3E%3CmxGeometry%20x%3D%22559%22%20y%3D%22-614%22%20width%3D%22120%22%20height%3D%2260%22%20as%3D%22geometry%22%2F%3E%3C%2FmxCell%3E%3CmxCell%20id%3D%2215%22%20value%3D%22%22%20style%3D%22endArrow%3Dnone%3Bhtml%3D1%3Brounded%3D0%3BexitX%3D0%3BexitY%3D0.75%3BexitDx%3D0%3BexitDy%3D0%3BentryX%3D1%3BentryY%3D0.75%3BentryDx%3D0%3BentryDy%3D0%3B%22%20edge%3D%221%22%20source%3D%2214%22%20target%3D%2214%22%20parent%3D%221%22%3E%3CmxGeometry%20width%3D%2250%22%20height%3D%2250%22%20relative%3D%221%22%20as%3D%22geometry%22%3E%3CmxPoint%20x%3D%22659%22%20y%3D%22-544%22%20as%3D%22sourcePoint%22%2F%3E%3CmxPoint%20x%3D%22709%22%20y%3D%22-594%22%20as%3D%22targetPoint%22%2F%3E%3C%2FmxGeometry%3E%3C%2FmxCell%3E%3CmxCell%20id%3D%2216%22%20value%3D%22%22%20style%3D%22endArrow%3Dnone%3Bhtml%3D1%3Brounded%3D0%3B%22%20edge%3D%221%22%20parent%3D%221%22%3E%3CmxGeometry%20width%3D%2250%22%20height%3D%2250%22%20relative%3D%221%22%20as%3D%22geometry%22%3E%3CmxPoint%20x%3D%22616.89%22%20y%3D%22-554%22%20as%3D%22sourcePoint%22%2F%3E%3CmxPoint%20x%3D%22616.89%22%20y%3D%22-569%22%20as%3D%22targetPoint%22%2F%3E%3C%2FmxGeometry%3E%3C%2FmxCell%3E%3CmxCell%20id%3D%2217%22%20value%3D%22%22%20style%3D%22endArrow%3Dnone%3Bhtml%3D1%3Brounded%3D0%3BentryX%3D0.142%3BentryY%3D0.004%3BentryDx%3D0%3BentryDy%3D0%3BentryPerimeter%3D0%3BexitX%3D0%3BexitY%3D0.25%3BexitDx%3D0%3BexitDy%3D0%3B%22%20edge%3D%221%22%20source%3D%2214%22%20target%3D%2214%22%20parent%3D%221%22%3E%3CmxGeometry%20width%3D%2250%22%20height%3D%2250%22%20relative%3D%221%22%20as%3D%22geometry%22%3E%3CmxPoint%20x%3D%22599%22%20y%3D%22-554%22%20as%3D%22sourcePoint%22%2F%3E%3CmxPoint%20x%3D%22649%22%20y%3D%22-604%22%20as%3D%22targetPoint%22%2F%3E%3C%2FmxGeometry%3E%3C%2FmxCell%3E%3CmxCell%20id%3D%2218%22%20value%3D%22%D0%9F%D0%BE%D0%B8%D1%81%D0%BA%20%D1%82%D0%BE%D0%B2%D0%B0%D1%80%D0%BE%D0%B2%22%20style%3D%22text%3Bhtml%3D1%3Balign%3Dcenter%3BverticalAlign%3Dmiddle%3BwhiteSpace%3Dwrap%3Brounded%3D0%3B%22%20vertex%3D%221%22%20parent%3D%221%22%3E%3CmxGeometry%20x%3D%22563.5%22%20y%3D%22-597%22%20width%3D%22111%22%20height%3D%2216%22%20as%3D%22geometry%22%2F%3E%3C%2FmxCell%3E%3CmxCell%20id%3D%2219%22%20value%3D%222.2%22%20style%3D%22text%3Bhtml%3D1%3Balign%3Dcenter%3BverticalAlign%3Dmiddle%3BwhiteSpace%3Dwrap%3Brounded%3D0%3B%22%20vertex%3D%221%22%20parent%3D%221%22%3E%3CmxGeometry%20x%3D%22579%22%20y%3D%22-566.65%22%20width%3D%2220%22%20height%3D%2210%22%20as%3D%22geometry%22%2F%3E%3C%2FmxCell%3E%3CmxCell%20id%3D%2220%22%20style%3D%22edgeStyle%3DorthogonalEdgeStyle%3Brounded%3D0%3BorthogonalLoop%3D1%3BjettySize%3Dauto%3Bhtml%3D1%3BentryX%3D0.5%3BentryY%3D0%3BentryDx%3D0%3BentryDy%3D0%3B%22%20edge%3D%221%22%20source%3D%2221%22%20target%3D%2249%22%20parent%3D%221%22%3E%3CmxGeometry%20relative%3D%221%22%20as%3D%22geometry%22%2F%3E%3C%2FmxCell%3E%3CmxCell%20id%3D%2221%22%20value%3D%22%22%20style%3D%22rounded%3D0%3BwhiteSpace%3Dwrap%3Bhtml%3D1%3B%22%20vertex%3D%221%22%20parent%3D%221%22%3E%3CmxGeometry%20x%3D%22801%22%20y%3D%22-710%22%20width%3D%22120%22%20height%3D%2260%22%20as%3D%22geometry%22%2F%3E%3C%2FmxCell%3E%3CmxCell%20id%3D%2222%22%20value%3D%22%22%20style%3D%22endArrow%3Dnone%3Bhtml%3D1%3Brounded%3D0%3BexitX%3D0%3BexitY%3D0.75%3BexitDx%3D0%3BexitDy%3D0%3BentryX%3D1%3BentryY%3D0.75%3BentryDx%3D0%3BentryDy%3D0%3B%22%20edge%3D%221%22%20source%3D%2221%22%20target%3D%2221%22%20parent%3D%221%22%3E%3CmxGeometry%20width%3D%2250%22%20height%3D%2250%22%20relative%3D%221%22%20as%3D%22geometry%22%3E%3CmxPoint%20x%3D%22901%22%20y%3D%22-640%22%20as%3D%22sourcePoint%22%2F%3E%3CmxPoint%20x%3D%22951%22%20y%3D%22-690%22%20as%3D%22targetPoint%22%2F%3E%3C%2FmxGeometry%3E%3C%2FmxCell%3E%3CmxCell%20id%3D%2223%22%20value%3D%22%22%20style%3D%22endArrow%3Dnone%3Bhtml%3D1%3Brounded%3D0%3B%22%20edge%3D%221%22%20parent%3D%221%22%3E%3CmxGeometry%20width%3D%2250%22%20height%3D%2250%22%20relative%3D%221%22%20as%3D%22geometry%22%3E%3CmxPoint%20x%3D%22858.89%22%20y%3D%22-650%22%20as%3D%22sourcePoint%22%2F%3E%3CmxPoint%20x%3D%22858.89%22%20y%3D%22-665%22%20as%3D%22targetPoint%22%2F%3E%3C%2FmxGeometry%3E%3C%2FmxCell%3E%3CmxCell%20id%3D%2224%22%20value%3D%22%22%20style%3D%22endArrow%3Dnone%3Bhtml%3D1%3Brounded%3D0%3BentryX%3D0.142%3BentryY%3D0.004%3BentryDx%3D0%3BentryDy%3D0%3BentryPerimeter%3D0%3BexitX%3D0%3BexitY%3D0.25%3BexitDx%3D0%3BexitDy%3D0%3B%22%20edge%3D%221%22%20source%3D%2221%22%20target%3D%2221%22%20parent%3D%221%22%3E%3CmxGeometry%20width%3D%2250%22%20height%3D%2250%22%20relative%3D%221%22%20as%3D%22geometry%22%3E%3CmxPoint%20x%3D%22841%22%20y%3D%22-650%22%20as%3D%22sourcePoint%22%2F%3E%3CmxPoint%20x%3D%22891%22%20y%3D%22-700%22%20as%3D%22targetPoint%22%2F%3E%3C%2FmxGeometry%3E%3C%2FmxCell%3E%3CmxCell%20id%3D%2225%22%20value%3D%22%D0%A1%D0%BE%D1%80%D1%82%D0%B8%D1%80%D0%BE%D0%B2%D0%BA%D0%B0%20%D0%BF%D0%BE%20%D0%B2%D0%B2%D0%B5%D0%B4%D1%91%D0%BD%D0%BD%D1%8B%D0%BC%20%D0%B4%D0%B0%D0%BD%D0%BD%D1%8B%D0%BC%22%20style%3D%22text%3Bhtml%3D1%3Balign%3Dcenter%3BverticalAlign%3Dmiddle%3BwhiteSpace%3Dwrap%3Brounded%3D0%3B%22%20vertex%3D%221%22%20parent%3D%221%22%3E%3CmxGeometry%20x%3D%22797.75%22%20y%3D%22-700%22%20width%3D%22124.5%22%20height%3D%2225%22%20as%3D%22geometry%22%2F%3E%3C%2FmxCell%3E%3CmxCell%20id%3D%2226%22%20value%3D%222.3%22%20style%3D%22text%3Bhtml%3D1%3Balign%3Dcenter%3BverticalAlign%3Dmiddle%3BwhiteSpace%3Dwrap%3Brounded%3D0%3B%22%20vertex%3D%221%22%20parent%3D%221%22%3E%3CmxGeometry%20x%3D%22821%22%20y%3D%22-662.65%22%20width%3D%2220%22%20height%3D%2210%22%20as%3D%22geometry%22%2F%3E%3C%2FmxCell%3E%3CmxCell%20id%3D%2227%22%20style%3D%22edgeStyle%3DorthogonalEdgeStyle%3Brounded%3D0%3BorthogonalLoop%3D1%3BjettySize%3Dauto%3Bhtml%3D1%3BentryX%3D0.5%3BentryY%3D1%3BentryDx%3D0%3BentryDy%3D0%3B%22%20edge%3D%221%22%20source%3D%2228%22%20target%3D%2249%22%20parent%3D%221%22%3E%3CmxGeometry%20relative%3D%221%22%20as%3D%22geometry%22%2F%3E%3C%2FmxCell%3E%3CmxCell%20id%3D%2228%22%20value%3D%22%22%20style%3D%22rounded%3D0%3BwhiteSpace%3Dwrap%3Bhtml%3D1%3B%22%20vertex%3D%221%22%20parent%3D%221%22%3E%3CmxGeometry%20x%3D%22800%22%20y%3D%22-550%22%20width%3D%22120%22%20height%3D%2260%22%20as%3D%22geometry%22%2F%3E%3C%2FmxCell%3E%3CmxCell%20id%3D%2229%22%20value%3D%22%22%20style%3D%22endArrow%3Dnone%3Bhtml%3D1%3Brounded%3D0%3BexitX%3D0%3BexitY%3D0.75%3BexitDx%3D0%3BexitDy%3D0%3BentryX%3D1%3BentryY%3D0.75%3BentryDx%3D0%3BentryDy%3D0%3B%22%20edge%3D%221%22%20source%3D%2228%22%20target%3D%2228%22%20parent%3D%221%22%3E%3CmxGeometry%20width%3D%2250%22%20height%3D%2250%22%20relative%3D%221%22%20as%3D%22geometry%22%3E%3CmxPoint%20x%3D%22900%22%20y%3D%22-480%22%20as%3D%22sourcePoint%22%2F%3E%3CmxPoint%20x%3D%22950%22%20y%3D%22-530%22%20as%3D%22targetPoint%22%2F%3E%3C%2FmxGeometry%3E%3C%2FmxCell%3E%3CmxCell%20id%3D%2230%22%20value%3D%22%22%20style%3D%22endArrow%3Dnone%3Bhtml%3D1%3Brounded%3D0%3B%22%20edge%3D%221%22%20parent%3D%221%22%3E%3CmxGeometry%20width%3D%2250%22%20height%3D%2250%22%20relative%3D%221%22%20as%3D%22geometry%22%3E%3CmxPoint%20x%3D%22857.89%22%20y%3D%22-490%22%20as%3D%22sourcePoint%22%2F%3E%3CmxPoint%20x%3D%22857.89%22%20y%3D%22-505%22%20as%3D%22targetPoint%22%2F%3E%3C%2FmxGeometry%3E%3C%2FmxCell%3E%3CmxCell%20id%3D%2231%22%20value%3D%22%22%20style%3D%22endArrow%3Dnone%3Bhtml%3D1%3Brounded%3D0%3BentryX%3D0.142%3BentryY%3D0.004%3BentryDx%3D0%3BentryDy%3D0%3BentryPerimeter%3D0%3BexitX%3D0%3BexitY%3D0.25%3BexitDx%3D0%3BexitDy%3D0%3B%22%20edge%3D%221%22%20source%3D%2228%22%20target%3D%2228%22%20parent%3D%221%22%3E%3CmxGeometry%20width%3D%2250%22%20height%3D%2250%22%20relative%3D%221%22%20as%3D%22geometry%22%3E%3CmxPoint%20x%3D%22840%22%20y%3D%22-490%22%20as%3D%22sourcePoint%22%2F%3E%3CmxPoint%20x%3D%22890%22%20y%3D%22-540%22%20as%3D%22targetPoint%22%2F%3E%3C%2FmxGeometry%3E%3C%2FmxCell%3E%3CmxCell%20id%3D%2232%22%20value%3D%22%D0%A4%D0%B8%D0%BB%D1%8C%D1%82%D1%80%D0%B0%D1%86%D0%B8%D1%8F%20%D0%B4%D0%B0%D0%BD%D0%BD%D1%8B%D1%85%20%D0%BF%D0%BE%20%D0%B2%D0%B2%D0%B5%D0%B4%D1%91%D0%BD%D0%BD%D1%8B%D0%BC%20%D0%BF%D0%B0%D1%80%D0%B0%D0%BC%D0%B5%D1%82%D1%80%D0%B0%D0%BC%22%20style%3D%22text%3Bhtml%3D1%3Balign%3Dcenter%3BverticalAlign%3Dmiddle%3BwhiteSpace%3Dwrap%3Brounded%3D0%3BfontSize%3D10%3B%22%20vertex%3D%221%22%20parent%3D%221%22%3E%3CmxGeometry%20x%3D%22799.12%22%20y%3D%22-540%22%20width%3D%22121.75%22%20height%3D%2223%22%20as%3D%22geometry%22%2F%3E%3C%2FmxCell%3E%3CmxCell%20id%3D%2233%22%20value%3D%222.4%22%20style%3D%22text%3Bhtml%3D1%3Balign%3Dcenter%3BverticalAlign%3Dmiddle%3BwhiteSpace%3Dwrap%3Brounded%3D0%3B%22%20vertex%3D%221%22%20parent%3D%221%22%3E%3CmxGeometry%20x%3D%22820%22%20y%3D%22-502.65%22%20width%3D%2220%22%20height%3D%2210%22%20as%3D%22geometry%22%2F%3E%3C%2FmxCell%3E%3CmxCell%20id%3D%2234%22%20style%3D%22edgeStyle%3DorthogonalEdgeStyle%3Brounded%3D0%3BorthogonalLoop%3D1%3BjettySize%3Dauto%3Bhtml%3D1%3BentryX%3D0.5%3BentryY%3D1%3BentryDx%3D0%3BentryDy%3D0%3B%22%20edge%3D%221%22%20source%3D%2235%22%20target%3D%2249%22%20parent%3D%221%22%3E%3CmxGeometry%20relative%3D%221%22%20as%3D%22geometry%22%2F%3E%3C%2FmxCell%3E%3CmxCell%20id%3D%2235%22%20value%3D%22%22%20style%3D%22rounded%3D0%3BwhiteSpace%3Dwrap%3Bhtml%3D1%3B%22%20vertex%3D%221%22%20parent%3D%221%22%3E%3CmxGeometry%20x%3D%22800%22%20y%3D%22-456%22%20width%3D%22120%22%20height%3D%2260%22%20as%3D%22geometry%22%2F%3E%3C%2FmxCell%3E%3CmxCell%20id%3D%2236%22%20value%3D%22%22%20style%3D%22endArrow%3Dnone%3Bhtml%3D1%3Brounded%3D0%3BexitX%3D0%3BexitY%3D0.75%3BexitDx%3D0%3BexitDy%3D0%3BentryX%3D1%3BentryY%3D0.75%3BentryDx%3D0%3BentryDy%3D0%3B%22%20edge%3D%221%22%20source%3D%2235%22%20target%3D%2235%22%20parent%3D%221%22%3E%3CmxGeometry%20width%3D%2250%22%20height%3D%2250%22%20relative%3D%221%22%20as%3D%22geometry%22%3E%3CmxPoint%20x%3D%22900%22%20y%3D%22-386%22%20as%3D%22sourcePoint%22%2F%3E%3CmxPoint%20x%3D%22950%22%20y%3D%22-436%22%20as%3D%22targetPoint%22%2F%3E%3C%2FmxGeometry%3E%3C%2FmxCell%3E%3CmxCell%20id%3D%2237%22%20value%3D%22%22%20style%3D%22endArrow%3Dnone%3Bhtml%3D1%3Brounded%3D0%3B%22%20edge%3D%221%22%20parent%3D%221%22%3E%3CmxGeometry%20width%3D%2250%22%20height%3D%2250%22%20relative%3D%221%22%20as%3D%22geometry%22%3E%3CmxPoint%20x%3D%22857.89%22%20y%3D%22-396%22%20as%3D%22sourcePoint%22%2F%3E%3CmxPoint%20x%3D%22857.89%22%20y%3D%22-411%22%20as%3D%22targetPoint%22%2F%3E%3C%2FmxGeometry%3E%3C%2FmxCell%3E%3CmxCell%20id%3D%2238%22%20value%3D%22%22%20style%3D%22endArrow%3Dnone%3Bhtml%3D1%3Brounded%3D0%3BentryX%3D0.142%3BentryY%3D0.004%3BentryDx%3D0%3BentryDy%3D0%3BentryPerimeter%3D0%3BexitX%3D0%3BexitY%3D0.25%3BexitDx%3D0%3BexitDy%3D0%3B%22%20edge%3D%221%22%20source%3D%2235%22%20target%3D%2235%22%20parent%3D%221%22%3E%3CmxGeometry%20width%3D%2250%22%20height%3D%2250%22%20relative%3D%221%22%20as%3D%22geometry%22%3E%3CmxPoint%20x%3D%22840%22%20y%3D%22-396%22%20as%3D%22sourcePoint%22%2F%3E%3CmxPoint%20x%3D%22890%22%20y%3D%22-446%22%20as%3D%22targetPoint%22%2F%3E%3C%2FmxGeometry%3E%3C%2FmxCell%3E%3CmxCell%20id%3D%2239%22%20value%3D%22%D0%9F%D0%BE%D0%B8%D1%81%D0%BA%20%D0%BF%D0%BE%20%D0%B2%D0%B2%D0%B5%D0%B4%D1%91%D0%BD%D0%BD%D1%8B%D0%BC%20%D0%B4%D0%B0%D0%BD%D0%BD%D1%8B%D0%BC%22%20style%3D%22text%3Bhtml%3D1%3Balign%3Dcenter%3BverticalAlign%3Dmiddle%3BwhiteSpace%3Dwrap%3Brounded%3D0%3B%22%20vertex%3D%221%22%20parent%3D%221%22%3E%3CmxGeometry%20x%3D%22803.25%22%20y%3D%22-450%22%20width%3D%22115.5%22%20height%3D%2227%22%20as%3D%22geometry%22%2F%3E%3C%2FmxCell%3E%3CmxCell%20id%3D%2240%22%20value%3D%222.5%22%20style%3D%22text%3Bhtml%3D1%3Balign%3Dcenter%3BverticalAlign%3Dmiddle%3BwhiteSpace%3Dwrap%3Brounded%3D0%3B%22%20vertex%3D%221%22%20parent%3D%221%22%3E%3CmxGeometry%20x%3D%22820%22%20y%3D%22-408.65%22%20width%3D%2220%22%20height%3D%2210%22%20as%3D%22geometry%22%2F%3E%3C%2FmxCell%3E%3CmxCell%20id%3D%2241%22%20style%3D%22edgeStyle%3DorthogonalEdgeStyle%3Brounded%3D0%3BorthogonalLoop%3D1%3BjettySize%3Dauto%3Bhtml%3D1%3BentryX%3D0%3BentryY%3D0.5%3BentryDx%3D0%3BentryDy%3D0%3BexitX%3D0.5%3BexitY%3D1%3BexitDx%3D0%3BexitDy%3D0%3B%22%20edge%3D%221%22%20source%3D%2245%22%20target%3D%2228%22%20parent%3D%221%22%3E%3CmxGeometry%20relative%3D%221%22%20as%3D%22geometry%22%2F%3E%3C%2FmxCell%3E%3CmxCell%20id%3D%2242%22%20style%3D%22edgeStyle%3DorthogonalEdgeStyle%3Brounded%3D0%3BorthogonalLoop%3D1%3BjettySize%3Dauto%3Bhtml%3D1%3BentryX%3D0%3BentryY%3D0.5%3BentryDx%3D0%3BentryDy%3D0%3BexitX%3D0.5%3BexitY%3D0%3BexitDx%3D0%3BexitDy%3D0%3B%22%20edge%3D%221%22%20source%3D%2245%22%20target%3D%2221%22%20parent%3D%221%22%3E%3CmxGeometry%20relative%3D%221%22%20as%3D%22geometry%22%2F%3E%3C%2FmxCell%3E%3CmxCell%20id%3D%2243%22%20style%3D%22edgeStyle%3DorthogonalEdgeStyle%3Brounded%3D0%3BorthogonalLoop%3D1%3BjettySize%3Dauto%3Bhtml%3D1%3BentryX%3D0%3BentryY%3D0.5%3BentryDx%3D0%3BentryDy%3D0%3BexitX%3D0.5%3BexitY%3D1%3BexitDx%3D0%3BexitDy%3D0%3B%22%20edge%3D%221%22%20source%3D%2245%22%20target%3D%2235%22%20parent%3D%221%22%3E%3CmxGeometry%20relative%3D%221%22%20as%3D%22geometry%22%2F%3E%3C%2FmxCell%3E%3CmxCell%20id%3D%2244%22%20style%3D%22edgeStyle%3DorthogonalEdgeStyle%3Brounded%3D0%3BorthogonalLoop%3D1%3BjettySize%3Dauto%3Bhtml%3D1%3BentryX%3D0%3BentryY%3D0.5%3BentryDx%3D0%3BentryDy%3D0%3B%22%20edge%3D%221%22%20source%3D%2245%22%20target%3D%2249%22%20parent%3D%221%22%3E%3CmxGeometry%20relative%3D%221%22%20as%3D%22geometry%22%2F%3E%3C%2FmxCell%3E%3CmxCell%20id%3D%2245%22%20value%3D%22%22%20style%3D%22rounded%3D0%3BwhiteSpace%3Dwrap%3Bhtml%3D1%3B%22%20vertex%3D%221%22%20parent%3D%221%22%3E%3CmxGeometry%20x%3D%22709%22%20y%3D%22-601.5%22%20width%3D%2251%22%20height%3D%2235%22%20as%3D%22geometry%22%2F%3E%3C%2FmxCell%3E%3CmxCell%20id%3D%2246%22%20value%3D%22%22%20style%3D%22endArrow%3Dnone%3Bhtml%3D1%3Brounded%3D0%3BentryX%3D0.25%3BentryY%3D0%3BentryDx%3D0%3BentryDy%3D0%3BexitX%3D0.25%3BexitY%3D1%3BexitDx%3D0%3BexitDy%3D0%3B%22%20edge%3D%221%22%20source%3D%2245%22%20target%3D%2245%22%20parent%3D%221%22%3E%3CmxGeometry%20width%3D%2250%22%20height%3D%2250%22%20relative%3D%221%22%20as%3D%22geometry%22%3E%3CmxPoint%20x%3D%22669%22%20y%3D%22-541.5%22%20as%3D%22sourcePoint%22%2F%3E%3CmxPoint%20x%3D%22719%22%20y%3D%22-591.5%22%20as%3D%22targetPoint%22%2F%3E%3C%2FmxGeometry%3E%3C%2FmxCell%3E%3CmxCell%20id%3D%2247%22%20value%3D%22%22%20style%3D%22ellipse%3BwhiteSpace%3Dwrap%3Bhtml%3D1%3B%22%20vertex%3D%221%22%20parent%3D%221%22%3E%3CmxGeometry%20x%3D%22735%22%20y%3D%22-589%22%20width%3D%2210%22%20height%3D%2210%22%20as%3D%22geometry%22%2F%3E%3C%2FmxCell%3E%3CmxCell%20id%3D%2248%22%20style%3D%22edgeStyle%3DorthogonalEdgeStyle%3Brounded%3D0%3BorthogonalLoop%3D1%3BjettySize%3Dauto%3Bhtml%3D1%3BentryX%3D0%3BentryY%3D0.5%3BentryDx%3D0%3BentryDy%3D0%3B%22%20edge%3D%221%22%20source%3D%2249%22%20target%3D%2252%22%20parent%3D%221%22%3E%3CmxGeometry%20relative%3D%221%22%20as%3D%22geometry%22%2F%3E%3C%2FmxCell%3E%3CmxCell%20id%3D%2249%22%20value%3D%22%22%20style%3D%22rounded%3D0%3BwhiteSpace%3Dwrap%3Bhtml%3D1%3B%22%20vertex%3D%221%22%20parent%3D%221%22%3E%3CmxGeometry%20x%3D%22980%22%20y%3D%22-602%22%20width%3D%2251%22%20height%3D%2235%22%20as%3D%22geometry%22%2F%3E%3C%2FmxCell%3E%3CmxCell%20id%3D%2250%22%20value%3D%22%22%20style%3D%22endArrow%3Dnone%3Bhtml%3D1%3Brounded%3D0%3BentryX%3D0.25%3BentryY%3D0%3BentryDx%3D0%3BentryDy%3D0%3BexitX%3D0.25%3BexitY%3D1%3BexitDx%3D0%3BexitDy%3D0%3B%22%20edge%3D%221%22%20source%3D%2249%22%20target%3D%2249%22%20parent%3D%221%22%3E%3CmxGeometry%20width%3D%2250%22%20height%3D%2250%22%20relative%3D%221%22%20as%3D%22geometry%22%3E%3CmxPoint%20x%3D%22940%22%20y%3D%22-542%22%20as%3D%22sourcePoint%22%2F%3E%3CmxPoint%20x%3D%22990%22%20y%3D%22-592%22%20as%3D%22targetPoint%22%2F%3E%3C%2FmxGeometry%3E%3C%2FmxCell%3E%3CmxCell%20id%3D%2251%22%20value%3D%22%22%20style%3D%22ellipse%3BwhiteSpace%3Dwrap%3Bhtml%3D1%3B%22%20vertex%3D%221%22%20parent%3D%221%22%3E%3CmxGeometry%20x%3D%221006%22%20y%3D%22-589.5%22%20width%3D%2210%22%20height%3D%2210%22%20as%3D%22geometry%22%2F%3E%3C%2FmxCell%3E%3CmxCell%20id%3D%2252%22%20value%3D%22%22%20style%3D%22rounded%3D0%3BwhiteSpace%3Dwrap%3Bhtml%3D1%3B%22%20vertex%3D%221%22%20parent%3D%221%22%3E%3CmxGeometry%20x%3D%221069.75%22%20y%3D%22-614%22%20width%3D%22120%22%20height%3D%2260%22%20as%3D%22geometry%22%2F%3E%3C%2FmxCell%3E%3CmxCell%20id%3D%2253%22%20value%3D%22%22%20style%3D%22endArrow%3Dnone%3Bhtml%3D1%3Brounded%3D0%3BexitX%3D0%3BexitY%3D0.75%3BexitDx%3D0%3BexitDy%3D0%3BentryX%3D1%3BentryY%3D0.75%3BentryDx%3D0%3BentryDy%3D0%3B%22%20edge%3D%221%22%20source%3D%2252%22%20target%3D%2252%22%20parent%3D%221%22%3E%3CmxGeometry%20width%3D%2250%22%20height%3D%2250%22%20relative%3D%221%22%20as%3D%22geometry%22%3E%3CmxPoint%20x%3D%221169.75%22%20y%3D%22-544%22%20as%3D%22sourcePoint%22%2F%3E%3CmxPoint%20x%3D%221219.75%22%20y%3D%22-594%22%20as%3D%22targetPoint%22%2F%3E%3C%2FmxGeometry%3E%3C%2FmxCell%3E%3CmxCell%20id%3D%2254%22%20value%3D%22%22%20style%3D%22endArrow%3Dnone%3Bhtml%3D1%3Brounded%3D0%3B%22%20edge%3D%221%22%20parent%3D%221%22%3E%3CmxGeometry%20width%3D%2250%22%20height%3D%2250%22%20relative%3D%221%22%20as%3D%22geometry%22%3E%3CmxPoint%20x%3D%221127.6399999999999%22%20y%3D%22-554%22%20as%3D%22sourcePoint%22%2F%3E%3CmxPoint%20x%3D%221127.6399999999999%22%20y%3D%22-569%22%20as%3D%22targetPoint%22%2F%3E%3C%2FmxGeometry%3E%3C%2FmxCell%3E%3CmxCell%20id%3D%2255%22%20value%3D%22%22%20style%3D%22endArrow%3Dnone%3Bhtml%3D1%3Brounded%3D0%3BentryX%3D0.142%3BentryY%3D0.004%3BentryDx%3D0%3BentryDy%3D0%3BentryPerimeter%3D0%3BexitX%3D0%3BexitY%3D0.25%3BexitDx%3D0%3BexitDy%3D0%3B%22%20edge%3D%221%22%20source%3D%2252%22%20target%3D%2252%22%20parent%3D%221%22%3E%3CmxGeometry%20width%3D%2250%22%20height%3D%2250%22%20relative%3D%221%22%20as%3D%22geometry%22%3E%3CmxPoint%20x%3D%221109.75%22%20y%3D%22-554%22%20as%3D%22sourcePoint%22%2F%3E%3CmxPoint%20x%3D%221159.75%22%20y%3D%22-604%22%20as%3D%22targetPoint%22%2F%3E%3C%2FmxGeometry%3E%3C%2FmxCell%3E%3CmxCell%20id%3D%2256%22%20value%3D%22%D0%92%D1%8B%D0%B1%D0%BE%D1%80%20%D1%82%D0%BE%D0%B2%D0%B0%D1%80%D0%B0%22%20style%3D%22text%3Bhtml%3D1%3Balign%3Dcenter%3BverticalAlign%3Dmiddle%3BwhiteSpace%3Dwrap%3Brounded%3D0%3B%22%20vertex%3D%221%22%20parent%3D%221%22%3E%3CmxGeometry%20x%3D%221074.25%22%20y%3D%22-597%22%20width%3D%22111%22%20height%3D%2216%22%20as%3D%22geometry%22%2F%3E%3C%2FmxCell%3E%3CmxCell%20id%3D%2257%22%20value%3D%222.6%22%20style%3D%22text%3Bhtml%3D1%3Balign%3Dcenter%3BverticalAlign%3Dmiddle%3BwhiteSpace%3Dwrap%3Brounded%3D0%3B%22%20vertex%3D%221%22%20parent%3D%221%22%3E%3CmxGeometry%20x%3D%221089.75%22%20y%3D%22-566.65%22%20width%3D%2220%22%20height%3D%2210%22%20as%3D%22geometry%22%2F%3E%3C%2FmxCell%3E%3CmxCell%20id%3D%2258%22%20style%3D%22edgeStyle%3DorthogonalEdgeStyle%3Brounded%3D0%3BorthogonalLoop%3D1%3BjettySize%3Dauto%3Bhtml%3D1%3BentryX%3D0%3BentryY%3D0.5%3BentryDx%3D0%3BentryDy%3D0%3B%22%20edge%3D%221%22%20source%3D%2259%22%20target%3D%227%22%20parent%3D%221%22%3E%3CmxGeometry%20relative%3D%221%22%20as%3D%22geometry%22%2F%3E%3C%2FmxCell%3E%3CmxCell%20id%3D%2259%22%20value%3D%22%22%20style%3D%22rounded%3D0%3BwhiteSpace%3Dwrap%3Bhtml%3D1%3B%22%20vertex%3D%221%22%20parent%3D%221%22%3E%3CmxGeometry%20x%3D%22220%22%20y%3D%22-614%22%20width%3D%22120%22%20height%3D%2260%22%20as%3D%22geometry%22%2F%3E%3C%2FmxCell%3E%3CmxCell%20id%3D%2260%22%20value%3D%22%22%20style%3D%22endArrow%3Dnone%3Bhtml%3D1%3Brounded%3D0%3BentryX%3D0.142%3BentryY%3D0.004%3BentryDx%3D0%3BentryDy%3D0%3BentryPerimeter%3D0%3BexitX%3D0%3BexitY%3D0.25%3BexitDx%3D0%3BexitDy%3D0%3B%22%20edge%3D%221%22%20source%3D%2259%22%20target%3D%2259%22%20parent%3D%221%22%3E%3CmxGeometry%20width%3D%2250%22%20height%3D%2250%22%20relative%3D%221%22%20as%3D%22geometry%22%3E%3CmxPoint%20x%3D%22260%22%20y%3D%22-554%22%20as%3D%22sourcePoint%22%2F%3E%3CmxPoint%20x%3D%22310%22%20y%3D%22-604%22%20as%3D%22targetPoint%22%2F%3E%3C%2FmxGeometry%3E%3C%2FmxCell%3E%3CmxCell%20id%3D%2261%22%20value%3D%22%D0%90%D0%B2%D1%82%D0%BE%D1%80%D0%B8%D0%B7%D0%B0%D1%86%D0%B8%D1%8F%22%20style%3D%22text%3Bhtml%3D1%3Balign%3Dcenter%3BverticalAlign%3Dmiddle%3BwhiteSpace%3Dwrap%3Brounded%3D0%3B%22%20vertex%3D%221%22%20parent%3D%221%22%3E%3CmxGeometry%20x%3D%22240%22%20y%3D%22-599%22%20width%3D%2280%22%20height%3D%2230%22%20as%3D%22geometry%22%2F%3E%3C%2FmxCell%3E%3C%2Froot%3E%3C%2FmxGraphModel%3E&lt;/span&gt;" style="text;html=1;align=center;verticalAlign=middle;whiteSpace=wrap;rounded=0;" parent="1" vertex="1">
          <mxGeometry x="360" y="-335" width="80" height="30" as="geometry" />
        </mxCell>
        <mxCell id="buGXm4uaibGnN2zzedQZ-136" style="edgeStyle=orthogonalEdgeStyle;rounded=0;orthogonalLoop=1;jettySize=auto;html=1;" parent="1" source="buGXm4uaibGnN2zzedQZ-137" edge="1">
          <mxGeometry relative="1" as="geometry">
            <mxPoint x="510" y="-94" as="targetPoint" />
          </mxGeometry>
        </mxCell>
        <mxCell id="buGXm4uaibGnN2zzedQZ-137" value="" style="rounded=0;whiteSpace=wrap;html=1;" parent="1" vertex="1">
          <mxGeometry x="340" y="-124" width="120" height="60" as="geometry" />
        </mxCell>
        <mxCell id="buGXm4uaibGnN2zzedQZ-138" value="" style="endArrow=none;html=1;rounded=0;exitX=0;exitY=0.75;exitDx=0;exitDy=0;entryX=1;entryY=0.75;entryDx=0;entryDy=0;" parent="1" source="buGXm4uaibGnN2zzedQZ-137" target="buGXm4uaibGnN2zzedQZ-137" edge="1">
          <mxGeometry width="50" height="50" relative="1" as="geometry">
            <mxPoint x="440" y="-54" as="sourcePoint" />
            <mxPoint x="490" y="-104" as="targetPoint" />
          </mxGeometry>
        </mxCell>
        <mxCell id="buGXm4uaibGnN2zzedQZ-139" value="" style="endArrow=none;html=1;rounded=0;" parent="1" edge="1">
          <mxGeometry width="50" height="50" relative="1" as="geometry">
            <mxPoint x="397.89" y="-64" as="sourcePoint" />
            <mxPoint x="397.89" y="-79" as="targetPoint" />
          </mxGeometry>
        </mxCell>
        <mxCell id="buGXm4uaibGnN2zzedQZ-140" value="" style="endArrow=none;html=1;rounded=0;entryX=0.142;entryY=0.004;entryDx=0;entryDy=0;entryPerimeter=0;exitX=0;exitY=0.25;exitDx=0;exitDy=0;" parent="1" source="buGXm4uaibGnN2zzedQZ-137" target="buGXm4uaibGnN2zzedQZ-137" edge="1">
          <mxGeometry width="50" height="50" relative="1" as="geometry">
            <mxPoint x="380" y="-64" as="sourcePoint" />
            <mxPoint x="430" y="-114" as="targetPoint" />
          </mxGeometry>
        </mxCell>
        <mxCell id="buGXm4uaibGnN2zzedQZ-141" value="Просмотр корзины" style="text;html=1;align=center;verticalAlign=middle;whiteSpace=wrap;rounded=0;" parent="1" vertex="1">
          <mxGeometry x="344.5" y="-114" width="111" height="30" as="geometry" />
        </mxCell>
        <mxCell id="buGXm4uaibGnN2zzedQZ-142" value="3.1" style="text;html=1;align=center;verticalAlign=middle;whiteSpace=wrap;rounded=0;" parent="1" vertex="1">
          <mxGeometry x="360" y="-76.64999999999998" width="20" height="10" as="geometry" />
        </mxCell>
        <mxCell id="buGXm4uaibGnN2zzedQZ-150" style="edgeStyle=orthogonalEdgeStyle;rounded=0;orthogonalLoop=1;jettySize=auto;html=1;entryX=0.5;entryY=0;entryDx=0;entryDy=0;" parent="1" source="buGXm4uaibGnN2zzedQZ-151" target="buGXm4uaibGnN2zzedQZ-179" edge="1">
          <mxGeometry relative="1" as="geometry" />
        </mxCell>
        <mxCell id="buGXm4uaibGnN2zzedQZ-151" value="" style="rounded=0;whiteSpace=wrap;html=1;" parent="1" vertex="1">
          <mxGeometry x="902.75" y="-220" width="120" height="60" as="geometry" />
        </mxCell>
        <mxCell id="buGXm4uaibGnN2zzedQZ-152" value="" style="endArrow=none;html=1;rounded=0;exitX=0;exitY=0.75;exitDx=0;exitDy=0;entryX=1;entryY=0.75;entryDx=0;entryDy=0;" parent="1" source="buGXm4uaibGnN2zzedQZ-151" target="buGXm4uaibGnN2zzedQZ-151" edge="1">
          <mxGeometry width="50" height="50" relative="1" as="geometry">
            <mxPoint x="1002.75" y="-150" as="sourcePoint" />
            <mxPoint x="1052.75" y="-200" as="targetPoint" />
          </mxGeometry>
        </mxCell>
        <mxCell id="buGXm4uaibGnN2zzedQZ-153" value="" style="endArrow=none;html=1;rounded=0;" parent="1" edge="1">
          <mxGeometry width="50" height="50" relative="1" as="geometry">
            <mxPoint x="960.64" y="-160" as="sourcePoint" />
            <mxPoint x="960.64" y="-175" as="targetPoint" />
          </mxGeometry>
        </mxCell>
        <mxCell id="buGXm4uaibGnN2zzedQZ-154" value="" style="endArrow=none;html=1;rounded=0;entryX=0.142;entryY=0.004;entryDx=0;entryDy=0;entryPerimeter=0;exitX=0;exitY=0.25;exitDx=0;exitDy=0;" parent="1" source="buGXm4uaibGnN2zzedQZ-151" target="buGXm4uaibGnN2zzedQZ-151" edge="1">
          <mxGeometry width="50" height="50" relative="1" as="geometry">
            <mxPoint x="942.75" y="-160" as="sourcePoint" />
            <mxPoint x="992.75" y="-210" as="targetPoint" />
          </mxGeometry>
        </mxCell>
        <mxCell id="buGXm4uaibGnN2zzedQZ-156" value="3.4" style="text;html=1;align=center;verticalAlign=middle;whiteSpace=wrap;rounded=0;" parent="1" vertex="1">
          <mxGeometry x="922.75" y="-172.64999999999998" width="20" height="10" as="geometry" />
        </mxCell>
        <mxCell id="buGXm4uaibGnN2zzedQZ-157" style="edgeStyle=orthogonalEdgeStyle;rounded=0;orthogonalLoop=1;jettySize=auto;html=1;entryX=0;entryY=0.5;entryDx=0;entryDy=0;" parent="1" source="buGXm4uaibGnN2zzedQZ-158" target="buGXm4uaibGnN2zzedQZ-179" edge="1">
          <mxGeometry relative="1" as="geometry" />
        </mxCell>
        <mxCell id="buGXm4uaibGnN2zzedQZ-158" value="" style="rounded=0;whiteSpace=wrap;html=1;" parent="1" vertex="1">
          <mxGeometry x="903.63" y="-124.5" width="120" height="60" as="geometry" />
        </mxCell>
        <mxCell id="buGXm4uaibGnN2zzedQZ-159" value="" style="endArrow=none;html=1;rounded=0;exitX=0;exitY=0.75;exitDx=0;exitDy=0;entryX=1;entryY=0.75;entryDx=0;entryDy=0;" parent="1" source="buGXm4uaibGnN2zzedQZ-158" target="buGXm4uaibGnN2zzedQZ-158" edge="1">
          <mxGeometry width="50" height="50" relative="1" as="geometry">
            <mxPoint x="1003.63" y="-54.5" as="sourcePoint" />
            <mxPoint x="1053.63" y="-104.5" as="targetPoint" />
          </mxGeometry>
        </mxCell>
        <mxCell id="buGXm4uaibGnN2zzedQZ-160" value="" style="endArrow=none;html=1;rounded=0;" parent="1" edge="1">
          <mxGeometry width="50" height="50" relative="1" as="geometry">
            <mxPoint x="961.52" y="-64.5" as="sourcePoint" />
            <mxPoint x="961.52" y="-79.5" as="targetPoint" />
          </mxGeometry>
        </mxCell>
        <mxCell id="buGXm4uaibGnN2zzedQZ-161" value="" style="endArrow=none;html=1;rounded=0;entryX=0.142;entryY=0.004;entryDx=0;entryDy=0;entryPerimeter=0;exitX=0;exitY=0.25;exitDx=0;exitDy=0;" parent="1" source="buGXm4uaibGnN2zzedQZ-158" target="buGXm4uaibGnN2zzedQZ-158" edge="1">
          <mxGeometry width="50" height="50" relative="1" as="geometry">
            <mxPoint x="943.63" y="-64.5" as="sourcePoint" />
            <mxPoint x="993.63" y="-114.5" as="targetPoint" />
          </mxGeometry>
        </mxCell>
        <mxCell id="buGXm4uaibGnN2zzedQZ-162" value="Выбор способа доставки" style="text;html=1;align=center;verticalAlign=middle;whiteSpace=wrap;rounded=0;fontSize=12;" parent="1" vertex="1">
          <mxGeometry x="918.87" y="-110.5" width="87.75" height="23" as="geometry" />
        </mxCell>
        <mxCell id="buGXm4uaibGnN2zzedQZ-163" value="3.5" style="text;html=1;align=center;verticalAlign=middle;whiteSpace=wrap;rounded=0;" parent="1" vertex="1">
          <mxGeometry x="923.63" y="-77.14999999999998" width="20" height="10" as="geometry" />
        </mxCell>
        <mxCell id="buGXm4uaibGnN2zzedQZ-164" style="edgeStyle=orthogonalEdgeStyle;rounded=0;orthogonalLoop=1;jettySize=auto;html=1;entryX=0.5;entryY=1;entryDx=0;entryDy=0;" parent="1" source="buGXm4uaibGnN2zzedQZ-165" target="buGXm4uaibGnN2zzedQZ-179" edge="1">
          <mxGeometry relative="1" as="geometry" />
        </mxCell>
        <mxCell id="buGXm4uaibGnN2zzedQZ-165" value="" style="rounded=0;whiteSpace=wrap;html=1;" parent="1" vertex="1">
          <mxGeometry x="904.5" y="-32.650000000000006" width="120" height="60" as="geometry" />
        </mxCell>
        <mxCell id="buGXm4uaibGnN2zzedQZ-166" value="" style="endArrow=none;html=1;rounded=0;exitX=0;exitY=0.75;exitDx=0;exitDy=0;entryX=1;entryY=0.75;entryDx=0;entryDy=0;" parent="1" source="buGXm4uaibGnN2zzedQZ-165" target="buGXm4uaibGnN2zzedQZ-165" edge="1">
          <mxGeometry width="50" height="50" relative="1" as="geometry">
            <mxPoint x="1004.5" y="37.349999999999994" as="sourcePoint" />
            <mxPoint x="1054.5" y="-12.650000000000007" as="targetPoint" />
          </mxGeometry>
        </mxCell>
        <mxCell id="buGXm4uaibGnN2zzedQZ-167" value="" style="endArrow=none;html=1;rounded=0;" parent="1" edge="1">
          <mxGeometry width="50" height="50" relative="1" as="geometry">
            <mxPoint x="962.39" y="27.349999999999994" as="sourcePoint" />
            <mxPoint x="962.39" y="12.349999999999994" as="targetPoint" />
          </mxGeometry>
        </mxCell>
        <mxCell id="buGXm4uaibGnN2zzedQZ-168" value="" style="endArrow=none;html=1;rounded=0;entryX=0.142;entryY=0.004;entryDx=0;entryDy=0;entryPerimeter=0;exitX=0;exitY=0.25;exitDx=0;exitDy=0;" parent="1" source="buGXm4uaibGnN2zzedQZ-165" target="buGXm4uaibGnN2zzedQZ-165" edge="1">
          <mxGeometry width="50" height="50" relative="1" as="geometry">
            <mxPoint x="944.5" y="27.349999999999994" as="sourcePoint" />
            <mxPoint x="994.5" y="-22.650000000000006" as="targetPoint" />
          </mxGeometry>
        </mxCell>
        <mxCell id="buGXm4uaibGnN2zzedQZ-169" value="Проверка корзины" style="text;html=1;align=center;verticalAlign=middle;whiteSpace=wrap;rounded=0;" parent="1" vertex="1">
          <mxGeometry x="905" y="-209.65" width="115.5" height="27" as="geometry" />
        </mxCell>
        <mxCell id="buGXm4uaibGnN2zzedQZ-170" value="3.6" style="text;html=1;align=center;verticalAlign=middle;whiteSpace=wrap;rounded=0;" parent="1" vertex="1">
          <mxGeometry x="924.5" y="14.700000000000017" width="20" height="10" as="geometry" />
        </mxCell>
        <mxCell id="buGXm4uaibGnN2zzedQZ-171" style="edgeStyle=orthogonalEdgeStyle;rounded=0;orthogonalLoop=1;jettySize=auto;html=1;entryX=0;entryY=0.5;entryDx=0;entryDy=0;exitX=1;exitY=0.5;exitDx=0;exitDy=0;" parent="1" source="buGXm4uaibGnN2zzedQZ-175" target="buGXm4uaibGnN2zzedQZ-158" edge="1">
          <mxGeometry relative="1" as="geometry" />
        </mxCell>
        <mxCell id="buGXm4uaibGnN2zzedQZ-172" style="edgeStyle=orthogonalEdgeStyle;rounded=0;orthogonalLoop=1;jettySize=auto;html=1;entryX=0;entryY=0.5;entryDx=0;entryDy=0;exitX=0.5;exitY=0;exitDx=0;exitDy=0;" parent="1" source="buGXm4uaibGnN2zzedQZ-175" target="buGXm4uaibGnN2zzedQZ-151" edge="1">
          <mxGeometry relative="1" as="geometry" />
        </mxCell>
        <mxCell id="buGXm4uaibGnN2zzedQZ-173" style="edgeStyle=orthogonalEdgeStyle;rounded=0;orthogonalLoop=1;jettySize=auto;html=1;entryX=0;entryY=0.5;entryDx=0;entryDy=0;exitX=0.5;exitY=1;exitDx=0;exitDy=0;" parent="1" source="buGXm4uaibGnN2zzedQZ-175" target="buGXm4uaibGnN2zzedQZ-165" edge="1">
          <mxGeometry relative="1" as="geometry" />
        </mxCell>
        <mxCell id="buGXm4uaibGnN2zzedQZ-175" value="" style="rounded=0;whiteSpace=wrap;html=1;" parent="1" vertex="1">
          <mxGeometry x="800" y="-111.25" width="51" height="35" as="geometry" />
        </mxCell>
        <mxCell id="buGXm4uaibGnN2zzedQZ-178" style="edgeStyle=orthogonalEdgeStyle;rounded=0;orthogonalLoop=1;jettySize=auto;html=1;entryX=0;entryY=0.5;entryDx=0;entryDy=0;" parent="1" source="buGXm4uaibGnN2zzedQZ-179" target="buGXm4uaibGnN2zzedQZ-182" edge="1">
          <mxGeometry relative="1" as="geometry" />
        </mxCell>
        <mxCell id="buGXm4uaibGnN2zzedQZ-179" value="" style="rounded=0;whiteSpace=wrap;html=1;" parent="1" vertex="1">
          <mxGeometry x="1088.5" y="-112.15" width="51" height="35" as="geometry" />
        </mxCell>
        <mxCell id="buGXm4uaibGnN2zzedQZ-180" value="" style="endArrow=none;html=1;rounded=0;entryX=0.25;entryY=0;entryDx=0;entryDy=0;exitX=0.25;exitY=1;exitDx=0;exitDy=0;" parent="1" source="buGXm4uaibGnN2zzedQZ-179" target="buGXm4uaibGnN2zzedQZ-179" edge="1">
          <mxGeometry width="50" height="50" relative="1" as="geometry">
            <mxPoint x="1048.5" y="-52.15" as="sourcePoint" />
            <mxPoint x="1098.5" y="-102.15" as="targetPoint" />
          </mxGeometry>
        </mxCell>
        <mxCell id="buGXm4uaibGnN2zzedQZ-182" value="" style="rounded=0;whiteSpace=wrap;html=1;" parent="1" vertex="1">
          <mxGeometry x="1170.5" y="-124" width="120" height="60" as="geometry" />
        </mxCell>
        <mxCell id="buGXm4uaibGnN2zzedQZ-183" value="" style="endArrow=none;html=1;rounded=0;exitX=0;exitY=0.75;exitDx=0;exitDy=0;entryX=1;entryY=0.75;entryDx=0;entryDy=0;" parent="1" source="buGXm4uaibGnN2zzedQZ-182" target="buGXm4uaibGnN2zzedQZ-182" edge="1">
          <mxGeometry width="50" height="50" relative="1" as="geometry">
            <mxPoint x="1270.5" y="-54" as="sourcePoint" />
            <mxPoint x="1320.5" y="-104" as="targetPoint" />
          </mxGeometry>
        </mxCell>
        <mxCell id="buGXm4uaibGnN2zzedQZ-184" value="" style="endArrow=none;html=1;rounded=0;" parent="1" edge="1">
          <mxGeometry width="50" height="50" relative="1" as="geometry">
            <mxPoint x="1228.3899999999999" y="-64" as="sourcePoint" />
            <mxPoint x="1228.3899999999999" y="-79" as="targetPoint" />
          </mxGeometry>
        </mxCell>
        <mxCell id="buGXm4uaibGnN2zzedQZ-185" value="" style="endArrow=none;html=1;rounded=0;entryX=0.142;entryY=0.004;entryDx=0;entryDy=0;entryPerimeter=0;exitX=0;exitY=0.25;exitDx=0;exitDy=0;" parent="1" source="buGXm4uaibGnN2zzedQZ-182" target="buGXm4uaibGnN2zzedQZ-182" edge="1">
          <mxGeometry width="50" height="50" relative="1" as="geometry">
            <mxPoint x="1210.5" y="-64" as="sourcePoint" />
            <mxPoint x="1260.5" y="-114" as="targetPoint" />
          </mxGeometry>
        </mxCell>
        <mxCell id="buGXm4uaibGnN2zzedQZ-186" value="Создание записи заказа" style="text;html=1;align=center;verticalAlign=middle;whiteSpace=wrap;rounded=0;" parent="1" vertex="1">
          <mxGeometry x="1175" y="-112.5" width="111" height="27" as="geometry" />
        </mxCell>
        <mxCell id="buGXm4uaibGnN2zzedQZ-187" value="3.7" style="text;html=1;align=center;verticalAlign=middle;whiteSpace=wrap;rounded=0;" parent="1" vertex="1">
          <mxGeometry x="1190.5" y="-76.64999999999998" width="20" height="10" as="geometry" />
        </mxCell>
        <mxCell id="JFCtVrj-zI766jc3Ud4v-3" value="" style="endArrow=none;html=1;rounded=0;entryX=0.25;entryY=0;entryDx=0;entryDy=0;exitX=0.25;exitY=1;exitDx=0;exitDy=0;" parent="1" edge="1">
          <mxGeometry width="50" height="50" relative="1" as="geometry">
            <mxPoint x="811" y="-76.75" as="sourcePoint" />
            <mxPoint x="811" y="-111.75" as="targetPoint" />
          </mxGeometry>
        </mxCell>
        <mxCell id="JFCtVrj-zI766jc3Ud4v-6" value="&amp;amp;" style="text;html=1;align=center;verticalAlign=middle;whiteSpace=wrap;rounded=0;" parent="1" vertex="1">
          <mxGeometry x="821.5" y="-99" width="10" height="10" as="geometry" />
        </mxCell>
        <mxCell id="buGXm4uaibGnN2zzedQZ-155" value="Выбор адреса доставки" style="text;html=1;align=center;verticalAlign=middle;whiteSpace=wrap;rounded=0;" parent="1" vertex="1">
          <mxGeometry x="907.24" y="-22.65" width="111" height="25" as="geometry" />
        </mxCell>
        <mxCell id="JFCtVrj-zI766jc3Ud4v-10" style="edgeStyle=orthogonalEdgeStyle;rounded=0;orthogonalLoop=1;jettySize=auto;html=1;entryX=0.5;entryY=0;entryDx=0;entryDy=0;" parent="1" source="JFCtVrj-zI766jc3Ud4v-7" target="buGXm4uaibGnN2zzedQZ-151" edge="1">
          <mxGeometry relative="1" as="geometry" />
        </mxCell>
        <mxCell id="JFCtVrj-zI766jc3Ud4v-7" value="" style="rounded=0;whiteSpace=wrap;html=1;" parent="1" vertex="1">
          <mxGeometry x="902.74" y="-350" width="120" height="60" as="geometry" />
        </mxCell>
        <mxCell id="JFCtVrj-zI766jc3Ud4v-8" value="" style="endArrow=none;html=1;rounded=0;entryX=0.142;entryY=0.004;entryDx=0;entryDy=0;entryPerimeter=0;exitX=0;exitY=0.25;exitDx=0;exitDy=0;" parent="1" source="JFCtVrj-zI766jc3Ud4v-7" target="JFCtVrj-zI766jc3Ud4v-7" edge="1">
          <mxGeometry width="50" height="50" relative="1" as="geometry">
            <mxPoint x="942.74" y="-290" as="sourcePoint" />
            <mxPoint x="992.74" y="-340" as="targetPoint" />
          </mxGeometry>
        </mxCell>
        <mxCell id="JFCtVrj-zI766jc3Ud4v-9" value="База данных" style="text;html=1;align=left;verticalAlign=middle;whiteSpace=wrap;rounded=0;" parent="1" vertex="1">
          <mxGeometry x="922.74" y="-335" width="80" height="30" as="geometry" />
        </mxCell>
        <mxCell id="JFCtVrj-zI766jc3Ud4v-11" style="edgeStyle=orthogonalEdgeStyle;rounded=0;orthogonalLoop=1;jettySize=auto;html=1;entryX=0.5;entryY=0;entryDx=0;entryDy=0;" parent="1" source="JFCtVrj-zI766jc3Ud4v-12" target="JFCtVrj-zI766jc3Ud4v-16" edge="1">
          <mxGeometry relative="1" as="geometry" />
        </mxCell>
        <mxCell id="JFCtVrj-zI766jc3Ud4v-12" value="" style="rounded=0;whiteSpace=wrap;html=1;" parent="1" vertex="1">
          <mxGeometry x="1330" y="-362.65" width="120" height="60" as="geometry" />
        </mxCell>
        <mxCell id="JFCtVrj-zI766jc3Ud4v-13" value="" style="endArrow=none;html=1;rounded=0;entryX=0.142;entryY=0.004;entryDx=0;entryDy=0;entryPerimeter=0;exitX=0;exitY=0.25;exitDx=0;exitDy=0;" parent="1" source="JFCtVrj-zI766jc3Ud4v-12" target="JFCtVrj-zI766jc3Ud4v-12" edge="1">
          <mxGeometry width="50" height="50" relative="1" as="geometry">
            <mxPoint x="1370" y="-302.65" as="sourcePoint" />
            <mxPoint x="1420" y="-352.65" as="targetPoint" />
          </mxGeometry>
        </mxCell>
        <mxCell id="JFCtVrj-zI766jc3Ud4v-14" value="Полученная запись заказа" style="text;html=1;align=center;verticalAlign=middle;whiteSpace=wrap;rounded=0;" parent="1" vertex="1">
          <mxGeometry x="1350" y="-347.65" width="80" height="30" as="geometry" />
        </mxCell>
        <mxCell id="JFCtVrj-zI766jc3Ud4v-15" style="edgeStyle=orthogonalEdgeStyle;rounded=0;orthogonalLoop=1;jettySize=auto;html=1;entryX=0;entryY=0.5;entryDx=0;entryDy=0;" parent="1" source="JFCtVrj-zI766jc3Ud4v-16" target="tI2qVK5K96pvlCMNdgVa-47" edge="1">
          <mxGeometry relative="1" as="geometry">
            <mxPoint x="1590" y="-106.65" as="targetPoint" />
          </mxGeometry>
        </mxCell>
        <mxCell id="JFCtVrj-zI766jc3Ud4v-16" value="" style="rounded=0;whiteSpace=wrap;html=1;" parent="1" vertex="1">
          <mxGeometry x="1330" y="-136.65" width="120" height="60" as="geometry" />
        </mxCell>
        <mxCell id="JFCtVrj-zI766jc3Ud4v-17" value="" style="endArrow=none;html=1;rounded=0;exitX=0;exitY=0.75;exitDx=0;exitDy=0;entryX=1;entryY=0.75;entryDx=0;entryDy=0;" parent="1" source="JFCtVrj-zI766jc3Ud4v-16" target="JFCtVrj-zI766jc3Ud4v-16" edge="1">
          <mxGeometry width="50" height="50" relative="1" as="geometry">
            <mxPoint x="1430" y="-66.65" as="sourcePoint" />
            <mxPoint x="1480" y="-116.65" as="targetPoint" />
          </mxGeometry>
        </mxCell>
        <mxCell id="JFCtVrj-zI766jc3Ud4v-18" value="" style="endArrow=none;html=1;rounded=0;" parent="1" edge="1">
          <mxGeometry width="50" height="50" relative="1" as="geometry">
            <mxPoint x="1387.8899999999999" y="-76.65" as="sourcePoint" />
            <mxPoint x="1387.8899999999999" y="-91.65" as="targetPoint" />
          </mxGeometry>
        </mxCell>
        <mxCell id="JFCtVrj-zI766jc3Ud4v-19" value="" style="endArrow=none;html=1;rounded=0;entryX=0.142;entryY=0.004;entryDx=0;entryDy=0;entryPerimeter=0;exitX=0;exitY=0.25;exitDx=0;exitDy=0;" parent="1" source="JFCtVrj-zI766jc3Ud4v-16" target="JFCtVrj-zI766jc3Ud4v-16" edge="1">
          <mxGeometry width="50" height="50" relative="1" as="geometry">
            <mxPoint x="1370" y="-76.65" as="sourcePoint" />
            <mxPoint x="1420" y="-126.65" as="targetPoint" />
          </mxGeometry>
        </mxCell>
        <mxCell id="JFCtVrj-zI766jc3Ud4v-20" value="Выбор способа оплаты" style="text;html=1;align=center;verticalAlign=middle;whiteSpace=wrap;rounded=0;" parent="1" vertex="1">
          <mxGeometry x="1334.5" y="-126.65" width="111" height="30" as="geometry" />
        </mxCell>
        <mxCell id="JFCtVrj-zI766jc3Ud4v-21" value="4.1" style="text;html=1;align=center;verticalAlign=middle;whiteSpace=wrap;rounded=0;" parent="1" vertex="1">
          <mxGeometry x="1350" y="-89.29999999999998" width="20" height="10" as="geometry" />
        </mxCell>
        <mxCell id="JFCtVrj-zI766jc3Ud4v-23" value="" style="rounded=0;whiteSpace=wrap;html=1;" parent="1" vertex="1">
          <mxGeometry x="2273.75" y="-232.65" width="120" height="60" as="geometry" />
        </mxCell>
        <mxCell id="JFCtVrj-zI766jc3Ud4v-24" value="" style="endArrow=none;html=1;rounded=0;exitX=0;exitY=0.75;exitDx=0;exitDy=0;entryX=1;entryY=0.75;entryDx=0;entryDy=0;" parent="1" source="JFCtVrj-zI766jc3Ud4v-23" target="JFCtVrj-zI766jc3Ud4v-23" edge="1">
          <mxGeometry width="50" height="50" relative="1" as="geometry">
            <mxPoint x="2373.75" y="-162.65" as="sourcePoint" />
            <mxPoint x="2423.75" y="-212.65" as="targetPoint" />
          </mxGeometry>
        </mxCell>
        <mxCell id="JFCtVrj-zI766jc3Ud4v-25" value="" style="endArrow=none;html=1;rounded=0;" parent="1" edge="1">
          <mxGeometry width="50" height="50" relative="1" as="geometry">
            <mxPoint x="2331.64" y="-172.65" as="sourcePoint" />
            <mxPoint x="2331.64" y="-187.65" as="targetPoint" />
          </mxGeometry>
        </mxCell>
        <mxCell id="JFCtVrj-zI766jc3Ud4v-26" value="" style="endArrow=none;html=1;rounded=0;entryX=0.142;entryY=0.004;entryDx=0;entryDy=0;entryPerimeter=0;exitX=0;exitY=0.25;exitDx=0;exitDy=0;" parent="1" source="JFCtVrj-zI766jc3Ud4v-23" target="JFCtVrj-zI766jc3Ud4v-23" edge="1">
          <mxGeometry width="50" height="50" relative="1" as="geometry">
            <mxPoint x="2313.75" y="-172.65" as="sourcePoint" />
            <mxPoint x="2363.75" y="-222.65" as="targetPoint" />
          </mxGeometry>
        </mxCell>
        <mxCell id="JFCtVrj-zI766jc3Ud4v-27" value="4.6" style="text;html=1;align=center;verticalAlign=middle;whiteSpace=wrap;rounded=0;" parent="1" vertex="1">
          <mxGeometry x="2293.75" y="-185.29999999999998" width="20" height="10" as="geometry" />
        </mxCell>
        <mxCell id="JFCtVrj-zI766jc3Ud4v-101" style="edgeStyle=orthogonalEdgeStyle;rounded=0;orthogonalLoop=1;jettySize=auto;html=1;entryX=0;entryY=0.5;entryDx=0;entryDy=0;" parent="1" source="JFCtVrj-zI766jc3Ud4v-36" target="JFCtVrj-zI766jc3Ud4v-96" edge="1">
          <mxGeometry relative="1" as="geometry" />
        </mxCell>
        <mxCell id="JFCtVrj-zI766jc3Ud4v-36" value="" style="rounded=0;whiteSpace=wrap;html=1;" parent="1" vertex="1">
          <mxGeometry x="2275.5" y="-45.300000000000004" width="120" height="60" as="geometry" />
        </mxCell>
        <mxCell id="JFCtVrj-zI766jc3Ud4v-37" value="" style="endArrow=none;html=1;rounded=0;exitX=0;exitY=0.75;exitDx=0;exitDy=0;entryX=1;entryY=0.75;entryDx=0;entryDy=0;" parent="1" source="JFCtVrj-zI766jc3Ud4v-36" target="JFCtVrj-zI766jc3Ud4v-36" edge="1">
          <mxGeometry width="50" height="50" relative="1" as="geometry">
            <mxPoint x="2375.5" y="24.699999999999996" as="sourcePoint" />
            <mxPoint x="2425.5" y="-25.300000000000004" as="targetPoint" />
          </mxGeometry>
        </mxCell>
        <mxCell id="JFCtVrj-zI766jc3Ud4v-38" value="" style="endArrow=none;html=1;rounded=0;" parent="1" edge="1">
          <mxGeometry width="50" height="50" relative="1" as="geometry">
            <mxPoint x="2333.39" y="14.699999999999994" as="sourcePoint" />
            <mxPoint x="2333.39" y="-0.30000000000000604" as="targetPoint" />
          </mxGeometry>
        </mxCell>
        <mxCell id="JFCtVrj-zI766jc3Ud4v-39" value="" style="endArrow=none;html=1;rounded=0;entryX=0.142;entryY=0.004;entryDx=0;entryDy=0;entryPerimeter=0;exitX=0;exitY=0.25;exitDx=0;exitDy=0;" parent="1" source="JFCtVrj-zI766jc3Ud4v-36" target="JFCtVrj-zI766jc3Ud4v-36" edge="1">
          <mxGeometry width="50" height="50" relative="1" as="geometry">
            <mxPoint x="2315.5" y="14.699999999999994" as="sourcePoint" />
            <mxPoint x="2365.5" y="-35.300000000000004" as="targetPoint" />
          </mxGeometry>
        </mxCell>
        <mxCell id="JFCtVrj-zI766jc3Ud4v-40" value="Обработка транзакции и подтверждение" style="text;html=1;align=center;verticalAlign=middle;whiteSpace=wrap;rounded=0;" parent="1" vertex="1">
          <mxGeometry x="2273.75" y="-232" width="123" height="44.7" as="geometry" />
        </mxCell>
        <mxCell id="JFCtVrj-zI766jc3Ud4v-41" value="4.8" style="text;html=1;align=center;verticalAlign=middle;whiteSpace=wrap;rounded=0;" parent="1" vertex="1">
          <mxGeometry x="2295.5" y="2.0500000000000167" width="20" height="10" as="geometry" />
        </mxCell>
        <mxCell id="JFCtVrj-zI766jc3Ud4v-43" style="edgeStyle=orthogonalEdgeStyle;rounded=0;orthogonalLoop=1;jettySize=auto;html=1;entryX=0;entryY=0.5;entryDx=0;entryDy=0;exitX=0.5;exitY=0;exitDx=0;exitDy=0;" parent="1" source="JFCtVrj-zI766jc3Ud4v-45" target="JFCtVrj-zI766jc3Ud4v-23" edge="1">
          <mxGeometry relative="1" as="geometry" />
        </mxCell>
        <mxCell id="JFCtVrj-zI766jc3Ud4v-44" style="edgeStyle=orthogonalEdgeStyle;rounded=0;orthogonalLoop=1;jettySize=auto;html=1;entryX=0;entryY=0.5;entryDx=0;entryDy=0;exitX=0.5;exitY=1;exitDx=0;exitDy=0;" parent="1" source="JFCtVrj-zI766jc3Ud4v-45" target="JFCtVrj-zI766jc3Ud4v-36" edge="1">
          <mxGeometry relative="1" as="geometry" />
        </mxCell>
        <mxCell id="JFCtVrj-zI766jc3Ud4v-45" value="" style="rounded=0;whiteSpace=wrap;html=1;" parent="1" vertex="1">
          <mxGeometry x="2171" y="-123.9" width="51" height="35" as="geometry" />
        </mxCell>
        <mxCell id="JFCtVrj-zI766jc3Ud4v-56" value="" style="endArrow=none;html=1;rounded=0;entryX=0.25;entryY=0;entryDx=0;entryDy=0;exitX=0.25;exitY=1;exitDx=0;exitDy=0;" parent="1" edge="1">
          <mxGeometry width="50" height="50" relative="1" as="geometry">
            <mxPoint x="2182" y="-89.4" as="sourcePoint" />
            <mxPoint x="2182" y="-124.4" as="targetPoint" />
          </mxGeometry>
        </mxCell>
        <mxCell id="JFCtVrj-zI766jc3Ud4v-57" value="&amp;amp;" style="text;html=1;align=center;verticalAlign=middle;whiteSpace=wrap;rounded=0;" parent="1" vertex="1">
          <mxGeometry x="2192.5" y="-111.65" width="10" height="10" as="geometry" />
        </mxCell>
        <mxCell id="JFCtVrj-zI766jc3Ud4v-58" value="Заказанный товар" style="text;html=1;align=center;verticalAlign=middle;whiteSpace=wrap;rounded=0;" parent="1" vertex="1">
          <mxGeometry x="2278.24" y="-35.3" width="111" height="25" as="geometry" />
        </mxCell>
        <mxCell id="JFCtVrj-zI766jc3Ud4v-64" value="" style="rounded=0;whiteSpace=wrap;html=1;" parent="1" vertex="1">
          <mxGeometry x="1850" y="-136.4" width="120" height="60" as="geometry" />
        </mxCell>
        <mxCell id="JFCtVrj-zI766jc3Ud4v-65" value="" style="endArrow=none;html=1;rounded=0;exitX=0;exitY=0.75;exitDx=0;exitDy=0;entryX=1;entryY=0.75;entryDx=0;entryDy=0;" parent="1" source="JFCtVrj-zI766jc3Ud4v-64" target="JFCtVrj-zI766jc3Ud4v-64" edge="1">
          <mxGeometry width="50" height="50" relative="1" as="geometry">
            <mxPoint x="1950" y="-66.4" as="sourcePoint" />
            <mxPoint x="2000" y="-116.4" as="targetPoint" />
          </mxGeometry>
        </mxCell>
        <mxCell id="JFCtVrj-zI766jc3Ud4v-66" value="" style="endArrow=none;html=1;rounded=0;" parent="1" edge="1">
          <mxGeometry width="50" height="50" relative="1" as="geometry">
            <mxPoint x="1907.8899999999999" y="-76.4" as="sourcePoint" />
            <mxPoint x="1907.8899999999999" y="-91.4" as="targetPoint" />
          </mxGeometry>
        </mxCell>
        <mxCell id="JFCtVrj-zI766jc3Ud4v-67" value="" style="endArrow=none;html=1;rounded=0;entryX=0.142;entryY=0.004;entryDx=0;entryDy=0;entryPerimeter=0;exitX=0;exitY=0.25;exitDx=0;exitDy=0;" parent="1" source="JFCtVrj-zI766jc3Ud4v-64" target="JFCtVrj-zI766jc3Ud4v-64" edge="1">
          <mxGeometry width="50" height="50" relative="1" as="geometry">
            <mxPoint x="1890" y="-76.4" as="sourcePoint" />
            <mxPoint x="1940" y="-126.4" as="targetPoint" />
          </mxGeometry>
        </mxCell>
        <mxCell id="JFCtVrj-zI766jc3Ud4v-68" value="Валидация данных и проверка средств" style="text;html=1;align=center;verticalAlign=middle;whiteSpace=wrap;rounded=0;" parent="1" vertex="1">
          <mxGeometry x="1854.5" y="-126.4" width="111" height="30" as="geometry" />
        </mxCell>
        <mxCell id="JFCtVrj-zI766jc3Ud4v-69" value="2.1" style="text;html=1;align=center;verticalAlign=middle;whiteSpace=wrap;rounded=0;" parent="1" vertex="1">
          <mxGeometry x="1870" y="-89.04999999999998" width="20" height="10" as="geometry" />
        </mxCell>
        <mxCell id="JFCtVrj-zI766jc3Ud4v-70" style="edgeStyle=orthogonalEdgeStyle;rounded=0;orthogonalLoop=1;jettySize=auto;html=1;entryX=0;entryY=0.5;entryDx=0;entryDy=0;" parent="1" source="JFCtVrj-zI766jc3Ud4v-71" target="JFCtVrj-zI766jc3Ud4v-78" edge="1">
          <mxGeometry relative="1" as="geometry">
            <mxPoint x="2010" y="-106.4" as="targetPoint" />
          </mxGeometry>
        </mxCell>
        <mxCell id="JFCtVrj-zI766jc3Ud4v-71" value="" style="rounded=0;whiteSpace=wrap;html=1;" parent="1" vertex="1">
          <mxGeometry x="1850" y="-136.4" width="120" height="60" as="geometry" />
        </mxCell>
        <mxCell id="JFCtVrj-zI766jc3Ud4v-72" value="" style="endArrow=none;html=1;rounded=0;exitX=0;exitY=0.75;exitDx=0;exitDy=0;entryX=1;entryY=0.75;entryDx=0;entryDy=0;" parent="1" source="JFCtVrj-zI766jc3Ud4v-71" target="JFCtVrj-zI766jc3Ud4v-71" edge="1">
          <mxGeometry width="50" height="50" relative="1" as="geometry">
            <mxPoint x="1950" y="-66.4" as="sourcePoint" />
            <mxPoint x="2000" y="-116.4" as="targetPoint" />
          </mxGeometry>
        </mxCell>
        <mxCell id="JFCtVrj-zI766jc3Ud4v-73" value="" style="endArrow=none;html=1;rounded=0;" parent="1" edge="1">
          <mxGeometry width="50" height="50" relative="1" as="geometry">
            <mxPoint x="1907.8899999999999" y="-76.4" as="sourcePoint" />
            <mxPoint x="1907.8899999999999" y="-91.4" as="targetPoint" />
          </mxGeometry>
        </mxCell>
        <mxCell id="JFCtVrj-zI766jc3Ud4v-74" value="" style="endArrow=none;html=1;rounded=0;entryX=0.142;entryY=0.004;entryDx=0;entryDy=0;entryPerimeter=0;exitX=0;exitY=0.25;exitDx=0;exitDy=0;" parent="1" source="JFCtVrj-zI766jc3Ud4v-71" target="JFCtVrj-zI766jc3Ud4v-71" edge="1">
          <mxGeometry width="50" height="50" relative="1" as="geometry">
            <mxPoint x="1890" y="-76.4" as="sourcePoint" />
            <mxPoint x="1940" y="-126.4" as="targetPoint" />
          </mxGeometry>
        </mxCell>
        <mxCell id="JFCtVrj-zI766jc3Ud4v-75" value="Валидация данных и проверка средств" style="text;html=1;align=center;verticalAlign=middle;whiteSpace=wrap;rounded=0;" parent="1" vertex="1">
          <mxGeometry x="1854.5" y="-126.4" width="111" height="30" as="geometry" />
        </mxCell>
        <mxCell id="JFCtVrj-zI766jc3Ud4v-76" value="4.4" style="text;html=1;align=center;verticalAlign=middle;whiteSpace=wrap;rounded=0;" parent="1" vertex="1">
          <mxGeometry x="1870" y="-89.04999999999998" width="20" height="10" as="geometry" />
        </mxCell>
        <mxCell id="JFCtVrj-zI766jc3Ud4v-92" style="edgeStyle=orthogonalEdgeStyle;rounded=0;orthogonalLoop=1;jettySize=auto;html=1;entryX=0;entryY=0.5;entryDx=0;entryDy=0;" parent="1" source="JFCtVrj-zI766jc3Ud4v-78" target="JFCtVrj-zI766jc3Ud4v-45" edge="1">
          <mxGeometry relative="1" as="geometry" />
        </mxCell>
        <mxCell id="JFCtVrj-zI766jc3Ud4v-78" value="" style="rounded=0;whiteSpace=wrap;html=1;" parent="1" vertex="1">
          <mxGeometry x="2012.5" y="-136.25" width="120" height="60" as="geometry" />
        </mxCell>
        <mxCell id="JFCtVrj-zI766jc3Ud4v-79" value="" style="endArrow=none;html=1;rounded=0;exitX=0;exitY=0.75;exitDx=0;exitDy=0;entryX=1;entryY=0.75;entryDx=0;entryDy=0;" parent="1" source="JFCtVrj-zI766jc3Ud4v-78" target="JFCtVrj-zI766jc3Ud4v-78" edge="1">
          <mxGeometry width="50" height="50" relative="1" as="geometry">
            <mxPoint x="2112.5" y="-66.25" as="sourcePoint" />
            <mxPoint x="2162.5" y="-116.25" as="targetPoint" />
          </mxGeometry>
        </mxCell>
        <mxCell id="JFCtVrj-zI766jc3Ud4v-80" value="" style="endArrow=none;html=1;rounded=0;" parent="1" edge="1">
          <mxGeometry width="50" height="50" relative="1" as="geometry">
            <mxPoint x="2070.39" y="-76.25" as="sourcePoint" />
            <mxPoint x="2070.39" y="-91.25" as="targetPoint" />
          </mxGeometry>
        </mxCell>
        <mxCell id="JFCtVrj-zI766jc3Ud4v-81" value="" style="endArrow=none;html=1;rounded=0;entryX=0.142;entryY=0.004;entryDx=0;entryDy=0;entryPerimeter=0;exitX=0;exitY=0.25;exitDx=0;exitDy=0;" parent="1" source="JFCtVrj-zI766jc3Ud4v-78" target="JFCtVrj-zI766jc3Ud4v-78" edge="1">
          <mxGeometry width="50" height="50" relative="1" as="geometry">
            <mxPoint x="2052.5" y="-76.25" as="sourcePoint" />
            <mxPoint x="2102.5" y="-126.25" as="targetPoint" />
          </mxGeometry>
        </mxCell>
        <mxCell id="JFCtVrj-zI766jc3Ud4v-82" value="Авторизация платежа" style="text;html=1;align=center;verticalAlign=middle;whiteSpace=wrap;rounded=0;" parent="1" vertex="1">
          <mxGeometry x="2030.5" y="-126.4" width="84" height="30" as="geometry" />
        </mxCell>
        <mxCell id="JFCtVrj-zI766jc3Ud4v-83" value="4.5" style="text;html=1;align=center;verticalAlign=middle;whiteSpace=wrap;rounded=0;" parent="1" vertex="1">
          <mxGeometry x="2032.5" y="-88.89999999999998" width="20" height="10" as="geometry" />
        </mxCell>
        <mxCell id="JFCtVrj-zI766jc3Ud4v-90" style="edgeStyle=orthogonalEdgeStyle;rounded=0;orthogonalLoop=1;jettySize=auto;html=1;entryX=0.5;entryY=0;entryDx=0;entryDy=0;" parent="1" source="JFCtVrj-zI766jc3Ud4v-87" target="JFCtVrj-zI766jc3Ud4v-78" edge="1">
          <mxGeometry relative="1" as="geometry" />
        </mxCell>
        <mxCell id="JFCtVrj-zI766jc3Ud4v-87" value="" style="rounded=0;whiteSpace=wrap;html=1;" parent="1" vertex="1">
          <mxGeometry x="2012.5" y="-362.65" width="120" height="60" as="geometry" />
        </mxCell>
        <mxCell id="JFCtVrj-zI766jc3Ud4v-88" value="" style="endArrow=none;html=1;rounded=0;entryX=0.142;entryY=0.004;entryDx=0;entryDy=0;entryPerimeter=0;exitX=0;exitY=0.25;exitDx=0;exitDy=0;" parent="1" source="JFCtVrj-zI766jc3Ud4v-87" target="JFCtVrj-zI766jc3Ud4v-87" edge="1">
          <mxGeometry width="50" height="50" relative="1" as="geometry">
            <mxPoint x="2052.5" y="-302.65" as="sourcePoint" />
            <mxPoint x="2102.5" y="-352.65" as="targetPoint" />
          </mxGeometry>
        </mxCell>
        <mxCell id="JFCtVrj-zI766jc3Ud4v-89" value="Платёжные системы" style="text;html=1;align=center;verticalAlign=middle;whiteSpace=wrap;rounded=0;" parent="1" vertex="1">
          <mxGeometry x="2032.5" y="-347.65" width="80" height="30" as="geometry" />
        </mxCell>
        <mxCell id="JFCtVrj-zI766jc3Ud4v-114" style="edgeStyle=orthogonalEdgeStyle;rounded=0;orthogonalLoop=1;jettySize=auto;html=1;entryX=-0.005;entryY=0.595;entryDx=0;entryDy=0;exitX=0.5;exitY=0;exitDx=0;exitDy=0;entryPerimeter=0;" parent="1" source="JFCtVrj-zI766jc3Ud4v-96" target="JFCtVrj-zI766jc3Ud4v-107" edge="1">
          <mxGeometry relative="1" as="geometry" />
        </mxCell>
        <mxCell id="JFCtVrj-zI766jc3Ud4v-115" style="edgeStyle=orthogonalEdgeStyle;rounded=0;orthogonalLoop=1;jettySize=auto;html=1;entryX=0;entryY=0.642;entryDx=0;entryDy=0;entryPerimeter=0;exitX=0.5;exitY=1;exitDx=0;exitDy=0;" parent="1" source="JFCtVrj-zI766jc3Ud4v-96" target="JFCtVrj-zI766jc3Ud4v-113" edge="1">
          <mxGeometry relative="1" as="geometry" />
        </mxCell>
        <mxCell id="JFCtVrj-zI766jc3Ud4v-96" value="" style="rounded=0;whiteSpace=wrap;html=1;" parent="1" vertex="1">
          <mxGeometry x="2431" y="-32.150000000000006" width="51" height="35" as="geometry" />
        </mxCell>
        <mxCell id="JFCtVrj-zI766jc3Ud4v-97" value="" style="endArrow=none;html=1;rounded=0;entryX=0.25;entryY=0;entryDx=0;entryDy=0;exitX=0.25;exitY=1;exitDx=0;exitDy=0;" parent="1" edge="1">
          <mxGeometry width="50" height="50" relative="1" as="geometry">
            <mxPoint x="2442" y="2.3499999999999943" as="sourcePoint" />
            <mxPoint x="2442" y="-32.650000000000006" as="targetPoint" />
          </mxGeometry>
        </mxCell>
        <mxCell id="JFCtVrj-zI766jc3Ud4v-98" value="&amp;amp;" style="text;html=1;align=center;verticalAlign=middle;whiteSpace=wrap;rounded=0;" parent="1" vertex="1">
          <mxGeometry x="2452.5" y="-19.900000000000006" width="10" height="10" as="geometry" />
        </mxCell>
        <mxCell id="JFCtVrj-zI766jc3Ud4v-102" value="" style="rounded=0;whiteSpace=wrap;html=1;" parent="1" vertex="1">
          <mxGeometry x="2531" y="-129" width="120" height="60" as="geometry" />
        </mxCell>
        <mxCell id="JFCtVrj-zI766jc3Ud4v-103" value="" style="endArrow=none;html=1;rounded=0;exitX=0;exitY=0.75;exitDx=0;exitDy=0;entryX=1;entryY=0.75;entryDx=0;entryDy=0;" parent="1" source="JFCtVrj-zI766jc3Ud4v-102" target="JFCtVrj-zI766jc3Ud4v-102" edge="1">
          <mxGeometry width="50" height="50" relative="1" as="geometry">
            <mxPoint x="2631" y="-59" as="sourcePoint" />
            <mxPoint x="2681" y="-109" as="targetPoint" />
          </mxGeometry>
        </mxCell>
        <mxCell id="JFCtVrj-zI766jc3Ud4v-104" value="" style="endArrow=none;html=1;rounded=0;" parent="1" edge="1">
          <mxGeometry width="50" height="50" relative="1" as="geometry">
            <mxPoint x="2588.89" y="-69" as="sourcePoint" />
            <mxPoint x="2588.89" y="-84" as="targetPoint" />
          </mxGeometry>
        </mxCell>
        <mxCell id="JFCtVrj-zI766jc3Ud4v-105" value="" style="endArrow=none;html=1;rounded=0;entryX=0.142;entryY=0.004;entryDx=0;entryDy=0;entryPerimeter=0;exitX=0;exitY=0.25;exitDx=0;exitDy=0;" parent="1" source="JFCtVrj-zI766jc3Ud4v-102" target="JFCtVrj-zI766jc3Ud4v-102" edge="1">
          <mxGeometry width="50" height="50" relative="1" as="geometry">
            <mxPoint x="2571" y="-69" as="sourcePoint" />
            <mxPoint x="2621" y="-119" as="targetPoint" />
          </mxGeometry>
        </mxCell>
        <mxCell id="JFCtVrj-zI766jc3Ud4v-106" value="4.9" style="text;html=1;align=center;verticalAlign=middle;whiteSpace=wrap;rounded=0;" parent="1" vertex="1">
          <mxGeometry x="2551" y="-81.64999999999998" width="20" height="10" as="geometry" />
        </mxCell>
        <mxCell id="JFCtVrj-zI766jc3Ud4v-107" value="Обновление статуса заказа" style="text;html=1;align=center;verticalAlign=middle;whiteSpace=wrap;rounded=0;" parent="1" vertex="1">
          <mxGeometry x="2531" y="-128.35" width="123" height="44.7" as="geometry" />
        </mxCell>
        <mxCell id="JFCtVrj-zI766jc3Ud4v-108" value="" style="rounded=0;whiteSpace=wrap;html=1;" parent="1" vertex="1">
          <mxGeometry x="2531" y="12.050000000000011" width="120" height="60" as="geometry" />
        </mxCell>
        <mxCell id="JFCtVrj-zI766jc3Ud4v-109" value="" style="endArrow=none;html=1;rounded=0;exitX=0;exitY=0.75;exitDx=0;exitDy=0;entryX=1;entryY=0.75;entryDx=0;entryDy=0;" parent="1" source="JFCtVrj-zI766jc3Ud4v-108" target="JFCtVrj-zI766jc3Ud4v-108" edge="1">
          <mxGeometry width="50" height="50" relative="1" as="geometry">
            <mxPoint x="2631" y="82.05000000000001" as="sourcePoint" />
            <mxPoint x="2681" y="32.05000000000001" as="targetPoint" />
          </mxGeometry>
        </mxCell>
        <mxCell id="JFCtVrj-zI766jc3Ud4v-110" value="" style="endArrow=none;html=1;rounded=0;" parent="1" edge="1">
          <mxGeometry width="50" height="50" relative="1" as="geometry">
            <mxPoint x="2588.89" y="72.05000000000001" as="sourcePoint" />
            <mxPoint x="2588.89" y="57.05000000000001" as="targetPoint" />
          </mxGeometry>
        </mxCell>
        <mxCell id="JFCtVrj-zI766jc3Ud4v-111" value="" style="endArrow=none;html=1;rounded=0;entryX=0.142;entryY=0.004;entryDx=0;entryDy=0;entryPerimeter=0;exitX=0;exitY=0.25;exitDx=0;exitDy=0;" parent="1" source="JFCtVrj-zI766jc3Ud4v-108" target="JFCtVrj-zI766jc3Ud4v-108" edge="1">
          <mxGeometry width="50" height="50" relative="1" as="geometry">
            <mxPoint x="2571" y="72.05000000000001" as="sourcePoint" />
            <mxPoint x="2621" y="22.05000000000001" as="targetPoint" />
          </mxGeometry>
        </mxCell>
        <mxCell id="JFCtVrj-zI766jc3Ud4v-112" value="4.10" style="text;html=1;align=center;verticalAlign=middle;whiteSpace=wrap;rounded=0;" parent="1" vertex="1">
          <mxGeometry x="2551" y="59.400000000000034" width="20" height="10" as="geometry" />
        </mxCell>
        <mxCell id="JFCtVrj-zI766jc3Ud4v-113" value="Интеграция со складом" style="text;html=1;align=center;verticalAlign=middle;whiteSpace=wrap;rounded=0;" parent="1" vertex="1">
          <mxGeometry x="2531" y="12.700000000000017" width="123" height="44.7" as="geometry" />
        </mxCell>
        <mxCell id="JFCtVrj-zI766jc3Ud4v-116" value="&amp;amp;" style="text;html=1;align=center;verticalAlign=middle;whiteSpace=wrap;rounded=0;" parent="1" vertex="1">
          <mxGeometry x="1109" y="-99.65" width="10" height="10" as="geometry" />
        </mxCell>
        <mxCell id="JFCtVrj-zI766jc3Ud4v-126" style="edgeStyle=orthogonalEdgeStyle;rounded=0;orthogonalLoop=1;jettySize=auto;html=1;entryX=0;entryY=0.5;entryDx=0;entryDy=0;" parent="1" source="JFCtVrj-zI766jc3Ud4v-118" target="buGXm4uaibGnN2zzedQZ-9" edge="1">
          <mxGeometry relative="1" as="geometry" />
        </mxCell>
        <mxCell id="JFCtVrj-zI766jc3Ud4v-118" value="" style="rounded=0;whiteSpace=wrap;html=1;" parent="1" vertex="1">
          <mxGeometry x="721.62" y="-1010" width="120" height="60" as="geometry" />
        </mxCell>
        <mxCell id="JFCtVrj-zI766jc3Ud4v-119" value="" style="endArrow=none;html=1;rounded=0;exitX=0;exitY=0.75;exitDx=0;exitDy=0;entryX=1;entryY=0.75;entryDx=0;entryDy=0;" parent="1" source="JFCtVrj-zI766jc3Ud4v-118" target="JFCtVrj-zI766jc3Ud4v-118" edge="1">
          <mxGeometry width="50" height="50" relative="1" as="geometry">
            <mxPoint x="821.62" y="-940" as="sourcePoint" />
            <mxPoint x="871.62" y="-990" as="targetPoint" />
          </mxGeometry>
        </mxCell>
        <mxCell id="JFCtVrj-zI766jc3Ud4v-120" value="" style="endArrow=none;html=1;rounded=0;" parent="1" edge="1">
          <mxGeometry width="50" height="50" relative="1" as="geometry">
            <mxPoint x="779.51" y="-950" as="sourcePoint" />
            <mxPoint x="779.51" y="-965" as="targetPoint" />
          </mxGeometry>
        </mxCell>
        <mxCell id="JFCtVrj-zI766jc3Ud4v-121" value="" style="endArrow=none;html=1;rounded=0;entryX=0.142;entryY=0.004;entryDx=0;entryDy=0;entryPerimeter=0;exitX=0;exitY=0.25;exitDx=0;exitDy=0;" parent="1" source="JFCtVrj-zI766jc3Ud4v-118" target="JFCtVrj-zI766jc3Ud4v-118" edge="1">
          <mxGeometry width="50" height="50" relative="1" as="geometry">
            <mxPoint x="761.62" y="-950" as="sourcePoint" />
            <mxPoint x="811.62" y="-1000" as="targetPoint" />
          </mxGeometry>
        </mxCell>
        <mxCell id="JFCtVrj-zI766jc3Ud4v-122" value="Определение роли" style="text;html=1;align=center;verticalAlign=middle;whiteSpace=wrap;rounded=0;" parent="1" vertex="1">
          <mxGeometry x="731.62" y="-1000" width="100" height="30" as="geometry" />
        </mxCell>
        <mxCell id="JFCtVrj-zI766jc3Ud4v-123" value="1.5" style="text;html=1;align=center;verticalAlign=middle;whiteSpace=wrap;rounded=0;" parent="1" vertex="1">
          <mxGeometry x="741.62" y="-962.5" width="20" height="10" as="geometry" />
        </mxCell>
        <mxCell id="tI2qVK5K96pvlCMNdgVa-1" value="X" style="text;html=1;align=center;verticalAlign=middle;whiteSpace=wrap;rounded=0;" parent="1" vertex="1">
          <mxGeometry x="913.24" y="-990" width="11" height="20" as="geometry" />
        </mxCell>
        <mxCell id="tI2qVK5K96pvlCMNdgVa-15" style="edgeStyle=orthogonalEdgeStyle;rounded=0;orthogonalLoop=1;jettySize=auto;html=1;entryX=0;entryY=0.5;entryDx=0;entryDy=0;" parent="1" source="tI2qVK5K96pvlCMNdgVa-9" target="JFCtVrj-zI766jc3Ud4v-118" edge="1">
          <mxGeometry relative="1" as="geometry" />
        </mxCell>
        <mxCell id="tI2qVK5K96pvlCMNdgVa-9" value="" style="rounded=0;whiteSpace=wrap;html=1;" parent="1" vertex="1">
          <mxGeometry x="540" y="-1010" width="120" height="60" as="geometry" />
        </mxCell>
        <mxCell id="tI2qVK5K96pvlCMNdgVa-10" value="" style="endArrow=none;html=1;rounded=0;exitX=0;exitY=0.75;exitDx=0;exitDy=0;entryX=1;entryY=0.75;entryDx=0;entryDy=0;" parent="1" source="tI2qVK5K96pvlCMNdgVa-9" target="tI2qVK5K96pvlCMNdgVa-9" edge="1">
          <mxGeometry width="50" height="50" relative="1" as="geometry">
            <mxPoint x="640" y="-940" as="sourcePoint" />
            <mxPoint x="690" y="-990" as="targetPoint" />
          </mxGeometry>
        </mxCell>
        <mxCell id="tI2qVK5K96pvlCMNdgVa-11" value="" style="endArrow=none;html=1;rounded=0;" parent="1" edge="1">
          <mxGeometry width="50" height="50" relative="1" as="geometry">
            <mxPoint x="597.89" y="-950" as="sourcePoint" />
            <mxPoint x="597.89" y="-965" as="targetPoint" />
          </mxGeometry>
        </mxCell>
        <mxCell id="tI2qVK5K96pvlCMNdgVa-12" value="" style="endArrow=none;html=1;rounded=0;entryX=0.142;entryY=0.004;entryDx=0;entryDy=0;entryPerimeter=0;exitX=0;exitY=0.25;exitDx=0;exitDy=0;" parent="1" source="tI2qVK5K96pvlCMNdgVa-9" target="tI2qVK5K96pvlCMNdgVa-9" edge="1">
          <mxGeometry width="50" height="50" relative="1" as="geometry">
            <mxPoint x="580" y="-950" as="sourcePoint" />
            <mxPoint x="630" y="-1000" as="targetPoint" />
          </mxGeometry>
        </mxCell>
        <mxCell id="tI2qVK5K96pvlCMNdgVa-13" value="Валидация введённых данных" style="text;html=1;align=center;verticalAlign=middle;whiteSpace=wrap;rounded=0;" parent="1" vertex="1">
          <mxGeometry x="544.19" y="-1000" width="111.62" height="30" as="geometry" />
        </mxCell>
        <mxCell id="tI2qVK5K96pvlCMNdgVa-14" value="1.4" style="text;html=1;align=center;verticalAlign=middle;whiteSpace=wrap;rounded=0;" parent="1" vertex="1">
          <mxGeometry x="560" y="-962.5" width="20" height="10" as="geometry" />
        </mxCell>
        <mxCell id="tI2qVK5K96pvlCMNdgVa-36" style="edgeStyle=orthogonalEdgeStyle;rounded=0;orthogonalLoop=1;jettySize=auto;html=1;entryX=0;entryY=0.5;entryDx=0;entryDy=0;exitX=0.5;exitY=1;exitDx=0;exitDy=0;" parent="1" source="tI2qVK5K96pvlCMNdgVa-20" target="tI2qVK5K96pvlCMNdgVa-30" edge="1">
          <mxGeometry relative="1" as="geometry" />
        </mxCell>
        <mxCell id="tI2qVK5K96pvlCMNdgVa-37" style="edgeStyle=orthogonalEdgeStyle;rounded=0;orthogonalLoop=1;jettySize=auto;html=1;entryX=0;entryY=0.5;entryDx=0;entryDy=0;exitX=0.5;exitY=0;exitDx=0;exitDy=0;" parent="1" source="tI2qVK5K96pvlCMNdgVa-20" target="tI2qVK5K96pvlCMNdgVa-24" edge="1">
          <mxGeometry relative="1" as="geometry" />
        </mxCell>
        <mxCell id="tI2qVK5K96pvlCMNdgVa-20" value="" style="rounded=0;whiteSpace=wrap;html=1;" parent="1" vertex="1">
          <mxGeometry x="510" y="-111" width="51" height="35" as="geometry" />
        </mxCell>
        <mxCell id="tI2qVK5K96pvlCMNdgVa-21" value="" style="endArrow=none;html=1;rounded=0;entryX=0.25;entryY=0;entryDx=0;entryDy=0;exitX=0.25;exitY=1;exitDx=0;exitDy=0;" parent="1" edge="1">
          <mxGeometry width="50" height="50" relative="1" as="geometry">
            <mxPoint x="521" y="-76.5" as="sourcePoint" />
            <mxPoint x="521" y="-111.5" as="targetPoint" />
          </mxGeometry>
        </mxCell>
        <mxCell id="tI2qVK5K96pvlCMNdgVa-22" value="О" style="text;html=1;align=center;verticalAlign=middle;whiteSpace=wrap;rounded=0;" parent="1" vertex="1">
          <mxGeometry x="531.5" y="-98.75" width="10" height="10" as="geometry" />
        </mxCell>
        <mxCell id="tI2qVK5K96pvlCMNdgVa-117" style="edgeStyle=orthogonalEdgeStyle;rounded=0;orthogonalLoop=1;jettySize=auto;html=1;entryX=0.5;entryY=0;entryDx=0;entryDy=0;" parent="1" source="tI2qVK5K96pvlCMNdgVa-24" target="tI2qVK5K96pvlCMNdgVa-112" edge="1">
          <mxGeometry relative="1" as="geometry" />
        </mxCell>
        <mxCell id="tI2qVK5K96pvlCMNdgVa-24" value="" style="rounded=0;whiteSpace=wrap;html=1;" parent="1" vertex="1">
          <mxGeometry x="580" y="-220" width="120" height="60" as="geometry" />
        </mxCell>
        <mxCell id="tI2qVK5K96pvlCMNdgVa-25" value="" style="endArrow=none;html=1;rounded=0;exitX=0;exitY=0.75;exitDx=0;exitDy=0;entryX=1;entryY=0.75;entryDx=0;entryDy=0;" parent="1" source="tI2qVK5K96pvlCMNdgVa-24" target="tI2qVK5K96pvlCMNdgVa-24" edge="1">
          <mxGeometry width="50" height="50" relative="1" as="geometry">
            <mxPoint x="680" y="-150" as="sourcePoint" />
            <mxPoint x="730" y="-200" as="targetPoint" />
          </mxGeometry>
        </mxCell>
        <mxCell id="tI2qVK5K96pvlCMNdgVa-26" value="" style="endArrow=none;html=1;rounded=0;" parent="1" edge="1">
          <mxGeometry width="50" height="50" relative="1" as="geometry">
            <mxPoint x="637.89" y="-160" as="sourcePoint" />
            <mxPoint x="637.89" y="-175" as="targetPoint" />
          </mxGeometry>
        </mxCell>
        <mxCell id="tI2qVK5K96pvlCMNdgVa-27" value="" style="endArrow=none;html=1;rounded=0;entryX=0.142;entryY=0.004;entryDx=0;entryDy=0;entryPerimeter=0;exitX=0;exitY=0.25;exitDx=0;exitDy=0;" parent="1" source="tI2qVK5K96pvlCMNdgVa-24" target="tI2qVK5K96pvlCMNdgVa-24" edge="1">
          <mxGeometry width="50" height="50" relative="1" as="geometry">
            <mxPoint x="620" y="-160" as="sourcePoint" />
            <mxPoint x="670" y="-210" as="targetPoint" />
          </mxGeometry>
        </mxCell>
        <mxCell id="tI2qVK5K96pvlCMNdgVa-28" value="3.2" style="text;html=1;align=center;verticalAlign=middle;whiteSpace=wrap;rounded=0;" parent="1" vertex="1">
          <mxGeometry x="600" y="-172.64999999999998" width="20" height="10" as="geometry" />
        </mxCell>
        <mxCell id="tI2qVK5K96pvlCMNdgVa-29" value="Редактирование количества товара" style="text;html=1;align=center;verticalAlign=middle;whiteSpace=wrap;rounded=0;" parent="1" vertex="1">
          <mxGeometry x="582.25" y="-209.65" width="115.5" height="27" as="geometry" />
        </mxCell>
        <mxCell id="tI2qVK5K96pvlCMNdgVa-30" value="" style="rounded=0;whiteSpace=wrap;html=1;" parent="1" vertex="1">
          <mxGeometry x="580" y="-32.650000000000006" width="120" height="60" as="geometry" />
        </mxCell>
        <mxCell id="tI2qVK5K96pvlCMNdgVa-31" value="" style="endArrow=none;html=1;rounded=0;exitX=0;exitY=0.75;exitDx=0;exitDy=0;entryX=1;entryY=0.75;entryDx=0;entryDy=0;" parent="1" source="tI2qVK5K96pvlCMNdgVa-30" target="tI2qVK5K96pvlCMNdgVa-30" edge="1">
          <mxGeometry width="50" height="50" relative="1" as="geometry">
            <mxPoint x="680" y="37.349999999999994" as="sourcePoint" />
            <mxPoint x="730" y="-12.650000000000006" as="targetPoint" />
          </mxGeometry>
        </mxCell>
        <mxCell id="tI2qVK5K96pvlCMNdgVa-32" value="" style="endArrow=none;html=1;rounded=0;" parent="1" edge="1">
          <mxGeometry width="50" height="50" relative="1" as="geometry">
            <mxPoint x="637.89" y="27.349999999999994" as="sourcePoint" />
            <mxPoint x="637.89" y="12.349999999999994" as="targetPoint" />
          </mxGeometry>
        </mxCell>
        <mxCell id="tI2qVK5K96pvlCMNdgVa-33" value="" style="endArrow=none;html=1;rounded=0;entryX=0.142;entryY=0.004;entryDx=0;entryDy=0;entryPerimeter=0;exitX=0;exitY=0.25;exitDx=0;exitDy=0;" parent="1" source="tI2qVK5K96pvlCMNdgVa-30" target="tI2qVK5K96pvlCMNdgVa-30" edge="1">
          <mxGeometry width="50" height="50" relative="1" as="geometry">
            <mxPoint x="620" y="27.349999999999994" as="sourcePoint" />
            <mxPoint x="670" y="-22.650000000000006" as="targetPoint" />
          </mxGeometry>
        </mxCell>
        <mxCell id="tI2qVK5K96pvlCMNdgVa-34" value="3.3" style="text;html=1;align=center;verticalAlign=middle;whiteSpace=wrap;rounded=0;" parent="1" vertex="1">
          <mxGeometry x="600" y="14.700000000000015" width="20" height="10" as="geometry" />
        </mxCell>
        <mxCell id="tI2qVK5K96pvlCMNdgVa-35" value="Удаление товара" style="text;html=1;align=center;verticalAlign=middle;whiteSpace=wrap;rounded=0;" parent="1" vertex="1">
          <mxGeometry x="582.25" y="-22.30000000000001" width="115.5" height="27" as="geometry" />
        </mxCell>
        <mxCell id="tI2qVK5K96pvlCMNdgVa-40" value="" style="rounded=0;whiteSpace=wrap;html=1;" parent="1" vertex="1">
          <mxGeometry x="2462.5" y="-232.65" width="120" height="60" as="geometry" />
        </mxCell>
        <mxCell id="tI2qVK5K96pvlCMNdgVa-41" value="" style="endArrow=none;html=1;rounded=0;exitX=0;exitY=0.75;exitDx=0;exitDy=0;entryX=1;entryY=0.75;entryDx=0;entryDy=0;" parent="1" source="tI2qVK5K96pvlCMNdgVa-40" target="tI2qVK5K96pvlCMNdgVa-40" edge="1">
          <mxGeometry width="50" height="50" relative="1" as="geometry">
            <mxPoint x="2562.5" y="-162.65" as="sourcePoint" />
            <mxPoint x="2612.5" y="-212.65" as="targetPoint" />
          </mxGeometry>
        </mxCell>
        <mxCell id="tI2qVK5K96pvlCMNdgVa-42" value="" style="endArrow=none;html=1;rounded=0;" parent="1" edge="1">
          <mxGeometry width="50" height="50" relative="1" as="geometry">
            <mxPoint x="2520.39" y="-172.65" as="sourcePoint" />
            <mxPoint x="2520.39" y="-187.65" as="targetPoint" />
          </mxGeometry>
        </mxCell>
        <mxCell id="tI2qVK5K96pvlCMNdgVa-43" value="" style="endArrow=none;html=1;rounded=0;entryX=0.142;entryY=0.004;entryDx=0;entryDy=0;entryPerimeter=0;exitX=0;exitY=0.25;exitDx=0;exitDy=0;" parent="1" source="tI2qVK5K96pvlCMNdgVa-40" target="tI2qVK5K96pvlCMNdgVa-40" edge="1">
          <mxGeometry width="50" height="50" relative="1" as="geometry">
            <mxPoint x="2502.5" y="-172.65" as="sourcePoint" />
            <mxPoint x="2552.5" y="-222.65" as="targetPoint" />
          </mxGeometry>
        </mxCell>
        <mxCell id="tI2qVK5K96pvlCMNdgVa-44" value="4.7" style="text;html=1;align=center;verticalAlign=middle;whiteSpace=wrap;rounded=0;" parent="1" vertex="1">
          <mxGeometry x="2482.5" y="-185.29999999999998" width="20" height="10" as="geometry" />
        </mxCell>
        <mxCell id="tI2qVK5K96pvlCMNdgVa-45" value="Отправка подтверждения на электронную почту" style="text;html=1;align=center;verticalAlign=middle;whiteSpace=wrap;rounded=0;" parent="1" vertex="1">
          <mxGeometry x="2459.5" y="-232" width="123" height="44.7" as="geometry" />
        </mxCell>
        <mxCell id="tI2qVK5K96pvlCMNdgVa-46" style="edgeStyle=orthogonalEdgeStyle;rounded=0;orthogonalLoop=1;jettySize=auto;html=1;entryX=0.025;entryY=0.648;entryDx=0;entryDy=0;entryPerimeter=0;" parent="1" source="JFCtVrj-zI766jc3Ud4v-23" target="tI2qVK5K96pvlCMNdgVa-45" edge="1">
          <mxGeometry relative="1" as="geometry" />
        </mxCell>
        <mxCell id="tI2qVK5K96pvlCMNdgVa-78" style="edgeStyle=orthogonalEdgeStyle;rounded=0;orthogonalLoop=1;jettySize=auto;html=1;entryX=0;entryY=0.5;entryDx=0;entryDy=0;exitX=0.5;exitY=0;exitDx=0;exitDy=0;" parent="1" source="tI2qVK5K96pvlCMNdgVa-47" target="tI2qVK5K96pvlCMNdgVa-56" edge="1">
          <mxGeometry relative="1" as="geometry" />
        </mxCell>
        <mxCell id="tI2qVK5K96pvlCMNdgVa-79" style="edgeStyle=orthogonalEdgeStyle;rounded=0;orthogonalLoop=1;jettySize=auto;html=1;entryX=0;entryY=0.5;entryDx=0;entryDy=0;exitX=0.5;exitY=1;exitDx=0;exitDy=0;" parent="1" source="tI2qVK5K96pvlCMNdgVa-47" target="tI2qVK5K96pvlCMNdgVa-72" edge="1">
          <mxGeometry relative="1" as="geometry" />
        </mxCell>
        <mxCell id="tI2qVK5K96pvlCMNdgVa-47" value="" style="rounded=0;whiteSpace=wrap;html=1;" parent="1" vertex="1">
          <mxGeometry x="1527.38" y="-124.3" width="51" height="35" as="geometry" />
        </mxCell>
        <mxCell id="tI2qVK5K96pvlCMNdgVa-48" value="" style="endArrow=none;html=1;rounded=0;entryX=0.25;entryY=0;entryDx=0;entryDy=0;exitX=0.25;exitY=1;exitDx=0;exitDy=0;" parent="1" edge="1">
          <mxGeometry width="50" height="50" relative="1" as="geometry">
            <mxPoint x="1538.38" y="-89.8" as="sourcePoint" />
            <mxPoint x="1538.38" y="-124.8" as="targetPoint" />
          </mxGeometry>
        </mxCell>
        <mxCell id="tI2qVK5K96pvlCMNdgVa-49" value="О" style="text;html=1;align=center;verticalAlign=middle;whiteSpace=wrap;rounded=0;" parent="1" vertex="1">
          <mxGeometry x="1548.88" y="-112.05" width="10" height="10" as="geometry" />
        </mxCell>
        <mxCell id="tI2qVK5K96pvlCMNdgVa-50" value="" style="rounded=0;whiteSpace=wrap;html=1;" parent="1" vertex="1">
          <mxGeometry x="1610" y="-222.65" width="120" height="60" as="geometry" />
        </mxCell>
        <mxCell id="tI2qVK5K96pvlCMNdgVa-51" value="" style="endArrow=none;html=1;rounded=0;exitX=0;exitY=0.75;exitDx=0;exitDy=0;entryX=1;entryY=0.75;entryDx=0;entryDy=0;" parent="1" source="tI2qVK5K96pvlCMNdgVa-50" target="tI2qVK5K96pvlCMNdgVa-50" edge="1">
          <mxGeometry width="50" height="50" relative="1" as="geometry">
            <mxPoint x="1710" y="-152.65" as="sourcePoint" />
            <mxPoint x="1760" y="-202.65" as="targetPoint" />
          </mxGeometry>
        </mxCell>
        <mxCell id="tI2qVK5K96pvlCMNdgVa-52" value="" style="endArrow=none;html=1;rounded=0;" parent="1" edge="1">
          <mxGeometry width="50" height="50" relative="1" as="geometry">
            <mxPoint x="1667.8899999999999" y="-162.65" as="sourcePoint" />
            <mxPoint x="1667.8899999999999" y="-177.65" as="targetPoint" />
          </mxGeometry>
        </mxCell>
        <mxCell id="tI2qVK5K96pvlCMNdgVa-53" value="" style="endArrow=none;html=1;rounded=0;entryX=0.142;entryY=0.004;entryDx=0;entryDy=0;entryPerimeter=0;exitX=0;exitY=0.25;exitDx=0;exitDy=0;" parent="1" source="tI2qVK5K96pvlCMNdgVa-50" target="tI2qVK5K96pvlCMNdgVa-50" edge="1">
          <mxGeometry width="50" height="50" relative="1" as="geometry">
            <mxPoint x="1650" y="-162.65" as="sourcePoint" />
            <mxPoint x="1700" y="-212.65" as="targetPoint" />
          </mxGeometry>
        </mxCell>
        <mxCell id="tI2qVK5K96pvlCMNdgVa-54" value="Валидация данных и проверка средств" style="text;html=1;align=center;verticalAlign=middle;whiteSpace=wrap;rounded=0;" parent="1" vertex="1">
          <mxGeometry x="1614.5" y="-212.65" width="111" height="30" as="geometry" />
        </mxCell>
        <mxCell id="tI2qVK5K96pvlCMNdgVa-55" value="2.1" style="text;html=1;align=center;verticalAlign=middle;whiteSpace=wrap;rounded=0;" parent="1" vertex="1">
          <mxGeometry x="1630" y="-175.29999999999998" width="20" height="10" as="geometry" />
        </mxCell>
        <mxCell id="tI2qVK5K96pvlCMNdgVa-56" value="" style="rounded=0;whiteSpace=wrap;html=1;" parent="1" vertex="1">
          <mxGeometry x="1610" y="-222.65" width="120" height="60" as="geometry" />
        </mxCell>
        <mxCell id="tI2qVK5K96pvlCMNdgVa-57" value="" style="endArrow=none;html=1;rounded=0;exitX=0;exitY=0.75;exitDx=0;exitDy=0;entryX=1;entryY=0.75;entryDx=0;entryDy=0;" parent="1" source="tI2qVK5K96pvlCMNdgVa-56" target="tI2qVK5K96pvlCMNdgVa-56" edge="1">
          <mxGeometry width="50" height="50" relative="1" as="geometry">
            <mxPoint x="1710" y="-152.65" as="sourcePoint" />
            <mxPoint x="1760" y="-202.65" as="targetPoint" />
          </mxGeometry>
        </mxCell>
        <mxCell id="tI2qVK5K96pvlCMNdgVa-58" value="" style="endArrow=none;html=1;rounded=0;" parent="1" edge="1">
          <mxGeometry width="50" height="50" relative="1" as="geometry">
            <mxPoint x="1667.8899999999999" y="-162.65" as="sourcePoint" />
            <mxPoint x="1667.8899999999999" y="-177.65" as="targetPoint" />
          </mxGeometry>
        </mxCell>
        <mxCell id="tI2qVK5K96pvlCMNdgVa-59" value="" style="endArrow=none;html=1;rounded=0;entryX=0.142;entryY=0.004;entryDx=0;entryDy=0;entryPerimeter=0;exitX=0;exitY=0.25;exitDx=0;exitDy=0;" parent="1" source="tI2qVK5K96pvlCMNdgVa-56" target="tI2qVK5K96pvlCMNdgVa-56" edge="1">
          <mxGeometry width="50" height="50" relative="1" as="geometry">
            <mxPoint x="1650" y="-162.65" as="sourcePoint" />
            <mxPoint x="1700" y="-212.65" as="targetPoint" />
          </mxGeometry>
        </mxCell>
        <mxCell id="tI2qVK5K96pvlCMNdgVa-80" style="edgeStyle=orthogonalEdgeStyle;rounded=0;orthogonalLoop=1;jettySize=auto;html=1;entryX=0.5;entryY=0;entryDx=0;entryDy=0;" parent="1" source="tI2qVK5K96pvlCMNdgVa-60" target="tI2qVK5K96pvlCMNdgVa-62" edge="1">
          <mxGeometry relative="1" as="geometry" />
        </mxCell>
        <mxCell id="tI2qVK5K96pvlCMNdgVa-60" value="Оплата картой онлайн" style="text;html=1;align=center;verticalAlign=middle;whiteSpace=wrap;rounded=0;" parent="1" vertex="1">
          <mxGeometry x="1614.5" y="-212.65" width="111" height="30" as="geometry" />
        </mxCell>
        <mxCell id="tI2qVK5K96pvlCMNdgVa-61" value="4.2" style="text;html=1;align=center;verticalAlign=middle;whiteSpace=wrap;rounded=0;" parent="1" vertex="1">
          <mxGeometry x="1630" y="-175.29999999999998" width="20" height="10" as="geometry" />
        </mxCell>
        <mxCell id="tI2qVK5K96pvlCMNdgVa-65" style="edgeStyle=orthogonalEdgeStyle;rounded=0;orthogonalLoop=1;jettySize=auto;html=1;entryX=0;entryY=0.5;entryDx=0;entryDy=0;" parent="1" source="tI2qVK5K96pvlCMNdgVa-62" target="JFCtVrj-zI766jc3Ud4v-71" edge="1">
          <mxGeometry relative="1" as="geometry" />
        </mxCell>
        <mxCell id="tI2qVK5K96pvlCMNdgVa-62" value="" style="rounded=0;whiteSpace=wrap;html=1;" parent="1" vertex="1">
          <mxGeometry x="1760" y="-124.64999999999999" width="51" height="35" as="geometry" />
        </mxCell>
        <mxCell id="tI2qVK5K96pvlCMNdgVa-63" value="" style="endArrow=none;html=1;rounded=0;entryX=0.25;entryY=0;entryDx=0;entryDy=0;exitX=0.25;exitY=1;exitDx=0;exitDy=0;" parent="1" edge="1">
          <mxGeometry width="50" height="50" relative="1" as="geometry">
            <mxPoint x="1771" y="-90.14999999999999" as="sourcePoint" />
            <mxPoint x="1771" y="-125.14999999999999" as="targetPoint" />
          </mxGeometry>
        </mxCell>
        <mxCell id="tI2qVK5K96pvlCMNdgVa-64" value="О" style="text;html=1;align=center;verticalAlign=middle;whiteSpace=wrap;rounded=0;" parent="1" vertex="1">
          <mxGeometry x="1781.5" y="-112.39999999999999" width="10" height="10" as="geometry" />
        </mxCell>
        <mxCell id="tI2qVK5K96pvlCMNdgVa-66" value="" style="rounded=0;whiteSpace=wrap;html=1;" parent="1" vertex="1">
          <mxGeometry x="1610" y="-60" width="120" height="60" as="geometry" />
        </mxCell>
        <mxCell id="tI2qVK5K96pvlCMNdgVa-67" value="" style="endArrow=none;html=1;rounded=0;exitX=0;exitY=0.75;exitDx=0;exitDy=0;entryX=1;entryY=0.75;entryDx=0;entryDy=0;" parent="1" source="tI2qVK5K96pvlCMNdgVa-66" target="tI2qVK5K96pvlCMNdgVa-66" edge="1">
          <mxGeometry width="50" height="50" relative="1" as="geometry">
            <mxPoint x="1710" y="10" as="sourcePoint" />
            <mxPoint x="1760" y="-40" as="targetPoint" />
          </mxGeometry>
        </mxCell>
        <mxCell id="tI2qVK5K96pvlCMNdgVa-68" value="" style="endArrow=none;html=1;rounded=0;" parent="1" edge="1">
          <mxGeometry width="50" height="50" relative="1" as="geometry">
            <mxPoint x="1667.8899999999999" as="sourcePoint" />
            <mxPoint x="1667.8899999999999" y="-15" as="targetPoint" />
          </mxGeometry>
        </mxCell>
        <mxCell id="tI2qVK5K96pvlCMNdgVa-69" value="" style="endArrow=none;html=1;rounded=0;entryX=0.142;entryY=0.004;entryDx=0;entryDy=0;entryPerimeter=0;exitX=0;exitY=0.25;exitDx=0;exitDy=0;" parent="1" source="tI2qVK5K96pvlCMNdgVa-66" target="tI2qVK5K96pvlCMNdgVa-66" edge="1">
          <mxGeometry width="50" height="50" relative="1" as="geometry">
            <mxPoint x="1650" as="sourcePoint" />
            <mxPoint x="1700" y="-50" as="targetPoint" />
          </mxGeometry>
        </mxCell>
        <mxCell id="tI2qVK5K96pvlCMNdgVa-70" value="Валидация данных и проверка средств" style="text;html=1;align=center;verticalAlign=middle;whiteSpace=wrap;rounded=0;" parent="1" vertex="1">
          <mxGeometry x="1614.5" y="-50" width="111" height="30" as="geometry" />
        </mxCell>
        <mxCell id="tI2qVK5K96pvlCMNdgVa-71" value="2.1" style="text;html=1;align=center;verticalAlign=middle;whiteSpace=wrap;rounded=0;" parent="1" vertex="1">
          <mxGeometry x="1630" y="-12.649999999999977" width="20" height="10" as="geometry" />
        </mxCell>
        <mxCell id="tI2qVK5K96pvlCMNdgVa-81" style="edgeStyle=orthogonalEdgeStyle;rounded=0;orthogonalLoop=1;jettySize=auto;html=1;entryX=0.5;entryY=1;entryDx=0;entryDy=0;" parent="1" source="tI2qVK5K96pvlCMNdgVa-72" target="tI2qVK5K96pvlCMNdgVa-62" edge="1">
          <mxGeometry relative="1" as="geometry" />
        </mxCell>
        <mxCell id="tI2qVK5K96pvlCMNdgVa-72" value="" style="rounded=0;whiteSpace=wrap;html=1;" parent="1" vertex="1">
          <mxGeometry x="1610" y="-60" width="120" height="60" as="geometry" />
        </mxCell>
        <mxCell id="tI2qVK5K96pvlCMNdgVa-73" value="" style="endArrow=none;html=1;rounded=0;exitX=0;exitY=0.75;exitDx=0;exitDy=0;entryX=1;entryY=0.75;entryDx=0;entryDy=0;" parent="1" source="tI2qVK5K96pvlCMNdgVa-72" target="tI2qVK5K96pvlCMNdgVa-72" edge="1">
          <mxGeometry width="50" height="50" relative="1" as="geometry">
            <mxPoint x="1710" y="10" as="sourcePoint" />
            <mxPoint x="1760" y="-40" as="targetPoint" />
          </mxGeometry>
        </mxCell>
        <mxCell id="tI2qVK5K96pvlCMNdgVa-74" value="" style="endArrow=none;html=1;rounded=0;" parent="1" edge="1">
          <mxGeometry width="50" height="50" relative="1" as="geometry">
            <mxPoint x="1667.8899999999999" as="sourcePoint" />
            <mxPoint x="1667.8899999999999" y="-15" as="targetPoint" />
          </mxGeometry>
        </mxCell>
        <mxCell id="tI2qVK5K96pvlCMNdgVa-75" value="" style="endArrow=none;html=1;rounded=0;entryX=0.142;entryY=0.004;entryDx=0;entryDy=0;entryPerimeter=0;exitX=0;exitY=0.25;exitDx=0;exitDy=0;" parent="1" source="tI2qVK5K96pvlCMNdgVa-72" target="tI2qVK5K96pvlCMNdgVa-72" edge="1">
          <mxGeometry width="50" height="50" relative="1" as="geometry">
            <mxPoint x="1650" as="sourcePoint" />
            <mxPoint x="1700" y="-50" as="targetPoint" />
          </mxGeometry>
        </mxCell>
        <mxCell id="tI2qVK5K96pvlCMNdgVa-76" value="Оплата картой при получении заказа" style="text;html=1;align=center;verticalAlign=middle;whiteSpace=wrap;rounded=0;" parent="1" vertex="1">
          <mxGeometry x="1614.5" y="-50" width="111" height="30" as="geometry" />
        </mxCell>
        <mxCell id="tI2qVK5K96pvlCMNdgVa-77" value="4.3" style="text;html=1;align=center;verticalAlign=middle;whiteSpace=wrap;rounded=0;" parent="1" vertex="1">
          <mxGeometry x="1630" y="-12.649999999999977" width="20" height="10" as="geometry" />
        </mxCell>
        <mxCell id="tI2qVK5K96pvlCMNdgVa-104" style="edgeStyle=orthogonalEdgeStyle;rounded=0;orthogonalLoop=1;jettySize=auto;html=1;entryX=0;entryY=0.5;entryDx=0;entryDy=0;exitX=0.5;exitY=0;exitDx=0;exitDy=0;" parent="1" source="tI2qVK5K96pvlCMNdgVa-82" target="tI2qVK5K96pvlCMNdgVa-92" edge="1">
          <mxGeometry relative="1" as="geometry" />
        </mxCell>
        <mxCell id="tI2qVK5K96pvlCMNdgVa-82" value="" style="rounded=0;whiteSpace=wrap;html=1;" parent="1" vertex="1">
          <mxGeometry x="210.88" y="-997.5" width="51" height="35" as="geometry" />
        </mxCell>
        <mxCell id="tI2qVK5K96pvlCMNdgVa-83" value="" style="endArrow=none;html=1;rounded=0;entryX=0.25;entryY=0;entryDx=0;entryDy=0;exitX=0.25;exitY=1;exitDx=0;exitDy=0;" parent="1" source="tI2qVK5K96pvlCMNdgVa-82" target="tI2qVK5K96pvlCMNdgVa-82" edge="1">
          <mxGeometry width="50" height="50" relative="1" as="geometry">
            <mxPoint x="170.88" y="-937.5" as="sourcePoint" />
            <mxPoint x="220.88" y="-987.5" as="targetPoint" />
          </mxGeometry>
        </mxCell>
        <mxCell id="tI2qVK5K96pvlCMNdgVa-84" value="&amp;amp;" style="text;html=1;align=center;verticalAlign=middle;whiteSpace=wrap;rounded=0;" parent="1" vertex="1">
          <mxGeometry x="230.88" y="-990" width="11" height="20" as="geometry" />
        </mxCell>
        <mxCell id="tI2qVK5K96pvlCMNdgVa-111" style="edgeStyle=orthogonalEdgeStyle;rounded=0;orthogonalLoop=1;jettySize=auto;html=1;entryX=0.5;entryY=0;entryDx=0;entryDy=0;" parent="1" source="tI2qVK5K96pvlCMNdgVa-92" target="tI2qVK5K96pvlCMNdgVa-106" edge="1">
          <mxGeometry relative="1" as="geometry" />
        </mxCell>
        <mxCell id="tI2qVK5K96pvlCMNdgVa-92" value="" style="rounded=0;whiteSpace=wrap;html=1;" parent="1" vertex="1">
          <mxGeometry x="318.38" y="-1077" width="120" height="60" as="geometry" />
        </mxCell>
        <mxCell id="tI2qVK5K96pvlCMNdgVa-93" value="" style="endArrow=none;html=1;rounded=0;exitX=0;exitY=0.75;exitDx=0;exitDy=0;entryX=1;entryY=0.75;entryDx=0;entryDy=0;" parent="1" source="tI2qVK5K96pvlCMNdgVa-92" target="tI2qVK5K96pvlCMNdgVa-92" edge="1">
          <mxGeometry width="50" height="50" relative="1" as="geometry">
            <mxPoint x="418.38" y="-1007" as="sourcePoint" />
            <mxPoint x="468.38" y="-1057" as="targetPoint" />
          </mxGeometry>
        </mxCell>
        <mxCell id="tI2qVK5K96pvlCMNdgVa-94" value="" style="endArrow=none;html=1;rounded=0;" parent="1" edge="1">
          <mxGeometry width="50" height="50" relative="1" as="geometry">
            <mxPoint x="376.27" y="-1017" as="sourcePoint" />
            <mxPoint x="376.27" y="-1032" as="targetPoint" />
          </mxGeometry>
        </mxCell>
        <mxCell id="tI2qVK5K96pvlCMNdgVa-95" value="" style="endArrow=none;html=1;rounded=0;entryX=0.142;entryY=0.004;entryDx=0;entryDy=0;entryPerimeter=0;exitX=0;exitY=0.25;exitDx=0;exitDy=0;" parent="1" source="tI2qVK5K96pvlCMNdgVa-92" target="tI2qVK5K96pvlCMNdgVa-92" edge="1">
          <mxGeometry width="50" height="50" relative="1" as="geometry">
            <mxPoint x="358.38" y="-1017" as="sourcePoint" />
            <mxPoint x="408.38" y="-1067" as="targetPoint" />
          </mxGeometry>
        </mxCell>
        <mxCell id="tI2qVK5K96pvlCMNdgVa-96" value="Ввод логина" style="text;html=1;align=center;verticalAlign=middle;whiteSpace=wrap;rounded=0;" parent="1" vertex="1">
          <mxGeometry x="328.38" y="-1067" width="100" height="30" as="geometry" />
        </mxCell>
        <mxCell id="tI2qVK5K96pvlCMNdgVa-97" value="1.2" style="text;html=1;align=center;verticalAlign=middle;whiteSpace=wrap;rounded=0;" parent="1" vertex="1">
          <mxGeometry x="338.38" y="-1029.5" width="20" height="10" as="geometry" />
        </mxCell>
        <mxCell id="tI2qVK5K96pvlCMNdgVa-110" style="edgeStyle=orthogonalEdgeStyle;rounded=0;orthogonalLoop=1;jettySize=auto;html=1;entryX=0.5;entryY=1;entryDx=0;entryDy=0;" parent="1" source="tI2qVK5K96pvlCMNdgVa-98" target="tI2qVK5K96pvlCMNdgVa-106" edge="1">
          <mxGeometry relative="1" as="geometry" />
        </mxCell>
        <mxCell id="tI2qVK5K96pvlCMNdgVa-98" value="" style="rounded=0;whiteSpace=wrap;html=1;" parent="1" vertex="1">
          <mxGeometry x="320" y="-938" width="120" height="60" as="geometry" />
        </mxCell>
        <mxCell id="tI2qVK5K96pvlCMNdgVa-99" value="" style="endArrow=none;html=1;rounded=0;exitX=0;exitY=0.75;exitDx=0;exitDy=0;entryX=1;entryY=0.75;entryDx=0;entryDy=0;" parent="1" source="tI2qVK5K96pvlCMNdgVa-98" target="tI2qVK5K96pvlCMNdgVa-98" edge="1">
          <mxGeometry width="50" height="50" relative="1" as="geometry">
            <mxPoint x="420" y="-868" as="sourcePoint" />
            <mxPoint x="470" y="-918" as="targetPoint" />
          </mxGeometry>
        </mxCell>
        <mxCell id="tI2qVK5K96pvlCMNdgVa-100" value="" style="endArrow=none;html=1;rounded=0;" parent="1" edge="1">
          <mxGeometry width="50" height="50" relative="1" as="geometry">
            <mxPoint x="377.89" y="-878" as="sourcePoint" />
            <mxPoint x="377.89" y="-893" as="targetPoint" />
          </mxGeometry>
        </mxCell>
        <mxCell id="tI2qVK5K96pvlCMNdgVa-101" value="" style="endArrow=none;html=1;rounded=0;entryX=0.142;entryY=0.004;entryDx=0;entryDy=0;entryPerimeter=0;exitX=0;exitY=0.25;exitDx=0;exitDy=0;" parent="1" source="tI2qVK5K96pvlCMNdgVa-98" target="tI2qVK5K96pvlCMNdgVa-98" edge="1">
          <mxGeometry width="50" height="50" relative="1" as="geometry">
            <mxPoint x="360" y="-878" as="sourcePoint" />
            <mxPoint x="410" y="-928" as="targetPoint" />
          </mxGeometry>
        </mxCell>
        <mxCell id="tI2qVK5K96pvlCMNdgVa-102" value="Ввод пароля" style="text;html=1;align=center;verticalAlign=middle;whiteSpace=wrap;rounded=0;" parent="1" vertex="1">
          <mxGeometry x="330" y="-928" width="100" height="30" as="geometry" />
        </mxCell>
        <mxCell id="tI2qVK5K96pvlCMNdgVa-103" value="1.3" style="text;html=1;align=center;verticalAlign=middle;whiteSpace=wrap;rounded=0;" parent="1" vertex="1">
          <mxGeometry x="340" y="-890.5" width="20" height="10" as="geometry" />
        </mxCell>
        <mxCell id="tI2qVK5K96pvlCMNdgVa-105" style="edgeStyle=orthogonalEdgeStyle;rounded=0;orthogonalLoop=1;jettySize=auto;html=1;entryX=-0.005;entryY=0.597;entryDx=0;entryDy=0;entryPerimeter=0;exitX=0.5;exitY=1;exitDx=0;exitDy=0;" parent="1" source="tI2qVK5K96pvlCMNdgVa-82" target="tI2qVK5K96pvlCMNdgVa-98" edge="1">
          <mxGeometry relative="1" as="geometry" />
        </mxCell>
        <mxCell id="tI2qVK5K96pvlCMNdgVa-109" style="edgeStyle=orthogonalEdgeStyle;rounded=0;orthogonalLoop=1;jettySize=auto;html=1;entryX=0;entryY=0.5;entryDx=0;entryDy=0;" parent="1" source="tI2qVK5K96pvlCMNdgVa-106" target="tI2qVK5K96pvlCMNdgVa-9" edge="1">
          <mxGeometry relative="1" as="geometry" />
        </mxCell>
        <mxCell id="tI2qVK5K96pvlCMNdgVa-106" value="" style="rounded=0;whiteSpace=wrap;html=1;" parent="1" vertex="1">
          <mxGeometry x="470" y="-997.5" width="51" height="35" as="geometry" />
        </mxCell>
        <mxCell id="tI2qVK5K96pvlCMNdgVa-107" value="" style="endArrow=none;html=1;rounded=0;entryX=0.25;entryY=0;entryDx=0;entryDy=0;exitX=0.25;exitY=1;exitDx=0;exitDy=0;" parent="1" source="tI2qVK5K96pvlCMNdgVa-106" target="tI2qVK5K96pvlCMNdgVa-106" edge="1">
          <mxGeometry width="50" height="50" relative="1" as="geometry">
            <mxPoint x="430" y="-937.5" as="sourcePoint" />
            <mxPoint x="480" y="-987.5" as="targetPoint" />
          </mxGeometry>
        </mxCell>
        <mxCell id="tI2qVK5K96pvlCMNdgVa-108" value="&amp;amp;" style="text;html=1;align=center;verticalAlign=middle;whiteSpace=wrap;rounded=0;" parent="1" vertex="1">
          <mxGeometry x="490" y="-990" width="11" height="20" as="geometry" />
        </mxCell>
        <mxCell id="tI2qVK5K96pvlCMNdgVa-119" style="edgeStyle=orthogonalEdgeStyle;rounded=0;orthogonalLoop=1;jettySize=auto;html=1;entryX=0;entryY=0.5;entryDx=0;entryDy=0;" parent="1" source="tI2qVK5K96pvlCMNdgVa-112" target="buGXm4uaibGnN2zzedQZ-175" edge="1">
          <mxGeometry relative="1" as="geometry" />
        </mxCell>
        <mxCell id="tI2qVK5K96pvlCMNdgVa-112" value="" style="rounded=0;whiteSpace=wrap;html=1;" parent="1" vertex="1">
          <mxGeometry x="726.12" y="-111.75" width="51" height="35" as="geometry" />
        </mxCell>
        <mxCell id="tI2qVK5K96pvlCMNdgVa-113" value="" style="endArrow=none;html=1;rounded=0;entryX=0.25;entryY=0;entryDx=0;entryDy=0;exitX=0.25;exitY=1;exitDx=0;exitDy=0;" parent="1" edge="1">
          <mxGeometry width="50" height="50" relative="1" as="geometry">
            <mxPoint x="737.12" y="-77.25" as="sourcePoint" />
            <mxPoint x="737.12" y="-112.25" as="targetPoint" />
          </mxGeometry>
        </mxCell>
        <mxCell id="tI2qVK5K96pvlCMNdgVa-114" value="О" style="text;html=1;align=center;verticalAlign=middle;whiteSpace=wrap;rounded=0;" parent="1" vertex="1">
          <mxGeometry x="747.62" y="-99.5" width="10" height="10" as="geometry" />
        </mxCell>
        <mxCell id="tI2qVK5K96pvlCMNdgVa-118" style="edgeStyle=orthogonalEdgeStyle;rounded=0;orthogonalLoop=1;jettySize=auto;html=1;entryX=0.493;entryY=1.085;entryDx=0;entryDy=0;entryPerimeter=0;" parent="1" source="tI2qVK5K96pvlCMNdgVa-30" target="tI2qVK5K96pvlCMNdgVa-112" edge="1">
          <mxGeometry relative="1" as="geometry" />
        </mxCell>
      </root>
    </mxGraphModel>
  </diagram>
</mxfile>
